{
.appVersion = "1356";
copyright = "©2016-2021 by Robert E. Leuschke. All rights reserved.";
customParameters = (
{
name = glyphOrder;
value = (
.notdef,
NULL,
CR,
space,
quotedbl,
numbersign,
dollar,
percent,
ampersand,
quotesingle,
parenleft,
parenright,
asterisk,
plus,
comma,
hyphen,
period,
zero.001,
one.001,
two.001,
three.001,
four.001,
five.001,
six.001,
seven.001,
eight.001,
nine.001,
colon,
semicolon,
less,
equal,
greater,
question,
at,
A,
B,
C,
D,
E,
F,
G,
H,
I,
J,
K,
L,
M,
N,
O,
P,
Q,
R,
S,
T,
U,
V,
W,
X,
Y,
Z,
bracketleft,
backslash,
bracketright,
asciicircum,
underscore,
grave,
a,
b,
c,
d,
e,
f,
g,
h,
i,
j,
k,
l,
m,
n,
o,
p,
q,
r,
s,
t,
u,
v,
w,
x,
y,
z,
braceleft,
bar,
braceright,
asciitilde,
dagger,
degree,
cent,
sterling,
section,
bullet,
paragraph,
germandbls,
registered,
copyright,
trademark,
acute,
dieresis,
notequal,
AE,
Oslash,
infinity,
plusminus,
lessequal,
greaterequal,
yen,
mu,
partialdiff,
pi,
integral,
ordfeminine,
ordmasculine,
Omega,
ae,
oslash,
questiondown,
exclamdown,
logicalnot,
florin,
guillemotleft,
guillemotright,
ellipsis,
OE,
oe,
endash,
emdash,
quotedblleft,
quotedblright,
quoteleft,
quoteright,
Euro,
daggerdbl,
periodcentered,
quotesinglbase,
quotedblbase,
perthousand,
apple,
dotlessi,
circumflex,
tilde,
macron,
breve,
dotaccent,
ring,
cedilla,
ogonek,
caron,
DC1,
Eth,
eth,
Lslash,
lslash,
Scaron,
scaron,
Yacute,
yacute,
Thorn,
thorn,
Zcaron,
zcaron,
onehalf,
onequarter,
onesuperior,
threequarters,
threesuperior,
twosuperior,
brokenbar,
minus,
multiply,
slash,
summation,
product,
radical,
approxequal,
Delta,
divide,
lozenge,
fraction,
guilsinglleft,
guilsinglright,
hungarumlaut,
Adieresis,
Aring,
Ccedilla,
Eacute,
Ntilde,
Odieresis,
Udieresis,
aacute,
agrave,
acircumflex,
adieresis,
atilde,
aring,
ccedilla,
eacute,
egrave,
ecircumflex,
edieresis,
iacute,
igrave,
icircumflex,
idieresis,
ntilde,
oacute,
ograve,
ocircumflex,
odieresis,
otilde,
uacute,
ugrave,
ucircumflex,
udieresis,
Agrave,
Atilde,
Otilde,
ydieresis,
Ydieresis,

glyphs = (
{
color = 9;
glyphname = .notdef;
lastChange = "2021-06-09 05:02:54 +0000";
layers = (
{
layerId = "40AAE8A1-2E59-408F-988A-610CC450AA88";
paths = (
{
closed = 1;
nodes = (
"438 -5 LINE",
"449 7 LINE",
"449 575 LINE",
"438 587 LINE",
"47 587 LINE",
"35 575 LINE",
"35 7 LINE",
"47 -5 LINE"
);
},
{
closed = 1;
nodes = (
"142 139 LINE",
"225 292 LINE",
"142 443 LINE",
"153 465 LINE",
"236 314 LINE",
"321 466 LINE",
"334 443 LINE",
"248 290 LINE",
"334 139 LINE",
"321 117 LINE",
"236 267 LINE",
"153 117 LINE"
);
},
{
closed = 1;
nodes = (
"61 561 LINE",
"425 561 LINE",
"425 21 LINE",
"61 21 LINE"
);
},
{
closed = 1;
nodes = (
"402 40 LINE",
"402 538 LINE",
"82 538 LINE",
"82 40 LINE"
);
}
);
width = 484;
}
);
note = .notdef;
},
{
color = 9;
glyphname = quotedbl;
lastChange = "2021-06-09 05:02:54 +0000";
layers = (
{
hints = (
{
horizontal = 1;
place = "{423, 177}";
type = Stem;
},
{
place = "{155, 232}";
type = Stem;
}
);
layerId = "40AAE8A1-2E59-408F-988A-610CC450AA88";
paths = (
{
closed = 1;
nodes = (
"179 428 OFFCURVE",
"267 539 OFFCURVE",
"273 553 CURVE SMOOTH",
"278 562 OFFCURVE",
"278 584 OFFCURVE",
"273 592 CURVE SMOOTH",
"270 598 OFFCURVE",
"260 603 OFFCURVE",
"251 598 CURVE SMOOTH",
"243 595 OFFCURVE",
"239 587 OFFCURVE",
"234 579 CURVE",
"225 559 OFFCURVE",
"146 436 OFFCURVE",
"156 425 CURVE",
"157 423 OFFCURVE",
"165 421 OFFCURVE",
"169 424 CURVE"
);
},
{
closed = 1;
nodes = (
"289 428 OFFCURVE",
"377 539 OFFCURVE",
"383 553 CURVE SMOOTH",
"388 562 OFFCURVE",
"388 584 OFFCURVE",
"383 592 CURVE SMOOTH",
"380 598 OFFCURVE",
"370 603 OFFCURVE",
"361 598 CURVE SMOOTH",
"353 595 OFFCURVE",
"349 587 OFFCURVE",
"344 579 CURVE",
"335 559 OFFCURVE",
"256 436 OFFCURVE",
"266 425 CURVE",
"267 423 OFFCURVE",
"275 421 OFFCURVE",
"279 424 CURVE"
);
}
);
width = 387;
}
);
note = quotedbl;
unicode = 0022;
},
{
color = 9;
glyphname = numbersign;
lastChange = "2021-06-09 05:02:54 +0000";
layers = (
{
hints = (
{
horizontal = 1;
place = "{211, 46}";
type = Stem;
},
{
horizontal = 1;
place = "{432, 41}";
type = Stem;
}
);
layerId = "40AAE8A1-2E59-408F-988A-610CC450AA88";
paths = (
{
closed = 1;
nodes = (
"767 653 OFFCURVE",
"722 648 OFFCURVE",
"714 636 CURVE SMOOTH",
"585 438 LINE",
"430 438 LINE",
"467 499 OFFCURVE",
"507 564 OFFCURVE",
"553 634 CURVE SMOOTH",
"565 653 OFFCURVE",
"520 648 OFFCURVE",
"512 636 CURVE SMOOTH",
"383 438 LINE",
"242 438 LINE SMOOTH",
"193 438 OFFCURVE",
"126 397 OFFCURVE",
"177 397 CURVE SMOOTH",
"357 397 LINE",
"266 258 LINE",
"168 258 LINE SMOOTH",
"119 258 OFFCURVE",
"52 217 OFFCURVE",
"103 217 CURVE SMOOTH",
"240 217 LINE",
"109 15 LINE SMOOTH",
"89 -15 OFFCURVE",
"154 -16 OFFCURVE",
"166 5 CURVE SMOOTH",
"214 78 OFFCURVE",
"257 147 OFFCURVE",
"298 217 CURVE",
"442 217 LINE",
"311 15 LINE SMOOTH",
"291 -15 OFFCURVE",
"356 -16 OFFCURVE",
"368 5 CURVE SMOOTH",
"416 78 OFFCURVE",
"459 147 OFFCURVE",
"500 217 CURVE",
"622 217 LINE SMOOTH",
"686 217 OFFCURVE",
"768 226 OFFCURVE",
"768 244 CURVE SMOOTH",
"768 256 OFFCURVE",
"697 258 OFFCURVE",
"671 258 CURVE SMOOTH",
"525 258 LINE",
"552 303 OFFCURVE",
"578 350 OFFCURVE",
"607 397 CURVE",
"696 397 LINE SMOOTH",
"760 397 OFFCURVE",
"842 406 OFFCURVE",
"842 424 CURVE SMOOTH",
"842 436 OFFCURVE",
"771 438 OFFCURVE",
"745 438 CURVE SMOOTH",
"632 438 LINE",
"669 499 OFFCURVE",
"709 564 OFFCURVE",
"755 634 CURVE SMOOTH"
);
},
{
closed = 1;
nodes = (
"559 397 LINE",
"468 258 LINE",
"323 258 LINE",
"350 303 OFFCURVE",
"376 350 OFFCURVE",
"405 397 CURVE"
);
}
);
width = 791;
}
);
note = numbersign;
unicode = 0023;
},
{
color = 9;
glyphname = dollar;
lastChange = "2021-06-09 05:02:54 +0000";
layers = (
{
hints = (
{
horizontal = 1;
place = "{11, 31}";
type = Stem;
},
{
horizontal = 1;
place = "{350, 20}";
type = Stem;
},
{
place = "{108, 22}";
type = Stem;
},
{
place = "{191, 32}";
type = Stem;
},
{
place = "{362, 31}";
type = Stem;
}
);
layerId = "40AAE8A1-2E59-408F-988A-610CC450AA88";
paths = (
{
closed = 1;
nodes = (
"16 -86 LINE SMOOTH",
"6 -102 OFFCURVE",
"49 -83 OFFCURVE",
"56 -73 CURVE SMOOTH",
"110 13 LINE",
"115 12 OFFCURVE",
"120 11 OFFCURVE",
"122 11 CURVE SMOOTH",
"146 8 OFFCURVE",
"218 12 OFFCURVE",
"223 48 CURVE SMOOTH",
"227 71 OFFCURVE",
"206 99 OFFCURVE",
"182 128 CURVE",
"321 350 LINE",
"325 350 LINE SMOOTH",
"339 348 OFFCURVE",
"365 342 OFFCURVE",
"362 322 CURVE SMOOTH",
"354 278 OFFCURVE",
"287 234 OFFCURVE",
"278 217 CURVE",
"276 215 OFFCURVE",
"278 214 OFFCURVE",
"279 214 CURVE SMOOTH",
"282 214 OFFCURVE",
"284 214 OFFCURVE",
"287 215 CURVE SMOOTH",
"322 230 OFFCURVE",
"386 266 OFFCURVE",
"393 310 CURVE SMOOTH",
"399 343 OFFCURVE",
"363 362 OFFCURVE",
"333 370 CURVE",
"386 452 LINE SMOOTH",
"402 478 OFFCURVE",
"350 455 OFFCURVE",
"340 437 CURVE SMOOTH",
"327 415 OFFCURVE",
"314 395 OFFCURVE",
"301 375 CURVE",
"229 379 OFFCURVE",
"123 343 OFFCURVE",
"108 256 CURVE SMOOTH",
"100 208 OFFCURVE",
"127 166 OFFCURVE",
"153 133 CURVE",
"135 104 OFFCURVE",
"116 75 OFFCURVE",
"97 44 CURVE",
"85 46 OFFCURVE",
"75 54 OFFCURVE",
"64 55 CURVE",
"61 56 OFFCURVE",
"59 55 OFFCURVE",
"58 52 CURVE SMOOTH",
"56 40 OFFCURVE",
"69 30 OFFCURVE",
"84 23 CURVE"
);
},
{
closed = 1;
nodes = (
"140 291 OFFCURVE",
"221 338 OFFCURVE",
"285 349 CURVE",
"164 152 LINE",
"143 178 OFFCURVE",
"126 205 OFFCURVE",
"130 227 CURVE SMOOTH"
);
},
{
closed = 1;
nodes = (
"186 51 OFFCURVE",
"154 44 OFFCURVE",
"128 42 CURVE",
"171 111 LINE",
"183 95 OFFCURVE",
"192 82 OFFCURVE",
"191 74 CURVE SMOOTH"
);
}
);
width = 373;
}
);
note = dollar.1;
unicode = 0024;
},
{
color = 9;
glyphname = percent;
lastChange = "2021-06-09 05:02:54 +0000";
layers = (
{
hints = (
{
horizontal = 1;
place = "{-82, 30}";
type = Stem;
},
{
horizontal = 1;
place = "{374, 30}";
type = Stem;
},
{
horizontal = 1;
place = "{597, 31}";
type = Stem;
},
{
place = "{95, 47}";
type = Stem;
},
{
place = "{295, 47}";
type = Stem;
}
);
layerId = "40AAE8A1-2E59-408F-988A-610CC450AA88";
paths = (
{
closed = 1;
nodes = (
"595 545 OFFCURVE",
"583 551 OFFCURVE",
"574 551 CURVE SMOOTH",
"573 551 OFFCURVE",
"570 549 OFFCURVE",
"569 549 CURVE",
"515 524 OFFCURVE",
"396 489 OFFCURVE",
"337 489 CURVE SMOOTH",
"335 489 OFFCURVE",
"330 489 OFFCURVE",
"329 490 CURVE",
"331 500 OFFCURVE",
"333 509 OFFCURVE",
"333 519 CURVE SMOOTH",
"333 545 OFFCURVE",
"319 561 OFFCURVE",
"288 561 CURVE SMOOTH",
"222 561 OFFCURVE",
"88 402 OFFCURVE",
"88 344 CURVE SMOOTH",
"88 320 OFFCURVE",
"104 290 OFFCURVE",
"134 290 CURVE SMOOTH",
"220 290 OFFCURVE",
"287 368 OFFCURVE",
"313 408 CURVE SMOOTH",
"320 419 OFFCURVE",
"332 447 OFFCURVE",
"332 461 CURVE SMOOTH",
"332 462 OFFCURVE",
"331 463 OFFCURVE",
"331 465 CURVE",
"388 465 OFFCURVE",
"484 496 OFFCURVE",
"535 518 CURVE",
"410 350 OFFCURVE",
"190 187 OFFCURVE",
"106 -9 CURVE SMOOTH",
"100 -24 OFFCURVE",
"87 -94 OFFCURVE",
"121 -94 CURVE SMOOTH",
"126 -94 OFFCURVE",
"141 -87 OFFCURVE",
"141 -81 CURVE SMOOTH",
"141 -80 OFFCURVE",
"141 -80 OFFCURVE",
"139 -79 CURVE",
"131 -72 OFFCURVE",
"130 -69 OFFCURVE",
"130 -59 CURVE SMOOTH",
"130 -50 OFFCURVE",
"132 -42 OFFCURVE",
"135 -34 CURVE SMOOTH",
"153 9 OFFCURVE",
"193 60 OFFCURVE",
"222 98 CURVE SMOOTH",
"312 218 OFFCURVE",
"412 332 OFFCURVE",
"514 443 CURVE SMOOTH",
"587 521 LINE SMOOTH",
"591 525 OFFCURVE",
"595 530 OFFCURVE",
"595 536 CURVE SMOOTH"
);
},
{
closed = 1;
nodes = (
"520 134 OFFCURVE",
"507 128 OFFCURVE",
"504 133 CURVE",
"506 142 OFFCURVE",
"508 152 OFFCURVE",
"508 161 CURVE SMOOTH",
"508 188 OFFCURVE",
"494 204 OFFCURVE",
"463 204 CURVE SMOOTH",
"397 204 OFFCURVE",
"263 44 OFFCURVE",
"263 -14 CURVE SMOOTH",
"263 -37 OFFCURVE",
"280 -68 OFFCURVE",
"309 -68 CURVE SMOOTH",
"323 -68 LINE SMOOTH",
"380 -68 OFFCURVE",
"455 19 OFFCURVE",
"481 59 CURVE SMOOTH",
"488 70 OFFCURVE",
"500 90 OFFCURVE",
"500 103 CURVE SMOOTH",
"500 105 OFFCURVE",
"499 106 OFFCURVE",
"499 107 CURVE",
"506 109 OFFCURVE",
"520 116 OFFCURVE",
"520 124 CURVE SMOOTH"
);
},
{
closed = 1;
nodes = (
"476 80 OFFCURVE",
"372 -44 OFFCURVE",
"325 -44 CURVE SMOOTH",
"308 -44 OFFCURVE",
"304 -32 OFFCURVE",
"304 -20 CURVE SMOOTH",
"304 22 OFFCURVE",
"420 168 OFFCURVE",
"464 169 CURVE",
"473 157 OFFCURVE",
"448 116 OFFCURVE",
"476 120 CURVE"
);
},
{
closed = 1;
nodes = (
"302 422 OFFCURVE",
"196 313 OFFCURVE",
"150 313 CURVE SMOOTH",
"133 313 OFFCURVE",
"129 325 OFFCURVE",
"129 338 CURVE SMOOTH",
"129 379 OFFCURVE",
"223 498 OFFCURVE",
"268 498 CURVE",
"277 487 OFFCURVE",
"290 470 OFFCURVE",
"303 462 CURVE"
);
}
);
width = 701;
}
);
note = percent;
unicode = 0025;
},
{
color = 9;
glyphname = ampersand;
lastChange = "2021-06-09 05:02:54 +0000";
layers = (
{
hints = (
{
horizontal = 1;
place = "{-230, 22}";
type = Stem;
},
{
horizontal = 1;
place = "{-35, 20}";
type = Stem;
},
{
horizontal = 1;
place = "{110, 27}";
type = Stem;
},
{
horizontal = 1;
place = "{550, 24}";
type = Stem;
},
{
place = "{76, 24}";
type = Stem;
},
{
place = "{141, 55}";
type = Stem;
},
{
place = "{411, 46}";
type = Stem;
},
{
place = "{647, 38}";
type = Stem;
},
{
place = "{700, 35}";
type = Stem;
},
{
horizontal = 1;
place = "{0, 21}";
target = up;
type = BottomGhost;
}
);
layerId = "40AAE8A1-2E59-408F-988A-610CC450AA88";
paths = (
{
closed = 1;
nodes = (
"551 116 OFFCURVE",
"499 82 OFFCURVE",
"459 57 CURVE",
"463 120 OFFCURVE",
"467 167 OFFCURVE",
"475 213 CURVE",
"515 225 OFFCURVE",
"567 240 OFFCURVE",
"602 247 CURVE SMOOTH",
"694 262 OFFCURVE",
"624 177 OFFCURVE",
"586 146 CURVE SMOOTH"
);
},
{
closed = 1;
nodes = (
"374 204 OFFCURVE",
"320 186 OFFCURVE",
"267 171 CURVE",
"322 236 OFFCURVE",
"388 282 OFFCURVE",
"459 330 CURVE",
"446 289 OFFCURVE",
"436 257 OFFCURVE",
"429 223 CURVE"
);
},
{
closed = 1;
nodes = (
"392 26 OFFCURVE",
"374 17 OFFCURVE",
"356 10 CURVE SMOOTH",
"171 -62 OFFCURVE",
"163 32 OFFCURVE",
"247 140 CURVE",
"270 146 OFFCURVE",
"293 153 OFFCURVE",
"316 161 CURVE SMOOTH",
"340 169 OFFCURVE",
"381 183 OFFCURVE",
"426 198 CURVE",
"414 142 OFFCURVE",
"411 88 OFFCURVE",
"410 35 CURVE"
);
},
{
closed = 1;
nodes = (
"628 -179 OFFCURVE",
"586 -208 OFFCURVE",
"543 -208 CURVE SMOOTH",
"482 -209 OFFCURVE",
"454 -122 OFFCURVE",
"457 19 CURVE",
"514 38 OFFCURVE",
"605 104 OFFCURVE",
"650 158 CURVE SMOOTH",
"692 212 OFFCURVE",
"711 286 OFFCURVE",
"619 273 CURVE SMOOTH",
"596 269 OFFCURVE",
"568 262 OFFCURVE",
"552 257 CURVE SMOOTH",
"478 234 LINE",
"484 274 OFFCURVE",
"494 319 OFFCURVE",
"507 367 CURVE",
"538 385 OFFCURVE",
"590 411 OFFCURVE",
"635 438 CURVE SMOOTH",
"657 450 OFFCURVE",
"735 494 OFFCURVE",
"735 542 CURVE SMOOTH",
"735 561 OFFCURVE",
"723 576 OFFCURVE",
"686 574 CURVE SMOOTH",
"603 570 OFFCURVE",
"516 483 OFFCURVE",
"477 381 CURVE",
"363 317 OFFCURVE",
"241 234 OFFCURVE",
"177 140 CURVE",
"101 125 OFFCURVE",
"65 168 OFFCURVE",
"145 213 CURVE SMOOTH",
"159 221 OFFCURVE",
"143 227 OFFCURVE",
"130 220 CURVE SMOOTH",
"53 177 OFFCURVE",
"56 97 OFFCURVE",
"158 110 CURVE",
"152 100 OFFCURVE",
"153 98 OFFCURVE",
"148 86 CURVE SMOOTH",
"122 17 OFFCURVE",
"172 -35 OFFCURVE",
"250 -35 CURVE SMOOTH",
"302 -34 OFFCURVE",
"357 -21 OFFCURVE",
"411 0 CURVE",
"418 -141 OFFCURVE",
"450 -279 OFFCURVE",
"602 -213 CURVE SMOOTH",
"623 -204 OFFCURVE",
"647 -189 OFFCURVE",
"653 -183 CURVE SMOOTH",
"662 -176 OFFCURVE",
"659 -165 OFFCURVE",
"652 -168 CURVE SMOOTH"
);
},
{
closed = 1;
nodes = (
"567 497 OFFCURVE",
"634 550 OFFCURVE",
"671 550 CURVE SMOOTH",
"681 550 OFFCURVE",
"700 547 OFFCURVE",
"700 533 CURVE SMOOTH",
"700 504 OFFCURVE",
"622 460 OFFCURVE",
"540 416 CURVE"
);
}
);
width = 576;
}
);
note = ampersand.1;
unicode = 0026;
},
{
color = 9;
glyphname = quotesingle;
lastChange = "2021-06-09 05:02:54 +0000";
layers = (
{
hints = (
{
horizontal = 1;
place = "{423, 177}";
type = Stem;
},
{
place = "{155, 122}";
type = Stem;
}
);
layerId = "40AAE8A1-2E59-408F-988A-610CC450AA88";
paths = (
{
closed = 1;
nodes = (
"179 428 OFFCURVE",
"267 539 OFFCURVE",
"273 553 CURVE SMOOTH",
"278 562 OFFCURVE",
"278 584 OFFCURVE",
"273 592 CURVE SMOOTH",
"270 598 OFFCURVE",
"260 603 OFFCURVE",
"251 598 CURVE SMOOTH",
"243 595 OFFCURVE",
"239 587 OFFCURVE",
"234 579 CURVE",
"225 559 OFFCURVE",
"146 436 OFFCURVE",
"156 425 CURVE",
"157 423 OFFCURVE",
"165 421 OFFCURVE",
"169 424 CURVE"
);
}
);
width = 277;
}
);
note = quotesingle;
unicode = 0027;
},
{
color = 9;
glyphname = parenleft;
lastChange = "2021-06-09 05:02:54 +0000";
layers = (
{
hints = (
{
horizontal = 1;
place = "{-34, 25}";
type = Stem;
},
{
horizontal = 1;
place = "{737, 23}";
type = Stem;
},
{
place = "{-5, 57}";
type = Stem;
}
);
layerId = "40AAE8A1-2E59-408F-988A-610CC450AA88";
paths = (
{
closed = 1;
nodes = (
"584 760 OFFCURVE",
"544 751 OFFCURVE",
"514 743 CURVE SMOOTH",
"336 697 OFFCURVE",
"115 547 OFFCURVE",
"36 376 CURVE SMOOTH",
"12 323 OFFCURVE",
"-5 264 OFFCURVE",
"-5 206 CURVE SMOOTH",
"-5 87 OFFCURVE",
"68 -19 OFFCURVE",
"191 -34 CURVE",
"196 -34 LINE SMOOTH",
"203 -34 OFFCURVE",
"224 -31 OFFCURVE",
"224 -20 CURVE SMOOTH",
"224 -11 OFFCURVE",
"206 -10 OFFCURVE",
"201 -9 CURVE SMOOTH",
"184 -7 OFFCURVE",
"169 -5 OFFCURVE",
"153 1 CURVE SMOOTH",
"81 26 OFFCURVE",
"52 91 OFFCURVE",
"52 163 CURVE SMOOTH",
"52 235 OFFCURVE",
"79 310 OFFCURVE",
"112 373 CURVE SMOOTH",
"189 520 OFFCURVE",
"332 658 OFFCURVE",
"490 711 CURVE SMOOTH",
"530 725 OFFCURVE",
"569 731 OFFCURVE",
"610 737 CURVE SMOOTH",
"614 738 OFFCURVE",
"635 739 OFFCURVE",
"635 748 CURVE SMOOTH",
"635 755 OFFCURVE",
"620 760 OFFCURVE",
"615 760 CURVE SMOOTH"
);
}
);
width = 375;
}
);
note = parenleft;
unicode = 0028;
},
{
color = 9;
glyphname = parenright;
lastChange = "2021-06-09 05:02:54 +0000";
layers = (
{
hints = (
{
horizontal = 1;
place = "{-35, 23}";
type = Stem;
},
{
horizontal = 1;
place = "{734, 25}";
type = Stem;
},
{
place = "{592, 57}";
type = Stem;
}
);
layerId = "40AAE8A1-2E59-408F-988A-610CC450AA88";
paths = (
{
closed = 1;
nodes = (
"61 -35 OFFCURVE",
"100 -26 OFFCURVE",
"131 -18 CURVE SMOOTH",
"309 28 OFFCURVE",
"529 178 OFFCURVE",
"608 349 CURVE SMOOTH",
"633 402 OFFCURVE",
"649 461 OFFCURVE",
"649 520 CURVE SMOOTH",
"649 639 OFFCURVE",
"576 744 OFFCURVE",
"453 759 CURVE",
"448 759 LINE SMOOTH",
"442 759 OFFCURVE",
"421 756 OFFCURVE",
"421 745 CURVE SMOOTH",
"421 736 OFFCURVE",
"438 735 OFFCURVE",
"443 734 CURVE SMOOTH",
"460 732 OFFCURVE",
"475 730 OFFCURVE",
"492 724 CURVE SMOOTH",
"564 699 OFFCURVE",
"593 633 OFFCURVE",
"593 561 CURVE SMOOTH",
"593 489 OFFCURVE",
"566 414 OFFCURVE",
"533 351 CURVE SMOOTH",
"456 205 OFFCURVE",
"311 67 OFFCURVE",
"154 14 CURVE SMOOTH",
"114 0 OFFCURVE",
"75 -6 OFFCURVE",
"34 -12 CURVE SMOOTH",
"30 -13 OFFCURVE",
"9 -14 OFFCURVE",
"9 -23 CURVE SMOOTH",
"9 -30 OFFCURVE",
"25 -35 OFFCURVE",
"30 -35 CURVE SMOOTH"
);
}
);
width = 651;
}
);
note = parenright;
unicode = 0029;
},
{
color = 9;
glyphname = asterisk;
lastChange = "2021-06-09 05:02:54 +0000";
layers = (
{
hints = (
{
horizontal = 1;
place = "{337, 26}";
type = Stem;
},
{
place = "{144, 136}";
type = Stem;
}
);
layerId = "40AAE8A1-2E59-408F-988A-610CC450AA88";
paths = (
{
closed = 1;
nodes = (
"229 338 OFFCURVE",
"325 338 OFFCURVE",
"325 356 CURVE SMOOTH",
"325 364 OFFCURVE",
"306 364 OFFCURVE",
"301 364 CURVE SMOOTH",
"222 364 LINE",
"238 375 OFFCURVE",
"295 413 OFFCURVE",
"295 433 CURVE SMOOTH",
"295 436 OFFCURVE",
"293 438 OFFCURVE",
"290 438 CURVE SMOOTH",
"279 438 OFFCURVE",
"205 383 OFFCURVE",
"202 381 CURVE",
"207 409 OFFCURVE",
"214 437 OFFCURVE",
"214 465 CURVE SMOOTH",
"214 470 OFFCURVE",
"214 493 OFFCURVE",
"206 493 CURVE SMOOTH",
"198 493 OFFCURVE",
"193 466 OFFCURVE",
"192 459 CURVE SMOOTH",
"174 385 LINE",
"123 449 LINE",
"120 454 OFFCURVE",
"108 461 OFFCURVE",
"103 461 CURVE SMOOTH",
"98 461 OFFCURVE",
"96 458 OFFCURVE",
"96 454 CURVE SMOOTH",
"96 442 OFFCURVE",
"142 379 OFFCURVE",
"151 367 CURVE",
"62 363 LINE SMOOTH",
"57 363 OFFCURVE",
"39 358 OFFCURVE",
"39 351 CURVE SMOOTH",
"39 333 OFFCURVE",
"130 338 OFFCURVE",
"143 338 CURVE",
"77 290 LINE SMOOTH",
"73 287 OFFCURVE",
"65 276 OFFCURVE",
"65 271 CURVE SMOOTH",
"65 266 OFFCURVE",
"69 265 OFFCURVE",
"73 265 CURVE SMOOTH",
"93 265 OFFCURVE",
"151 313 OFFCURVE",
"159 319 CURVE",
"156 299 OFFCURVE",
"145 256 OFFCURVE",
"145 239 CURVE SMOOTH",
"145 233 OFFCURVE",
"146 218 OFFCURVE",
"154 218 CURVE SMOOTH",
"168 218 OFFCURVE",
"189 302 OFFCURVE",
"192 317 CURVE",
"205 302 OFFCURVE",
"258 241 OFFCURVE",
"276 241 CURVE SMOOTH",
"279 241 OFFCURVE",
"281 243 OFFCURVE",
"281 246 CURVE SMOOTH",
"281 254 OFFCURVE",
"216 337 OFFCURVE",
"216 337 CURVE"
);
}
);
width = 352;
}
);
note = asterisk;
unicode = 002A;
},
{
color = 9;
glyphname = plus;
lastChange = "2021-06-09 05:02:54 +0000";
layers = (
{
hints = (
{
horizontal = 1;
place = "{67, 194}";
type = Stem;
}
);
layerId = "40AAE8A1-2E59-408F-988A-610CC450AA88";
paths = (
{
closed = 1;
nodes = (
"222 377 OFFCURVE",
"202 319 OFFCURVE",
"185 260 CURVE",
"138 260 OFFCURVE",
"91 259 OFFCURVE",
"44 259 CURVE SMOOTH",
"32 259 OFFCURVE",
"19 247 OFFCURVE",
"19 235 CURVE SMOOTH",
"19 214 OFFCURVE",
"151 212 OFFCURVE",
"171 212 CURVE",
"167 197 OFFCURVE",
"139 103 OFFCURVE",
"139 93 CURVE SMOOTH",
"139 83 OFFCURVE",
"146 67 OFFCURVE",
"158 67 CURVE SMOOTH",
"178 67 OFFCURVE",
"217 196 OFFCURVE",
"223 216 CURVE",
"247 220 OFFCURVE",
"397 236 OFFCURVE",
"397 259 CURVE SMOOTH",
"397 260 OFFCURVE",
"396 261 OFFCURVE",
"396 262 CURVE",
"365 259 OFFCURVE",
"333 260 OFFCURVE",
"302 260 CURVE SMOOTH",
"231 260 LINE",
"237 307 OFFCURVE",
"246 355 OFFCURVE",
"246 402 CURVE SMOOTH",
"246 408 OFFCURVE",
"246 439 OFFCURVE",
"234 437 CURVE"
);
}
);
width = 406;
}
);
note = plus;
unicode = 002B;
},
{
color = 9;
glyphname = comma;
lastChange = "2021-06-09 05:02:54 +0000";
layers = (
{
hints = (
{
horizontal = 1;
place = "{-125, 178}";
type = Stem;
},
{
place = "{35, 142}";
type = Stem;
}
);
layerId = "40AAE8A1-2E59-408F-988A-610CC450AA88";
paths = (
{
closed = 1;
nodes = (
"59 -120 OFFCURVE",
"154 -10 OFFCURVE",
"165 0 CURVE SMOOTH",
"183 17 OFFCURVE",
"177 33 OFFCURVE",
"172 41 CURVE SMOOTH",
"169 47 OFFCURVE",
"148 57 OFFCURVE",
"139 52 CURVE SMOOTH",
"131 49 OFFCURVE",
"127 41 OFFCURVE",
"122 33 CURVE",
"113 13 OFFCURVE",
"26 -112 OFFCURVE",
"36 -123 CURVE",
"37 -125 OFFCURVE",
"45 -127 OFFCURVE",
"49 -124 CURVE"
);
}
);
width = 146;
}
);
note = comma;
unicode = 002C;
},
{
color = 9;
glyphname = hyphen;
lastChange = "2021-06-09 05:02:54 +0000";
layers = (
{
hints = (
{
horizontal = 1;
place = "{216, 37}";
type = Stem;
},
{
place = "{107, 271}";
type = Stem;
}
);
layerId = "40AAE8A1-2E59-408F-988A-610CC450AA88";
paths = (
{
closed = 1;
nodes = (
"284 216 LINE SMOOTH",
"325 216 OFFCURVE",
"378 225 OFFCURVE",
"378 241 CURVE SMOOTH",
"378 252 OFFCURVE",
"333 253 OFFCURVE",
"316 253 CURVE SMOOTH",
"161 253 LINE SMOOTH",
"129 253 OFFCURVE",
"86 216 OFFCURVE",
"119 216 CURVE SMOOTH"
);
}
);
width = 402;
}
);
note = hyphen;
unicode = 002D;
},
{
color = 9;
glyphname = period;
lastChange = "2021-06-09 05:02:54 +0000";
layers = (
{
hints = (
{
horizontal = 1;
place = "{-30, 64}";
type = Stem;
}
);
layerId = "40AAE8A1-2E59-408F-988A-610CC450AA88";
paths = (
{
closed = 1;
nodes = (
"173 58 OFFCURVE",
"161 69 OFFCURVE",
"150 69 CURVE SMOOTH",
"130 69 OFFCURVE",
"99 33 OFFCURVE",
"99 16 CURVE SMOOTH",
"99 -3 OFFCURVE",
"122 -6 OFFCURVE",
"134 -6 CURVE SMOOTH",
"145 -6 OFFCURVE",
"171 35 OFFCURVE",
"172 45 CURVE SMOOTH"
);
}
);
width = 258;
}
);
note = period;
unicode = 002E;
},
{
color = 9;
glyphname = colon;
lastChange = "2021-06-09 05:02:54 +0000";
layers = (
{
hints = (
{
horizontal = 1;
place = "{19, -20}";
target = down;
type = TopGhost;
}
);
layerId = "40AAE8A1-2E59-408F-988A-610CC450AA88";
paths = (
{
closed = 1;
nodes = (
"272 240 OFFCURVE",
"260 251 OFFCURVE",
"249 251 CURVE SMOOTH",
"229 251 OFFCURVE",
"198 215 OFFCURVE",
"198 198 CURVE SMOOTH",
"198 179 OFFCURVE",
"221 176 OFFCURVE",
"233 176 CURVE SMOOTH",
"244 176 OFFCURVE",
"270 217 OFFCURVE",
"271 227 CURVE SMOOTH"
);
},
{
closed = 1;
nodes = (
"173 58 OFFCURVE",
"161 69 OFFCURVE",
"150 69 CURVE SMOOTH",
"130 69 OFFCURVE",
"99 33 OFFCURVE",
"99 16 CURVE SMOOTH",
"99 -3 OFFCURVE",
"122 -6 OFFCURVE",
"134 -6 CURVE SMOOTH",
"145 -6 OFFCURVE",
"171 35 OFFCURVE",
"172 45 CURVE SMOOTH"
);
}
);
width = 310;
}
);
note = colon;
unicode = 003A;
},
{
color = 9;
glyphname = semicolon;
lastChange = "2021-06-09 05:02:54 +0000";
layers = (
{
hints = (
{
horizontal = 1;
place = "{-125, 368}";
type = Stem;
},
{
place = "{35, 232}";
type = Stem;
},
{
horizontal = 1;
place = "{176, 67}";
type = Stem;
},
{
place = "{201, 66}";
type = Stem;
}
);
layerId = "40AAE8A1-2E59-408F-988A-610CC450AA88";
paths = (
{
closed = 1;
nodes = (
"268 234 OFFCURVE",
"257 243 OFFCURVE",
"247 243 CURVE SMOOTH",
"229 243 OFFCURVE",
"201 211 OFFCURVE",
"201 196 CURVE SMOOTH",
"201 179 OFFCURVE",
"222 176 OFFCURVE",
"233 176 CURVE SMOOTH",
"243 176 OFFCURVE",
"266 213 OFFCURVE",
"267 222 CURVE SMOOTH"
);
},
{
closed = 1;
nodes = (
"59 -120 OFFCURVE",
"154 -10 OFFCURVE",
"165 0 CURVE SMOOTH",
"183 17 OFFCURVE",
"177 33 OFFCURVE",
"172 41 CURVE SMOOTH",
"169 47 OFFCURVE",
"148 57 OFFCURVE",
"139 52 CURVE SMOOTH",
"131 49 OFFCURVE",
"127 41 OFFCURVE",
"122 33 CURVE",
"113 13 OFFCURVE",
"26 -112 OFFCURVE",
"36 -123 CURVE",
"37 -125 OFFCURVE",
"45 -127 OFFCURVE",
"49 -124 CURVE"
);
}
);
width = 291;
}
);
note = semicolon;
unicode = 003B;
},
{
color = 9;
glyphname = less;
lastChange = "2021-06-09 05:02:54 +0000";
layers = (
{
hints = (
{
place = "{85, 45}";
type = Stem;
}
);
layerId = "40AAE8A1-2E59-408F-988A-610CC450AA88";
paths = (
{
closed = 1;
nodes = (
"145 237 OFFCURVE",
"146 235 OFFCURVE",
"147 233 CURVE",
"182 192 OFFCURVE",
"216 162 OFFCURVE",
"238 110 CURVE",
"252 104 OFFCURVE",
"256 110 OFFCURVE",
"258 117 CURVE SMOOTH",
"263 135 OFFCURVE",
"213 234 OFFCURVE",
"203 256 CURVE",
"222 273 OFFCURVE",
"360 375 OFFCURVE",
"365 385 CURVE",
"366 389 OFFCURVE",
"364 392 OFFCURVE",
"360 393 CURVE SMOOTH",
"352 394 OFFCURVE",
"345 390 OFFCURVE",
"337 385 CURVE SMOOTH",
"311 367 OFFCURVE",
"151 256 OFFCURVE",
"146 239 CURVE SMOOTH"
);
}
);
width = 318;
}
);
note = less;
unicode = 003C;
},
{
color = 9;
glyphname = equal;
lastChange = "2021-06-09 05:02:54 +0000";
layers = (
{
hints = (
{
horizontal = 1;
place = "{212, 49}";
type = Stem;
},
{
horizontal = 1;
place = "{332, 49}";
type = Stem;
}
);
layerId = "40AAE8A1-2E59-408F-988A-610CC450AA88";
paths = (
{
closed = 1;
nodes = (
"353 144 LINE SMOOTH",
"394 144 OFFCURVE",
"447 153 OFFCURVE",
"447 169 CURVE SMOOTH",
"447 180 OFFCURVE",
"402 181 OFFCURVE",
"385 181 CURVE SMOOTH",
"181 181 LINE SMOOTH",
"149 181 OFFCURVE",
"106 144 OFFCURVE",
"139 144 CURVE SMOOTH"
);
},
{
closed = 1;
nodes = (
"411 259 LINE SMOOTH",
"452 259 OFFCURVE",
"505 268 OFFCURVE",
"505 284 CURVE SMOOTH",
"505 295 OFFCURVE",
"460 296 OFFCURVE",
"443 296 CURVE SMOOTH",
"239 296 LINE SMOOTH",
"207 296 OFFCURVE",
"164 259 OFFCURVE",
"197 259 CURVE SMOOTH"
);
}
);
width = 478;
}
);
note = equal;
unicode = 003D;
},
{
color = 9;
glyphname = greater;
lastChange = "2021-06-09 05:02:54 +0000";
layers = (
{
hints = (
{
place = "{184, 45}";
type = Stem;
}
);
layerId = "40AAE8A1-2E59-408F-988A-610CC450AA88";
paths = (
{
closed = 1;
nodes = (
"328 261 OFFCURVE",
"327 263 OFFCURVE",
"326 265 CURVE",
"291 306 OFFCURVE",
"257 336 OFFCURVE",
"235 388 CURVE",
"221 394 OFFCURVE",
"217 388 OFFCURVE",
"215 381 CURVE SMOOTH",
"210 363 OFFCURVE",
"260 264 OFFCURVE",
"270 242 CURVE",
"251 225 OFFCURVE",
"113 123 OFFCURVE",
"108 113 CURVE",
"107 109 OFFCURVE",
"109 106 OFFCURVE",
"113 105 CURVE SMOOTH",
"121 104 OFFCURVE",
"128 108 OFFCURVE",
"136 113 CURVE SMOOTH",
"162 131 OFFCURVE",
"322 242 OFFCURVE",
"327 259 CURVE SMOOTH"
);
}
);
width = 357;
}
);
note = greater;
unicode = 003E;
},
{
color = 9;
glyphname = question;
lastChange = "2021-06-09 05:02:54 +0000";
layers = (
{
hints = (
{
place = "{99, 72}";
type = Stem;
}
);
layerId = "40AAE8A1-2E59-408F-988A-610CC450AA88";
paths = (
{
closed = 1;
nodes = (
"246 230 OFFCURVE",
"309 259 OFFCURVE",
"373 282 CURVE SMOOTH",
"447 309 OFFCURVE",
"583 365 OFFCURVE",
"583 463 CURVE SMOOTH",
"583 540 OFFCURVE",
"499 567 OFFCURVE",
"435 567 CURVE SMOOTH",
"340 567 OFFCURVE",
"258 541 OFFCURVE",
"258 469 CURVE SMOOTH",
"258 452 OFFCURVE",
"269 430 OFFCURVE",
"285 430 CURVE",
"290 431 OFFCURVE",
"291 436 OFFCURVE",
"291 440 CURVE SMOOTH",
"291 451 OFFCURVE",
"287 462 OFFCURVE",
"287 473 CURVE SMOOTH",
"287 527 OFFCURVE",
"380 535 OFFCURVE",
"416 535 CURVE SMOOTH",
"461 535 OFFCURVE",
"541 512 OFFCURVE",
"541 455 CURVE SMOOTH",
"541 451 OFFCURVE",
"541 446 OFFCURVE",
"539 442 CURVE SMOOTH",
"492 317 OFFCURVE",
"229 288 OFFCURVE",
"190 185 CURVE SMOOTH",
"170 132 OFFCURVE",
"203 156 OFFCURVE",
"211 169 CURVE SMOOTH"
);
},
{
closed = 1;
nodes = (
"173 58 OFFCURVE",
"161 69 OFFCURVE",
"150 69 CURVE SMOOTH",
"130 69 OFFCURVE",
"99 33 OFFCURVE",
"99 16 CURVE SMOOTH",
"99 -3 OFFCURVE",
"122 -6 OFFCURVE",
"134 -6 CURVE SMOOTH",
"145 -6 OFFCURVE",
"171 35 OFFCURVE",
"172 45 CURVE SMOOTH"
);
}
);
width = 510;
}
);
note = question;
unicode = 003F;
},
{
color = 9;
glyphname = at;
lastChange = "2021-06-09 05:02:54 +0000";
layers = (
{
background = {
components = (
{
name = a;
transform = "{1, 0, 0, 1, 290, 149}";
}
);
};
hints = (
{
horizontal = 1;
place = "{26, 21}";
type = Stem;
},
{
horizontal = 1;
place = "{183, 22}";
type = Stem;
},
{
horizontal = 1;
place = "{488, 36}";
type = Stem;
},
{
horizontal = 1;
place = "{615, 23}";
type = Stem;
},
{
horizontal = 1;
place = "{693, 23}";
type = Stem;
},
{
place = "{14, 53}";
type = Stem;
},
{
place = "{791, 30}";
type = Stem;
},
{
horizontal = 1;
place = "{138, 29}";
type = Stem;
},
{
horizontal = 1;
place = "{401, 40}";
type = Stem;
},
{
place = "{315, 33}";
type = Stem;
},
{
place = "{443, 28}";
type = Stem;
},
{
horizontal = 1;
place = "{848.649, 23.776}";
type = Stem;
}
);
layerId = "40AAE8A1-2E59-408F-988A-610CC450AA88";
paths = (
{
closed = 1;
nodes = (
"502 30 OFFCURVE",
"512 40 OFFCURVE",
"497 41 CURVE SMOOTH",
"464 44 OFFCURVE",
"491 126 OFFCURVE",
"515 181 CURVE SMOOTH",
"538 233 OFFCURVE",
"580 312 OFFCURVE",
"602 334 CURVE",
"603 336 OFFCURVE",
"603 338 OFFCURVE",
"603 340 CURVE SMOOTH",
"603 354 OFFCURVE",
"586 381 OFFCURVE",
"571 381 CURVE SMOOTH",
"566 381 OFFCURVE",
"564 378 OFFCURVE",
"561 374 CURVE SMOOTH",
"551 360 OFFCURVE",
"543 345 OFFCURVE",
"532 331 CURVE SMOOTH",
"490 274 OFFCURVE",
"432 217 OFFCURVE",
"370 183 CURVE SMOOTH",
"368 182 OFFCURVE",
"365 181 OFFCURVE",
"363 181 CURVE SMOOTH",
"359 181 OFFCURVE",
"359 187 OFFCURVE",
"359 190 CURVE SMOOTH",
"359 201 OFFCURVE",
"363 212 OFFCURVE",
"367 221 CURVE SMOOTH",
"395 286 OFFCURVE",
"490 415 OFFCURVE",
"565 415 CURVE SMOOTH",
"599 415 OFFCURVE",
"613 379 OFFCURVE",
"620 379 CURVE SMOOTH",
"628 379 OFFCURVE",
"629 399 OFFCURVE",
"629 405 CURVE SMOOTH",
"629 438 OFFCURVE",
"604 455 OFFCURVE",
"568 455 CURVE SMOOTH",
"485 455 OFFCURVE",
"326 306 OFFCURVE",
"326 205 CURVE SMOOTH",
"326 176 OFFCURVE",
"345 152 OFFCURVE",
"375 152 CURVE SMOOTH",
"417 152 OFFCURVE",
"505 287 OFFCURVE",
"542 318 CURVE",
"535 308 OFFCURVE",
"519 279 OFFCURVE",
"492 222 CURVE SMOOTH",
"480 197 OFFCURVE",
"413 41 OFFCURVE",
"491 31 CURVE SMOOTH"
);
},
{
closed = 1;
nodes = (
"587.387 597.514 OFFCURVE",
"496.975 593.056 OFFCURVE",
"498.434 582.654 CURVE SMOOTH",
"498.434 578.196 OFFCURVE",
"498.434 576.71 OFFCURVE",
"504.267 573.738 CURVE",
"389.065 527.672 OFFCURVE",
"251.99 434.054 OFFCURVE",
"199.493 337.463 CURVE SMOOTH",
"164.495 279.509 OFFCURVE",
"136.788 205.209 OFFCURVE",
"149.912 136.853 CURVE SMOOTH",
"163.037 61.066 OFFCURVE",
"228.658 25.402 OFFCURVE",
"319.069 25.402 CURVE SMOOTH",
"553.847 25.402 OFFCURVE",
"844.038 228.985 OFFCURVE",
"806.124 431.082 CURVE SMOOTH",
"793 492.008 OFFCURVE",
"734.67 549.962 OFFCURVE",
"657.383 575.224 CURVE SMOOTH"
);
},
{
closed = 1;
nodes = (
"680 560 OFFCURVE",
"741 519 OFFCURVE",
"755 446 CURVE SMOOTH",
"775 341 OFFCURVE",
"710 249 OFFCURVE",
"623 177 CURVE SMOOTH",
"544 118 OFFCURVE",
"415 47 OFFCURVE",
"289 47 CURVE SMOOTH",
"228 47 OFFCURVE",
"206 70 OFFCURVE",
"196 116 CURVE SMOOTH",
"160 289 OFFCURVE",
"366 520 OFFCURVE",
"562 566 CURVE"
);
}
);
width = 842;
}
);
note = at;
unicode = 0040;
},
{
color = 11;
glyphname = A;
lastChange = "2021-06-09 19:50:26 +0000";
layers = (
{
anchors = (
{
name = bottom;
position = "{511, -121}";
},
{
name = ogonek;
position = "{782, -97}";
},
{
name = top;
position = "{1132, 663}";
}
);
hints = (
{
horizontal = 1;
place = "{192, 38}";
type = Stem;
}
);
layerId = "40AAE8A1-2E59-408F-988A-610CC450AA88";
paths = (
{
closed = 1;
nodes = (
"918 550 OFFCURVE",
"742 339 OFFCURVE",
"612 220 CURVE",
"564 232 OFFCURVE",
"511 246 OFFCURVE",
"458 257 CURVE",
"471 278 LINE SMOOTH",
"517 352 OFFCURVE",
"507 442 OFFCURVE",
"403 442 CURVE SMOOTH",
"275 442 OFFCURVE",
"124 302 OFFCURVE",
"59 201 CURVE SMOOTH",
"28 153 OFFCURVE",
"7 88 OFFCURVE",
"7 31 CURVE SMOOTH",
"7 -57 OFFCURVE",
"56 -111 OFFCURVE",
"145 -111 CURVE SMOOTH",
"290 -111 OFFCURVE",
"487 59 OFFCURVE",
"621 191 CURVE",
"773 148 LINE",
"764 125 OFFCURVE",
"751 100 OFFCURVE",
"745 80 CURVE SMOOTH",
"696 -61 OFFCURVE",
"736 -110 OFFCURVE",
"797 -110 CURVE SMOOTH",
"836 -110 OFFCURVE",
"846 -68 OFFCURVE",
"832 -76 CURVE SMOOTH",
"811 -88 OFFCURVE",
"792 -86 OFFCURVE",
"782 -81 CURVE",
"752 -58 OFFCURVE",
"775 26 OFFCURVE",
"822 135 CURVE",
"886 120 OFFCURVE",
"995 99 OFFCURVE",
"995 180 CURVE SMOOTH",
"995 202 OFFCURVE",
"961 227 OFFCURVE",
"942 236 CURVE SMOOTH",
"926 242 OFFCURVE",
"931 233 OFFCURVE",
"938 226 CURVE SMOOTH",
"944 220 OFFCURVE",
"972 190 OFFCURVE",
"969 175 CURVE SMOOTH",
"963 146 OFFCURVE",
"905 151 OFFCURVE",
"834 167 CURVE",
"842 185 OFFCURVE",
"852 205 OFFCURVE",
"862 224 CURVE SMOOTH",
"914 319 OFFCURVE",
"983 428 OFFCURVE",
"1052 511 CURVE SMOOTH",
"1069 531 OFFCURVE",
"1087 550 OFFCURVE",
"1105 570 CURVE SMOOTH",
"1112 577 OFFCURVE",
"1121 587 OFFCURVE",
"1121 598 CURVE SMOOTH",
"1121 611 OFFCURVE",
"1108 615 OFFCURVE",
"1098 615 CURVE SMOOTH",
"1089 615 OFFCURVE",
"1080 612 OFFCURVE",
"1072 609 CURVE SMOOTH"
);
},
{
closed = 1;
nodes = (
"233 281 OFFCURVE",
"165 261 OFFCURVE",
"206 201 CURVE SMOOTH",
"220 183 OFFCURVE",
"234 172 OFFCURVE",
"242 173 CURVE SMOOTH",
"260 176 OFFCURVE",
"222 231 OFFCURVE",
"235 245 CURVE",
"252 268 OFFCURVE",
"331 260 OFFCURVE",
"416 243 CURVE",
"397 204 OFFCURVE",
"373 166 OFFCURVE",
"353 138 CURVE SMOOTH",
"347 129 OFFCURVE",
"357 114 OFFCURVE",
"386 152 CURVE SMOOTH",
"402 173 OFFCURVE",
"426 208 OFFCURVE",
"444 236 CURVE",
"498 224 OFFCURVE",
"549 211 OFFCURVE",
"589 200 CURVE",
"582 193 OFFCURVE",
"575 187 OFFCURVE",
"568 182 CURVE",
"486 105 OFFCURVE",
"270 -87 OFFCURVE",
"154 -87 CURVE SMOOTH",
"84 -87 OFFCURVE",
"44 -29 OFFCURVE",
"44 37 CURVE SMOOTH",
"44 84 OFFCURVE",
"62 136 OFFCURVE",
"84 178 CURVE SMOOTH",
"101 211 OFFCURVE",
"121 242 OFFCURVE",
"145 271 CURVE SMOOTH",
"198 336 OFFCURVE",
"295 413 OFFCURVE",
"383 413 CURVE SMOOTH",
"465 413 OFFCURVE",
"458 340 OFFCURVE",
"425 264 CURVE",
"374 274 OFFCURVE",
"323 281 OFFCURVE",
"280 281 CURVE SMOOTH"
);
},
{
closed = 1;
nodes = (
"937 452 OFFCURVE",
"844 304 OFFCURVE",
"785 178 CURVE",
"722 191 OFFCURVE",
"664 206 OFFCURVE",
"641 212 CURVE",
"752 330 OFFCURVE",
"861 454 OFFCURVE",
"1012 537 CURVE"
);
}
);
width = 932;
}
);
note = A.1;
unicode = 0041;
},
{
color = 11;
glyphname = B;
lastChange = "2021-06-09 19:50:26 +0000";
layers = (
{
hints = (
{
horizontal = 1;
place = "{304, 36}";
type = Stem;
},
{
horizontal = 1;
place = "{638, -20}";
target = down;
type = TopGhost;
}
);
layerId = "40AAE8A1-2E59-408F-988A-610CC450AA88";
paths = (
{
closed = 1;
nodes = (
"353 -29 OFFCURVE",
"364 -17 OFFCURVE",
"364 -9 CURVE SMOOTH",
"364 -8 OFFCURVE",
"363 -7 OFFCURVE",
"362 -7 CURVE SMOOTH",
"354 -7 OFFCURVE",
"339 -24 OFFCURVE",
"326 -24 CURVE SMOOTH",
"315 -24 OFFCURVE",
"307 -18 OFFCURVE",
"307 -7 CURVE SMOOTH",
"307 21 OFFCURVE",
"363 87 OFFCURVE",
"385 117 CURVE",
"413 123 OFFCURVE",
"442 127 OFFCURVE",
"471 127 CURVE SMOOTH",
"485 127 OFFCURVE",
"539 126 OFFCURVE",
"539 107 CURVE SMOOTH",
"539 106 OFFCURVE",
"537 103 OFFCURVE",
"537 101 CURVE SMOOTH",
"537 96 OFFCURVE",
"542 93 OFFCURVE",
"546 93 CURVE SMOOTH",
"559 93 OFFCURVE",
"577 112 OFFCURVE",
"577 124 CURVE SMOOTH",
"577 147 OFFCURVE",
"505 147 OFFCURVE",
"489 147 CURVE SMOOTH",
"461 147 OFFCURVE",
"435 146 OFFCURVE",
"410 144 CURVE",
"510 248 OFFCURVE",
"630 422 OFFCURVE",
"784 529 CURVE SMOOTH",
"820 554 OFFCURVE",
"802 560 OFFCURVE",
"776 549 CURVE SMOOTH",
"754 540 OFFCURVE",
"678 497 OFFCURVE",
"628 449 CURVE SMOOTH",
"527 352 OFFCURVE",
"465 301 OFFCURVE",
"335 133 CURVE",
"246 109 OFFCURVE",
"102 66 OFFCURVE",
"102 -18 CURVE SMOOTH",
"102 -96 OFFCURVE",
"236 -101 OFFCURVE",
"289 -101 CURVE SMOOTH",
"325 -101 OFFCURVE",
"361 -99 OFFCURVE",
"396 -94 CURVE SMOOTH",
"436 -88 OFFCURVE",
"475 -79 OFFCURVE",
"514 -68 CURVE SMOOTH",
"606 -40 OFFCURVE",
"775 30 OFFCURVE",
"835 108 CURVE SMOOTH",
"852 130 OFFCURVE",
"865 157 OFFCURVE",
"865 185 CURVE SMOOTH",
"865 259 OFFCURVE",
"773 306 OFFCURVE",
"708 320 CURVE",
"785 336 OFFCURVE",
"932 395 OFFCURVE",
"976 452 CURVE SMOOTH",
"991 471 OFFCURVE",
"1004 495 OFFCURVE",
"1004 520 CURVE SMOOTH",
"1004 636 OFFCURVE",
"726 643 OFFCURVE",
"650 643 CURVE SMOOTH",
"462 643 OFFCURVE",
"190 614 OFFCURVE",
"55 471 CURVE SMOOTH",
"26 440 OFFCURVE",
"0 398 OFFCURVE",
"0 354 CURVE SMOOTH",
"0 322 OFFCURVE",
"14 295 OFFCURVE",
"43 281 CURVE SMOOTH",
"69 268 OFFCURVE",
"89 270 OFFCURVE",
"112 275 CURVE SMOOTH",
"118 276 OFFCURVE",
"131 287 OFFCURVE",
"131 294 CURVE SMOOTH",
"131 297 OFFCURVE",
"128 300 OFFCURVE",
"125 299 CURVE SMOOTH",
"113 293 OFFCURVE",
"92 293 OFFCURVE",
"75 301 CURVE SMOOTH",
"54 311 OFFCURVE",
"47 329 OFFCURVE",
"47 352 CURVE SMOOTH",
"47 394 OFFCURVE",
"82 437 OFFCURVE",
"111 464 CURVE SMOOTH",
"237 581 OFFCURVE",
"441 618 OFFCURVE",
"608 618 CURVE SMOOTH",
"677 618 OFFCURVE",
"941 606 OFFCURVE",
"941 507 CURVE SMOOTH",
"941 491 OFFCURVE",
"934 477 OFFCURVE",
"926 464 CURVE SMOOTH",
"890 409 OFFCURVE",
"721 341 OFFCURVE",
"655 341 CURVE SMOOTH",
"652 341 OFFCURVE",
"648 342 OFFCURVE",
"644 342 CURVE SMOOTH",
"634 342 OFFCURVE",
"623 335 OFFCURVE",
"623 324 CURVE SMOOTH",
"623 309 OFFCURVE",
"631 299 OFFCURVE",
"647 299 CURVE SMOOTH",
"707 299 OFFCURVE",
"812 245 OFFCURVE",
"812 177 CURVE SMOOTH",
"812 154 OFFCURVE",
"802 133 OFFCURVE",
"788 115 CURVE SMOOTH",
"715 20 OFFCURVE",
"509 -42 OFFCURVE",
"396 -61 CURVE SMOOTH",
"377 -64 OFFCURVE",
"150 -105 OFFCURVE",
"150 -16 CURVE SMOOTH",
"150 48 OFFCURVE",
"264 80 OFFCURVE",
"312 97 CURVE",
"291 68 OFFCURVE",
"274 32 OFFCURVE",
"274 0 CURVE SMOOTH",
"274 -12 OFFCURVE",
"277 -19 OFFCURVE",
"286 -27 CURVE SMOOTH",
"300 -39 OFFCURVE",
"319 -47 OFFCURVE",
"344 -36 CURVE"
);
}
);
width = 855;
}
);
note = B.1;
unicode = 0042;
},
{
color = 11;
glyphname = C;
lastChange = "2021-06-09 19:50:26 +0000";
layers = (
{
anchors = (
{
name = bottom;
position = "{253, -71}";
},
{
name = top;
position = "{735, 659}";
}
);
hints = (
{
horizontal = 1;
place = "{-75, 32}";
type = Stem;
},
{
horizontal = 1;
place = "{281, 35}";
type = Stem;
},
{
horizontal = 1;
place = "{564, 47}";
type = Stem;
},
{
place = "{61, 53}";
type = Stem;
},
{
place = "{389, 29}";
type = Stem;
},
{
place = "{820, 28}";
type = Stem;
}
);
layerId = "40AAE8A1-2E59-408F-988A-610CC450AA88";
paths = (
{
closed = 1;
nodes = (
"538 611 OFFCURVE",
"345 529 OFFCURVE",
"237 424 CURVE SMOOTH",
"153 343 OFFCURVE",
"61 208 OFFCURVE",
"61 96 CURVE SMOOTH",
"61 -32 OFFCURVE",
"178 -75 OFFCURVE",
"294 -75 CURVE SMOOTH",
"428 -75 OFFCURVE",
"576 2 OFFCURVE",
"676 91 CURVE SMOOTH",
"685 99 OFFCURVE",
"720 136 OFFCURVE",
"722 146 CURVE SMOOTH",
"722 148 OFFCURVE",
"721 150 OFFCURVE",
"718 150 CURVE",
"709 152 OFFCURVE",
"672 120 OFFCURVE",
"661 110 CURVE SMOOTH",
"567 29 OFFCURVE",
"435 -43 OFFCURVE",
"310 -43 CURVE SMOOTH",
"212 -43 OFFCURVE",
"114 9 OFFCURVE",
"114 118 CURVE SMOOTH",
"114 202 OFFCURVE",
"171 293 OFFCURVE",
"229 357 CURVE SMOOTH",
"345 483 OFFCURVE",
"511 564 OFFCURVE",
"684 564 CURVE SMOOTH",
"714 564 OFFCURVE",
"820 559 OFFCURVE",
"820 511 CURVE SMOOTH",
"820 411 OFFCURVE",
"547 316 OFFCURVE",
"477 316 CURVE SMOOTH",
"456 316 OFFCURVE",
"418 322 OFFCURVE",
"418 350 CURVE SMOOTH",
"418 409 OFFCURVE",
"539 465 OFFCURVE",
"568 473 CURVE SMOOTH",
"626 489 OFFCURVE",
"614 502 OFFCURVE",
"561 490 CURVE SMOOTH",
"483 472 OFFCURVE",
"389 399 OFFCURVE",
"389 342 CURVE SMOOTH",
"389 293 OFFCURVE",
"453 281 OFFCURVE",
"490 281 CURVE SMOOTH",
"574 281 OFFCURVE",
"727 333 OFFCURVE",
"791 398 CURVE SMOOTH",
"820 427 OFFCURVE",
"848 464 OFFCURVE",
"848 507 CURVE SMOOTH",
"848 592 OFFCURVE",
"754 611 OFFCURVE",
"689 611 CURVE SMOOTH"
);
}
);
width = 646;
}
);
note = C.1;
unicode = 0043;
},
{
color = 11;
glyphname = D;
lastChange = "2021-06-09 19:50:26 +0000";
layers = (
{
anchors = (
{
name = bottom;
position = "{328, -75}";
},
{
name = center;
position = "{476, 300}";
},
{
name = top;
position = "{910, 624}";
}
);
hints = (
{
horizontal = 1;
place = "{-52, 29}";
type = Stem;
},
{
horizontal = 1;
place = "{158, 31}";
type = Stem;
},
{
horizontal = 1;
place = "{247, 14}";
type = Stem;
},
{
horizontal = 1;
place = "{587, 22}";
type = Stem;
},
{
place = "{56, 47}";
type = Stem;
},
{
place = "{191, 53}";
type = Stem;
},
{
place = "{308, 27}";
type = Stem;
},
{
place = "{751, 25}";
type = Stem;
},
{
place = "{1004, 65}";
type = Stem;
}
);
layerId = "40AAE8A1-2E59-408F-988A-610CC450AA88";
paths = (
{
closed = 1;
nodes = (
"414 155 LINE SMOOTH",
"504 268 OFFCURVE",
"622 417 OFFCURVE",
"784 529 CURVE SMOOTH",
"820 554 OFFCURVE",
"802 560 OFFCURVE",
"776 549 CURVE SMOOTH",
"754 540 OFFCURVE",
"678 497 OFFCURVE",
"628 449 CURVE SMOOTH",
"523 348 OFFCURVE",
"480 322 OFFCURVE",
"391 202 CURVE SMOOTH",
"371 175 OFFCURVE",
"354 151 OFFCURVE",
"341 128 CURVE",
"257 97 OFFCURVE",
"191 52 OFFCURVE",
"191 -5 CURVE SMOOTH",
"191 -98 OFFCURVE",
"521 -24 OFFCURVE",
"532 -22 CURVE SMOOTH",
"679 9 OFFCURVE",
"939 109 OFFCURVE",
"1035 282 CURVE SMOOTH",
"1164 520 OFFCURVE",
"895 609 OFFCURVE",
"706 609 CURVE SMOOTH",
"518 609 OFFCURVE",
"246 580 OFFCURVE",
"111 437 CURVE SMOOTH",
"82 406 OFFCURVE",
"56 364 OFFCURVE",
"56 320 CURVE SMOOTH",
"56 288 OFFCURVE",
"70 261 OFFCURVE",
"99 247 CURVE SMOOTH",
"125 234 OFFCURVE",
"145 236 OFFCURVE",
"168 241 CURVE SMOOTH",
"174 242 OFFCURVE",
"187 253 OFFCURVE",
"187 260 CURVE SMOOTH",
"187 263 OFFCURVE",
"184 266 OFFCURVE",
"181 265 CURVE SMOOTH",
"169 259 OFFCURVE",
"148 259 OFFCURVE",
"131 267 CURVE SMOOTH",
"110 277 OFFCURVE",
"103 295 OFFCURVE",
"103 318 CURVE SMOOTH",
"103 360 OFFCURVE",
"138 403 OFFCURVE",
"167 430 CURVE SMOOTH",
"293 547 OFFCURVE",
"501 587 OFFCURVE",
"668 587 CURVE SMOOTH",
"834 587 OFFCURVE",
"1060 533 OFFCURVE",
"992 311 CURVE SMOOTH",
"957 197 OFFCURVE",
"770 90 OFFCURVE",
"669 50 CURVE SMOOTH",
"622 31 OFFCURVE",
"575 17 OFFCURVE",
"526 7 CURVE SMOOTH",
"488 -1 OFFCURVE",
"244 -49 OFFCURVE",
"244 -6 CURVE SMOOTH",
"244 25 OFFCURVE",
"273 52 OFFCURVE",
"316 75 CURVE",
"306 49 OFFCURVE",
"306 27 OFFCURVE",
"315 11 CURVE SMOOTH",
"320 2 OFFCURVE",
"338 -1 OFFCURVE",
"335 16 CURVE SMOOTH",
"332 32 OFFCURVE",
"352 69 OFFCURVE",
"374 101 CURVE",
"468 137 OFFCURVE",
"589 158 OFFCURVE",
"641 158 CURVE SMOOTH",
"656 158 OFFCURVE",
"751 162 OFFCURVE",
"751 139 CURVE SMOOTH",
"751 130 OFFCURVE",
"730 117 OFFCURVE",
"744 117 CURVE SMOOTH",
"760 117 OFFCURVE",
"776 141 OFFCURVE",
"776 158 CURVE SMOOTH",
"776 192 OFFCURVE",
"671 189 OFFCURVE",
"652 189 CURVE SMOOTH",
"601 189 OFFCURVE",
"503 176 OFFCURVE",
"410 150 CURVE"
);
}
);
width = 951;
}
);
note = D.1;
unicode = 0044;
},
{
color = 11;
glyphname = E;
lastChange = "2021-06-09 19:50:26 +0000";
layers = (
{
anchors = (
{
name = bottom;
position = "{240, -117}";
},
{
name = ogonek;
position = "{226, -109}";
},
{
name = top;
position = "{806, 637}";
},
{
name = topleft;
position = "{20, 700}";
}
);
hints = (
{
horizontal = 1;
place = "{-110, 33}";
type = Stem;
},
{
horizontal = 1;
place = "{573, 21}";
target = up;
type = BottomGhost;
}
);
layerId = "40AAE8A1-2E59-408F-988A-610CC450AA88";
paths = (
{
closed = 1;
nodes = (
"745 431 OFFCURVE",
"796 460 OFFCURVE",
"816 476 CURVE SMOOTH",
"927 569 OFFCURVE",
"833 608 OFFCURVE",
"718 599 CURVE SMOOTH",
"604 590 OFFCURVE",
"448 530 OFFCURVE",
"387 431 CURVE SMOOTH",
"376 413 OFFCURVE",
"369 393 OFFCURVE",
"369 372 CURVE SMOOTH",
"369 354 OFFCURVE",
"378 339 OFFCURVE",
"386 322 CURVE SMOOTH",
"387 320 LINE",
"194 279 OFFCURVE",
"96 166 OFFCURVE",
"86 154 CURVE SMOOTH",
"-15 44 OFFCURVE",
"-5 -119 OFFCURVE",
"240 -119 CURVE SMOOTH",
"330 -119 OFFCURVE",
"487 -92 OFFCURVE",
"621 -15 CURVE SMOOTH",
"829 104 OFFCURVE",
"859 286 OFFCURVE",
"703 269 CURVE SMOOTH",
"584 256 OFFCURVE",
"521 202 OFFCURVE",
"455 131 CURVE",
"450 123 OFFCURVE",
"436 85 OFFCURVE",
"464 110 CURVE SMOOTH",
"544 183 OFFCURVE",
"620 242 OFFCURVE",
"703 254 CURVE SMOOTH",
"800 268 OFFCURVE",
"773 126 OFFCURVE",
"589 18 CURVE SMOOTH",
"453 -61 OFFCURVE",
"297 -98 OFFCURVE",
"242 -98 CURVE SMOOTH",
"-114 -98 OFFCURVE",
"183 301 OFFCURVE",
"407 301 CURVE SMOOTH",
"408 301 LINE",
"448 278 OFFCURVE",
"500 271 OFFCURVE",
"545 271 CURVE SMOOTH",
"573 271 OFFCURVE",
"619 274 OFFCURVE",
"637 299 CURVE SMOOTH",
"641 304 OFFCURVE",
"645 311 OFFCURVE",
"645 318 CURVE SMOOTH",
"645 343 OFFCURVE",
"594 345 OFFCURVE",
"576 345 CURVE SMOOTH",
"531 345 OFFCURVE",
"478 341 OFFCURVE",
"434 334 CURVE",
"426 344 OFFCURVE",
"423 357 OFFCURVE",
"423 370 CURVE SMOOTH",
"423 396 OFFCURVE",
"436 422 OFFCURVE",
"451 443 CURVE SMOOTH",
"508 523 OFFCURVE",
"636 569 OFFCURVE",
"731 569 CURVE SMOOTH",
"755 569 OFFCURVE",
"806 567 OFFCURVE",
"806 533 CURVE SMOOTH",
"806 510 OFFCURVE",
"737 454 OFFCURVE",
"708 443 CURVE SMOOTH",
"662 425 OFFCURVE",
"648 402 OFFCURVE",
"705 419 CURVE SMOOTH"
);
},
{
closed = 1;
nodes = (
"597 308 LINE",
"587 294 OFFCURVE",
"567 291 OFFCURVE",
"551 291 CURVE SMOOTH",
"521 291 OFFCURVE",
"490 298 OFFCURVE",
"462 310 CURVE",
"496 316 OFFCURVE",
"531 320 OFFCURVE",
"565 320 CURVE SMOOTH",
"572 320 OFFCURVE",
"597 321 OFFCURVE",
"597 311 CURVE SMOOTH"
);
}
);
width = 748;
}
);
note = E.1;
unicode = 0045;
},
{
color = 11;
glyphname = F;
lastChange = "2021-06-09 19:50:26 +0000";
layers = (
{
hints = (
{
horizontal = 1;
place = "{254, 25}";
type = Stem;
},
{
horizontal = 1;
place = "{658, -20}";
target = down;
type = TopGhost;
}
);
layerId = "40AAE8A1-2E59-408F-988A-610CC450AA88";
paths = (
{
closed = 1;
nodes = (
"862 650 OFFCURVE",
"778 661 OFFCURVE",
"725 661 CURVE SMOOTH",
"641 661 OFFCURVE",
"553 642 OFFCURVE",
"472 618 CURVE SMOOTH",
"355 584 OFFCURVE",
"31 442 OFFCURVE",
"31 314 CURVE SMOOTH",
"31 282 OFFCURVE",
"82 272 OFFCURVE",
"109 272 CURVE SMOOTH",
"120 272 OFFCURVE",
"188 278 OFFCURVE",
"188 289 CURVE SMOOTH",
"188 296 OFFCURVE",
"159 294 OFFCURVE",
"155 294 CURVE SMOOTH",
"131 295 OFFCURVE",
"86 299 OFFCURVE",
"86 328 CURVE SMOOTH",
"86 382 OFFCURVE",
"237 478 OFFCURVE",
"289 506 CURVE SMOOTH",
"400 566 OFFCURVE",
"557 634 OFFCURVE",
"682 634 CURVE SMOOTH",
"720 634 OFFCURVE",
"795 630 OFFCURVE",
"795 582 CURVE SMOOTH",
"795 502 OFFCURVE",
"672 342 OFFCURVE",
"622 283 CURVE",
"493 283 OFFCURVE",
"378 267 OFFCURVE",
"265 234 CURVE SMOOTH",
"245 228 OFFCURVE",
"223 222 OFFCURVE",
"203 214 CURVE SMOOTH",
"195 211 OFFCURVE",
"186 205 OFFCURVE",
"186 194 CURVE SMOOTH",
"186 180 OFFCURVE",
"198 168 OFFCURVE",
"210 168 CURVE SMOOTH",
"212 168 OFFCURVE",
"215 168 OFFCURVE",
"216 169 CURVE",
"336 216 OFFCURVE",
"453 239 OFFCURVE",
"592 249 CURVE",
"486 138 OFFCURVE",
"375 42 OFFCURVE",
"282 -63 CURVE SMOOTH",
"270 -77 OFFCURVE",
"247 -102 OFFCURVE",
"247 -122 CURVE SMOOTH",
"247 -135 OFFCURVE",
"258 -144 OFFCURVE",
"267 -152 CURVE SMOOTH",
"278 -161 OFFCURVE",
"286 -179 OFFCURVE",
"302 -179 CURVE SMOOTH",
"313 -179 OFFCURVE",
"337 -167 OFFCURVE",
"345 -159 CURVE SMOOTH",
"350 -154 OFFCURVE",
"353 -149 OFFCURVE",
"357 -144 CURVE SMOOTH",
"359 -141 OFFCURVE",
"362 -140 OFFCURVE",
"362 -135 CURVE SMOOTH",
"362 -131 OFFCURVE",
"358 -128 OFFCURVE",
"354 -128 CURVE SMOOTH",
"350 -128 OFFCURVE",
"346 -132 OFFCURVE",
"345 -136 CURVE",
"338 -141 OFFCURVE",
"329 -149 OFFCURVE",
"321 -149 CURVE SMOOTH",
"310 -149 OFFCURVE",
"303 -142 OFFCURVE",
"303 -132 CURVE SMOOTH",
"303 -109 OFFCURVE",
"325 -82 OFFCURVE",
"340 -66 CURVE SMOOTH",
"441 39 OFFCURVE",
"538 144 OFFCURVE",
"636 251 CURVE",
"694 253 OFFCURVE",
"726 249 OFFCURVE",
"758 249 CURVE SMOOTH",
"763 249 OFFCURVE",
"774 249 OFFCURVE",
"774 257 CURVE SMOOTH",
"774 280 OFFCURVE",
"676 281 OFFCURVE",
"663 282 CURVE",
"712 338 OFFCURVE",
"862 503 OFFCURVE",
"862 580 CURVE SMOOTH"
);
}
);
width = 699;
}
);
note = F.1;
unicode = 0046;
},
{
color = 11;
glyphname = G;
lastChange = "2021-06-09 19:50:26 +0000";
layers = (
{
anchors = (
{
name = bottom;
position = "{172, -128}";
},
{
name = top;
position = "{879, 660}";
}
);
hints = (
{
horizontal = 1;
place = "{-196, 23}";
type = Stem;
},
{
horizontal = 1;
place = "{624, -20}";
target = down;
type = TopGhost;
}
);
layerId = "40AAE8A1-2E59-408F-988A-610CC450AA88";
paths = (
{
closed = 1;
nodes = (
"974 610 OFFCURVE",
"900 629 OFFCURVE",
"844 629 CURVE SMOOTH",
"834 629 OFFCURVE",
"825 628 OFFCURVE",
"815 627 CURVE SMOOTH",
"648 609 OFFCURVE",
"483 517 OFFCURVE",
"355 411 CURVE",
"334 440 OFFCURVE",
"328 468 OFFCURVE",
"323 503 CURVE SMOOTH",
"322 514 OFFCURVE",
"320 525 OFFCURVE",
"316 535 CURVE SMOOTH",
"314 539 OFFCURVE",
"312 542 OFFCURVE",
"308 542 CURVE SMOOTH",
"295 542 OFFCURVE",
"291 512 OFFCURVE",
"291 504 CURVE SMOOTH",
"291 462 OFFCURVE",
"304 422 OFFCURVE",
"330 389 CURVE",
"249 320 OFFCURVE",
"124 169 OFFCURVE",
"124 57 CURVE SMOOTH",
"124 0 OFFCURVE",
"155 -26 OFFCURVE",
"210 -26 CURVE SMOOTH",
"365 -26 OFFCURVE",
"603 195 OFFCURVE",
"707 305 CURVE",
"730 319 LINE",
"714 177 OFFCURVE",
"663 38 OFFCURVE",
"593 -85 CURVE",
"501 -66 OFFCURVE",
"386 -56 OFFCURVE",
"278 -57 CURVE SMOOTH",
"150 -60 OFFCURVE",
"15 -83 OFFCURVE",
"-42 -106 CURVE SMOOTH",
"-77 -118 OFFCURVE",
"-124 -190 OFFCURVE",
"-113 -221 CURVE SMOOTH",
"-66 -354 OFFCURVE",
"79 -416 OFFCURVE",
"180 -410 CURVE SMOOTH",
"371 -401 OFFCURVE",
"512 -275 OFFCURVE",
"611 -126 CURVE",
"649 -133 OFFCURVE",
"684 -141 OFFCURVE",
"714 -149 CURVE SMOOTH",
"762 -163 OFFCURVE",
"802 -164 OFFCURVE",
"738 -131 CURVE SMOOTH",
"712 -117 OFFCURVE",
"676 -104 OFFCURVE",
"632 -94 CURVE",
"675 -24 OFFCURVE",
"709 50 OFFCURVE",
"735 118 CURVE SMOOTH",
"777 226 OFFCURVE",
"791 305 OFFCURVE",
"796 361 CURVE",
"870 397 OFFCURVE",
"974 454 OFFCURVE",
"974 540 CURVE SMOOTH"
);
},
{
closed = 1;
nodes = (
"55 -372 OFFCURVE",
"-47 -300 OFFCURVE",
"-66 -242 CURVE SMOOTH",
"-75 -216 OFFCURVE",
"-84 -173 OFFCURVE",
"-53 -160 CURVE",
"88 -82 OFFCURVE",
"368 -88 OFFCURVE",
"573 -120 CURVE",
"503 -237 OFFCURVE",
"410 -342 OFFCURVE",
"181 -361 CURVE SMOOTH"
);
},
{
closed = 1;
nodes = (
"577 210 OFFCURVE",
"418 54 OFFCURVE",
"266 18 CURVE SMOOTH",
"254 15 OFFCURVE",
"241 13 OFFCURVE",
"228 13 CURVE SMOOTH",
"194 13 OFFCURVE",
"174 29 OFFCURVE",
"174 64 CURVE SMOOTH",
"174 137 OFFCURVE",
"249 245 OFFCURVE",
"298 296 CURVE SMOOTH",
"318 317 OFFCURVE",
"340 337 OFFCURVE",
"360 357 CURVE",
"415 320 OFFCURVE",
"483 315 OFFCURVE",
"548 315 CURVE SMOOTH",
"591 315 OFFCURVE",
"634 319 OFFCURVE",
"677 327 CURVE"
);
},
{
closed = 1;
nodes = (
"922 484 OFFCURVE",
"856 437 OFFCURVE",
"813 411 CURVE SMOOTH",
"798 402 LINE",
"798 427 OFFCURVE",
"785 433 OFFCURVE",
"774 433 CURVE SMOOTH",
"758 433 OFFCURVE",
"745 422 OFFCURVE",
"739 404 CURVE",
"736 375 LINE",
"624 336 OFFCURVE",
"475 328 OFFCURVE",
"389 382 CURVE",
"502 485 OFFCURVE",
"636 570 OFFCURVE",
"788 599 CURVE SMOOTH",
"803 602 OFFCURVE",
"819 604 OFFCURVE",
"834 604 CURVE SMOOTH",
"875 604 OFFCURVE",
"922 589 OFFCURVE",
"922 540 CURVE SMOOTH"
);
}
);
width = 785;
}
);
note = G.1;
unicode = 0047;
},
{
color = 11;
glyphname = H;
lastChange = "2021-06-09 19:50:26 +0000";
layers = (
{
anchors = (
{
name = bottom;
position = "{421, 0}";
},
{
name = center;
position = "{726, 436}";
},
{
name = top;
position = "{814, 589}";
},
{
name = topleft;
position = "{20, 700}";
}
);
hints = (
{
horizontal = 1;
place = "{166, 31}";
type = Stem;
},
{
horizontal = 1;
place = "{595, -20}";
target = down;
type = TopGhost;
}
);
layerId = "40AAE8A1-2E59-408F-988A-610CC450AA88";
paths = (
{
closed = 1;
nodes = (
"807 169 OFFCURVE",
"941 129 OFFCURVE",
"941 217 CURVE SMOOTH",
"941 239 OFFCURVE",
"907 264 OFFCURVE",
"888 273 CURVE SMOOTH",
"872 279 OFFCURVE",
"877 270 OFFCURVE",
"884 263 CURVE SMOOTH",
"890 257 OFFCURVE",
"918 227 OFFCURVE",
"915 212 CURVE SMOOTH",
"909 183 OFFCURVE",
"851 188 OFFCURVE",
"780 204 CURVE",
"859 320 OFFCURVE",
"984 456 OFFCURVE",
"1028 499 CURVE SMOOTH",
"1064 535 OFFCURVE",
"1161 619 OFFCURVE",
"1214 619 CURVE SMOOTH",
"1248 619 OFFCURVE",
"1230 594 OFFCURVE",
"1219 582 CURVE SMOOTH",
"1156 518 OFFCURVE",
"1065 424 OFFCURVE",
"1095 376 CURVE SMOOTH",
"1102 365 OFFCURVE",
"1101 376 OFFCURVE",
"1102 382 CURVE SMOOTH",
"1120 479 OFFCURVE",
"1256 504 OFFCURVE",
"1256 597 CURVE SMOOTH",
"1256 625 OFFCURVE",
"1244 661 OFFCURVE",
"1211 661 CURVE SMOOTH",
"1075 661 OFFCURVE",
"830 355 OFFCURVE",
"733 212 CURVE",
"640 230 OFFCURVE",
"538 265 OFFCURVE",
"459 283 CURVE",
"490 326 OFFCURVE",
"608 499 OFFCURVE",
"608 549 CURVE SMOOTH",
"608 593 OFFCURVE",
"555 598 OFFCURVE",
"523 598 CURVE SMOOTH",
"466 598 OFFCURVE",
"372 580 OFFCURVE",
"319 558 CURVE SMOOTH",
"244 528 OFFCURVE",
"142 466 OFFCURVE",
"91 403 CURVE SMOOTH",
"69 376 OFFCURVE",
"43 330 OFFCURVE",
"43 295 CURVE SMOOTH",
"43 260 OFFCURVE",
"72 254 OFFCURVE",
"101 254 CURVE SMOOTH",
"134 254 OFFCURVE",
"178 265 OFFCURVE",
"207 282 CURVE",
"212 283 OFFCURVE",
"229 292 OFFCURVE",
"231 300 CURVE",
"231 302 OFFCURVE",
"228 303 OFFCURVE",
"226 303 CURVE SMOOTH",
"221 303 OFFCURVE",
"217 301 OFFCURVE",
"212 301 CURVE",
"187 293 OFFCURVE",
"156 284 OFFCURVE",
"130 284 CURVE SMOOTH",
"107 284 OFFCURVE",
"88 292 OFFCURVE",
"88 319 CURVE SMOOTH",
"88 391 OFFCURVE",
"247 497 OFFCURVE",
"305 526 CURVE SMOOTH",
"355 551 OFFCURVE",
"424 575 OFFCURVE",
"481 575 CURVE SMOOTH",
"506 575 OFFCURVE",
"549 569 OFFCURVE",
"549 536 CURVE SMOOTH",
"549 494 OFFCURVE",
"437 333 OFFCURVE",
"410 295 CURVE",
"389 300 OFFCURVE",
"367 301 OFFCURVE",
"346 301 CURVE SMOOTH",
"326 301 OFFCURVE",
"266 297 OFFCURVE",
"266 268 CURVE SMOOTH",
"266 257 OFFCURVE",
"276 251 OFFCURVE",
"284 246 CURVE SMOOTH",
"306 233 OFFCURVE",
"332 224 OFFCURVE",
"355 213 CURVE",
"283 122 OFFCURVE",
"41 -166 OFFCURVE",
"-83 -166 CURVE SMOOTH",
"-128 -166 OFFCURVE",
"-168 -138 OFFCURVE",
"-168 -91 CURVE SMOOTH",
"-168 -67 OFFCURVE",
"-159 -41 OFFCURVE",
"-148 -21 CURVE SMOOTH",
"-122 25 OFFCURVE",
"-87 53 OFFCURVE",
"-38 71 CURVE",
"-32 74 OFFCURVE",
"7 85 OFFCURVE",
"7 93 CURVE SMOOTH",
"7 98 OFFCURVE",
"-4 97 OFFCURVE",
"-6 97 CURVE SMOOTH",
"-22 97 OFFCURVE",
"-39 93 OFFCURVE",
"-53 88 CURVE SMOOTH",
"-111 70 OFFCURVE",
"-167 36 OFFCURVE",
"-200 -16 CURVE SMOOTH",
"-212 -35 OFFCURVE",
"-217 -58 OFFCURVE",
"-217 -80 CURVE SMOOTH",
"-217 -153 OFFCURVE",
"-164 -191 OFFCURVE",
"-95 -191 CURVE SMOOTH",
"68 -191 OFFCURVE",
"298 77 OFFCURVE",
"390 193 CURVE",
"477 150 OFFCURVE",
"577 86 OFFCURVE",
"622 -3 CURVE",
"618 -15 OFFCURVE",
"616 -29 OFFCURVE",
"616 -42 CURVE SMOOTH",
"616 -62 OFFCURVE",
"620 -92 OFFCURVE",
"645 -92 CURVE SMOOTH",
"666 -92 OFFCURVE",
"683 -76 OFFCURVE",
"683 -54 CURVE SMOOTH",
"683 -39 OFFCURVE",
"670 -13 OFFCURVE",
"663 2 CURVE",
"683 60 OFFCURVE",
"726 129 OFFCURVE",
"761 180 CURVE"
);
},
{
closed = 1;
nodes = (
"693 146 OFFCURVE",
"662 90 OFFCURVE",
"640 41 CURVE",
"581 120 OFFCURVE",
"498 177 OFFCURVE",
"410 220 CURVE",
"442 260 LINE",
"535 240 OFFCURVE",
"628 214 OFFCURVE",
"720 191 CURVE"
);
},
{
closed = 1;
nodes = (
"389 260 OFFCURVE",
"377 248 OFFCURVE",
"371 240 CURVE",
"354 248 OFFCURVE",
"326 257 OFFCURVE",
"318 266 CURVE",
"318 267 LINE",
"323 281 OFFCURVE",
"385 276 OFFCURVE",
"395 269 CURVE"
);
}
);
width = 841;
}
);
note = H.1;
unicode = 0048;
},
{
color = 11;
glyphname = I;
lastChange = "2021-06-09 19:50:26 +0000";
layers = (
{
anchors = (
{
name = bottom;
position = "{286, -61}";
},
{
name = ogonek;
position = "{332, 4}";
},
{
name = top;
position = "{803, 645}";
},
{
name = topleft;
position = "{20, 700}";
}
);
hints = (
{
horizontal = 1;
place = "{33, 25}";
type = Stem;
},
{
horizontal = 1;
place = "{612, -20}";
target = down;
type = TopGhost;
}
);
layerId = "40AAE8A1-2E59-408F-988A-610CC450AA88";
paths = (
{
closed = 1;
nodes = (
"795 584 LINE",
"831 622 OFFCURVE",
"762 615 OFFCURVE",
"724 581 CURVE",
"722 580 LINE",
"558 579 OFFCURVE",
"291 562 OFFCURVE",
"137 503 CURVE SMOOTH",
"90 485 OFFCURVE",
"18 433 OFFCURVE",
"12 379 CURVE SMOOTH",
"3 286 OFFCURVE",
"86 281 OFFCURVE",
"135 281 CURVE SMOOTH",
"196 281 OFFCURVE",
"272 309 OFFCURVE",
"329 337 CURVE SMOOTH",
"337 341 OFFCURVE",
"452 406 OFFCURVE",
"501 448 CURVE SMOOTH",
"560 499 OFFCURVE",
"536 495 OFFCURVE",
"508 473 CURVE SMOOTH",
"418 402 OFFCURVE",
"249 315 OFFCURVE",
"140 315 CURVE SMOOTH",
"36 315 OFFCURVE",
"19 381 OFFCURVE",
"106 437 CURVE SMOOTH",
"243 525 OFFCURVE",
"547 544 OFFCURVE",
"694 552 CURVE",
"563 422 OFFCURVE",
"359 144 OFFCURVE",
"318 33 CURVE",
"284 31 OFFCURVE",
"94 45 OFFCURVE",
"93 -14 CURVE SMOOTH",
"93 -24 OFFCURVE",
"102 -32 OFFCURVE",
"110 -32 CURVE SMOOTH",
"122 -32 LINE",
"251 -9 OFFCURVE",
"398 0 OFFCURVE",
"511 3 CURVE",
"519 4 OFFCURVE",
"550 6 OFFCURVE",
"550 18 CURVE SMOOTH",
"551 26 OFFCURVE",
"526 27 OFFCURVE",
"524 27 CURVE SMOOTH",
"467 31 OFFCURVE",
"410 31 OFFCURVE",
"352 35 CURVE",
"399 144 OFFCURVE",
"579 373 OFFCURVE",
"738 530 CURVE SMOOTH",
"747 539 OFFCURVE",
"756 548 OFFCURVE",
"840 558 CURVE",
"878 558 OFFCURVE",
"978 575 OFFCURVE",
"790 580 CURVE"
);
}
);
width = 572;
}
);
note = I.1;
unicode = 0049;
},
{
color = 11;
glyphname = J;
lastChange = "2021-06-09 19:50:26 +0000";
layers = (
{
anchors = (
{
name = bottom;
position = "{244, 0}";
},
{
name = top;
position = "{584, 652}";
}
);
hints = (
{
place = "{494, 56}";
type = Stem;
}
);
layerId = "40AAE8A1-2E59-408F-988A-610CC450AA88";
paths = (
{
closed = 1;
nodes = (
"614 676 OFFCURVE",
"434 593 OFFCURVE",
"373 560 CURVE SMOOTH",
"245 493 OFFCURVE",
"33 333 OFFCURVE",
"33 204 CURVE SMOOTH",
"33 136 OFFCURVE",
"68 120 OFFCURVE",
"111 116 CURVE SMOOTH",
"159 112 OFFCURVE",
"251 142 OFFCURVE",
"294 177 CURVE SMOOTH",
"296 179 OFFCURVE",
"331 208 OFFCURVE",
"314 208 CURVE SMOOTH",
"298 208 OFFCURVE",
"196 148 OFFCURVE",
"140 148 CURVE SMOOTH",
"107 148 OFFCURVE",
"71 150 OFFCURVE",
"71 180 CURVE SMOOTH",
"71 299 OFFCURVE",
"270 462 OFFCURVE",
"359 516 CURVE SMOOTH",
"415 552 OFFCURVE",
"466 583 OFFCURVE",
"521 583 CURVE SMOOTH",
"538 583 OFFCURVE",
"562 571 OFFCURVE",
"562 552 CURVE SMOOTH",
"562 407 OFFCURVE",
"409 192 OFFCURVE",
"330 82 CURVE",
"157 38 OFFCURVE",
"-106 -87 OFFCURVE",
"-214 -249 CURVE SMOOTH",
"-243 -294 OFFCURVE",
"-263 -374 OFFCURVE",
"-159 -374 CURVE SMOOTH",
"45 -374 OFFCURVE",
"259 -82 OFFCURVE",
"360 59 CURVE",
"380 63 OFFCURVE",
"396 66 OFFCURVE",
"414 66 CURVE SMOOTH",
"426 66 OFFCURVE",
"448 64 OFFCURVE",
"448 47 CURVE SMOOTH",
"448 8 OFFCURVE",
"375 -39 OFFCURVE",
"375 -51 CURVE SMOOTH",
"375 -53 OFFCURVE",
"377 -54 OFFCURVE",
"380 -54 CURVE SMOOTH",
"381 -54 OFFCURVE",
"384 -53 OFFCURVE",
"385 -54 CURVE",
"421 -40 OFFCURVE",
"487 14 OFFCURVE",
"487 61 CURVE SMOOTH",
"487 91 OFFCURVE",
"456 96 OFFCURVE",
"434 96 CURVE SMOOTH",
"419 96 OFFCURVE",
"404 94 OFFCURVE",
"386 92 CURVE",
"459 195 OFFCURVE",
"614 419 OFFCURVE",
"614 573 CURVE SMOOTH"
);
},
{
closed = 1;
nodes = (
"208 -89 OFFCURVE",
"21 -339 OFFCURVE",
"-160 -339 CURVE SMOOTH",
"-278 -339 OFFCURVE",
"-72 -144 OFFCURVE",
"60 -60 CURVE SMOOTH",
"137 -11 OFFCURVE",
"224 29 OFFCURVE",
"310 49 CURVE"
);
}
);
width = 487;
}
);
note = J.1;
unicode = 004A;
},
{
color = 11;
glyphname = K;
lastChange = "2021-06-09 19:50:26 +0000";
layers = (
{
anchors = (
{
name = bottom;
position = "{553, -102}";
},
{
name = top;
position = "{1000, 675}";
}
);
hints = (
{
horizontal = 1;
place = "{661, -20}";
target = down;
type = TopGhost;
}
);
layerId = "40AAE8A1-2E59-408F-988A-610CC450AA88";
paths = (
{
closed = 1;
nodes = (
"862 658 OFFCURVE",
"803 664 OFFCURVE",
"766 664 CURVE SMOOTH",
"703 664 OFFCURVE",
"601 644 OFFCURVE",
"541 620 CURVE SMOOTH",
"458 587 OFFCURVE",
"345 518 OFFCURVE",
"288 448 CURVE SMOOTH",
"264 418 OFFCURVE",
"235 367 OFFCURVE",
"235 328 CURVE SMOOTH",
"235 289 OFFCURVE",
"266 282 OFFCURVE",
"299 282 CURVE SMOOTH",
"353 282 OFFCURVE",
"446 309 OFFCURVE",
"444 333 CURVE SMOOTH",
"444 336 OFFCURVE",
"440 337 OFFCURVE",
"438 337 CURVE SMOOTH",
"432 337 OFFCURVE",
"428 335 OFFCURVE",
"423 334 CURVE SMOOTH",
"395 326 OFFCURVE",
"360 316 OFFCURVE",
"331 316 CURVE SMOOTH",
"306 316 OFFCURVE",
"285 325 OFFCURVE",
"285 354 CURVE SMOOTH",
"285 434 OFFCURVE",
"461 552 OFFCURVE",
"526 584 CURVE SMOOTH",
"582 612 OFFCURVE",
"658 640 OFFCURVE",
"721 640 CURVE SMOOTH",
"749 640 OFFCURVE",
"796 632 OFFCURVE",
"796 596 CURVE SMOOTH",
"796 552 OFFCURVE",
"675 361 OFFCURVE",
"649 322 CURVE",
"636 339 OFFCURVE",
"573 378 OFFCURVE",
"573 337 CURVE SMOOTH",
"573 326 OFFCURVE",
"594 290 OFFCURVE",
"599 278 CURVE",
"597 273 OFFCURVE",
"599 267 OFFCURVE",
"600 262 CURVE",
"519 155 OFFCURVE",
"305 -107 OFFCURVE",
"154 -107 CURVE SMOOTH",
"103 -107 OFFCURVE",
"55 -80 OFFCURVE",
"55 -25 CURVE SMOOTH",
"55 2 OFFCURVE",
"64 30 OFFCURVE",
"77 53 CURVE SMOOTH",
"105 105 OFFCURVE",
"143 136 OFFCURVE",
"199 155 CURVE SMOOTH",
"207 158 OFFCURVE",
"248 168 OFFCURVE",
"248 180 CURVE SMOOTH",
"248 185 OFFCURVE",
"237 185 OFFCURVE",
"233 185 CURVE SMOOTH",
"217 185 OFFCURVE",
"201 181 OFFCURVE",
"186 177 CURVE SMOOTH",
"121 158 OFFCURVE",
"55 119 OFFCURVE",
"19 60 CURVE SMOOTH",
"6 39 OFFCURVE",
"0 13 OFFCURVE",
"0 -11 CURVE SMOOTH",
"0 -92 OFFCURVE",
"58 -136 OFFCURVE",
"136 -136 CURVE SMOOTH",
"327 -136 OFFCURVE",
"517 87 OFFCURVE",
"625 222 CURVE",
"692 99 OFFCURVE",
"812 -152 OFFCURVE",
"986 -152 CURVE SMOOTH",
"1018 -152 OFFCURVE",
"1044 -140 OFFCURVE",
"1068 -120 CURVE SMOOTH",
"1073 -115 OFFCURVE",
"1082 -107 OFFCURVE",
"1082 -99 CURVE SMOOTH",
"1082 -93 OFFCURVE",
"1079 -87 OFFCURVE",
"1075 -90 CURVE SMOOTH",
"1051 -106 OFFCURVE",
"1024 -125 OFFCURVE",
"994 -125 CURVE SMOOTH",
"863 -126 OFFCURVE",
"735 115 OFFCURVE",
"675 248 CURVE",
"788 357 OFFCURVE",
"1021 505 OFFCURVE",
"1109 558 CURVE SMOOTH",
"1167 593 OFFCURVE",
"1313 666 OFFCURVE",
"1370 650 CURVE SMOOTH",
"1408 639 OFFCURVE",
"1374 605 OFFCURVE",
"1359 596 CURVE SMOOTH",
"1275 547 OFFCURVE",
"1097 449 OFFCURVE",
"1124 379 CURVE",
"1127 365 OFFCURVE",
"1130 377 OFFCURVE",
"1130 384 CURVE",
"1183 497 OFFCURVE",
"1390 512 OFFCURVE",
"1412 612 CURVE SMOOTH",
"1418 642 OFFCURVE",
"1413 683 OFFCURVE",
"1378 694 CURVE SMOOTH",
"1203 745 OFFCURVE",
"846 401 OFFCURVE",
"670 274 CURVE",
"751 395 OFFCURVE",
"862 562 OFFCURVE",
"862 609 CURVE SMOOTH"
);
}
);
width = 866;
}
);
note = K.1;
unicode = 004B;
},
{
color = 11;
glyphname = L;
lastChange = "2021-06-09 19:50:26 +0000";
layers = (
{
anchors = (
{
name = bottom;
position = "{337, -86}";
},
{
name = center;
position = "{360, 350}";
},
{
name = top;
position = "{884, 700}";
},
{
name = topright;
position = "{867, 669}";
}
);
hints = (
{
horizontal = 1;
place = "{-100, 23}";
type = Stem;
},
{
place = "{891, 26}";
type = Stem;
}
);
layerId = "40AAE8A1-2E59-408F-988A-610CC450AA88";
paths = (
{
closed = 1;
nodes = (
"796 221 OFFCURVE",
"921 416 OFFCURVE",
"921 580 CURVE SMOOTH",
"921 587 OFFCURVE",
"921 620 OFFCURVE",
"909 620 CURVE SMOOTH",
"896 620 OFFCURVE",
"891 596 OFFCURVE",
"889 585 CURVE SMOOTH",
"886 569 OFFCURVE",
"884 549 OFFCURVE",
"880 533 CURVE SMOOTH",
"846 407 OFFCURVE",
"752 216 OFFCURVE",
"582 252 CURVE",
"669 361 OFFCURVE",
"731 483 OFFCURVE",
"807 592 CURVE SMOOTH",
"818 607 OFFCURVE",
"830 622 OFFCURVE",
"847 631 CURVE SMOOTH",
"853 634 OFFCURVE",
"864 637 OFFCURVE",
"867 644 CURVE",
"867 648 LINE SMOOTH",
"867 669 OFFCURVE",
"839 674 OFFCURVE",
"823 674 CURVE SMOOTH",
"807 674 OFFCURVE",
"783 663 OFFCURVE",
"774 648 CURVE SMOOTH",
"698 521 OFFCURVE",
"637 386 OFFCURVE",
"542 272 CURVE SMOOTH",
"537 266 LINE",
"466 301 OFFCURVE",
"447 351 OFFCURVE",
"447 427 CURVE SMOOTH",
"447 490 OFFCURVE",
"472 555 OFFCURVE",
"522 595 CURVE SMOOTH",
"531 603 OFFCURVE",
"572 629 OFFCURVE",
"572 600 CURVE SMOOTH",
"572 595 OFFCURVE",
"570 585 OFFCURVE",
"570 579 CURVE SMOOTH",
"570 574 OFFCURVE",
"570 568 OFFCURVE",
"576 570 CURVE SMOOTH",
"588 574 OFFCURVE",
"596 596 OFFCURVE",
"597 606 CURVE SMOOTH",
"601 638 OFFCURVE",
"580 662 OFFCURVE",
"552 662 CURVE SMOOTH",
"515 662 OFFCURVE",
"474 612 OFFCURVE",
"456 583 CURVE SMOOTH",
"430 540 OFFCURVE",
"417 490 OFFCURVE",
"417 440 CURVE SMOOTH",
"417 358 OFFCURVE",
"444 284 OFFCURVE",
"520 244 CURVE",
"476 184 OFFCURVE",
"435 124 OFFCURVE",
"380 74 CURVE",
"326 97 OFFCURVE",
"201 150 OFFCURVE",
"146 150 CURVE SMOOTH",
"105 150 OFFCURVE",
"74 130 OFFCURVE",
"74 87 CURVE",
"22 81 OFFCURVE",
"-41 34 OFFCURVE",
"-41 -23 CURVE SMOOTH",
"-41 -86 OFFCURVE",
"48 -103 OFFCURVE",
"96 -103 CURVE SMOOTH",
"185 -103 OFFCURVE",
"300 -24 OFFCURVE",
"367 30 CURVE",
"444 2 OFFCURVE",
"627 -70 OFFCURVE",
"704 -70 CURVE SMOOTH",
"731 -70 OFFCURVE",
"767 -63 OFFCURVE",
"787 -44 CURVE SMOOTH",
"793 -38 OFFCURVE",
"803 -28 OFFCURVE",
"803 -19 CURVE SMOOTH",
"803 -13 OFFCURVE",
"799 -13 OFFCURVE",
"795 -13 CURVE SMOOTH",
"787 -13 OFFCURVE",
"760 -45 OFFCURVE",
"728 -45 CURVE SMOOTH",
"651 -45 OFFCURVE",
"483 32 OFFCURVE",
"406 63 CURVE",
"462 115 OFFCURVE",
"514 170 OFFCURVE",
"563 228 CURVE",
"581 223 OFFCURVE",
"599 221 OFFCURVE",
"618 221 CURVE SMOOTH"
);
},
{
closed = 1;
nodes = (
"283 -7 OFFCURVE",
"172 -73 OFFCURVE",
"93 -73 CURVE SMOOTH",
"59 -73 OFFCURVE",
"10 -59 OFFCURVE",
"10 -18 CURVE SMOOTH",
"10 -11 OFFCURVE",
"12 -4 OFFCURVE",
"15 3 CURVE SMOOTH",
"32 40 OFFCURVE",
"44 47 OFFCURVE",
"82 56 CURVE",
"86 44 OFFCURVE",
"100 20 OFFCURVE",
"115 20 CURVE SMOOTH",
"120 20 OFFCURVE",
"123 21 OFFCURVE",
"123 26 CURVE SMOOTH",
"123 36 OFFCURVE",
"111 52 OFFCURVE",
"108 62 CURVE",
"120 67 OFFCURVE",
"131 67 OFFCURVE",
"143 67 CURVE",
"134 80 OFFCURVE",
"125 86 OFFCURVE",
"111 91 CURVE",
"118 98 OFFCURVE",
"117 107 OFFCURVE",
"147 107 CURVE SMOOTH",
"198 107 OFFCURVE",
"291 58 OFFCURVE",
"341 41 CURVE"
);
}
);
width = 719;
}
);
note = L.1;
unicode = 004C;
},
{
color = 11;
glyphname = M;
lastChange = "2021-06-09 19:50:26 +0000";
layers = (
{
hints = (
{
horizontal = 1;
place = "{630, -20}";
target = down;
type = TopGhost;
}
);
layerId = "40AAE8A1-2E59-408F-988A-610CC450AA88";
paths = (
{
closed = 1;
nodes = (
"804 -49 OFFCURVE",
"831 -110 OFFCURVE",
"892 -110 CURVE SMOOTH",
"931 -110 OFFCURVE",
"949 -68 OFFCURVE",
"933 -76 CURVE SMOOTH",
"910 -88 OFFCURVE",
"892 -86 OFFCURVE",
"882 -81 CURVE",
"835 -32 OFFCURVE",
"1017 214 OFFCURVE",
"1071 284 CURVE SMOOTH",
"1116 344 OFFCURVE",
"1207 472 OFFCURVE",
"1207 550 CURVE SMOOTH",
"1207 588 OFFCURVE",
"1185 607 OFFCURVE",
"1148 607 CURVE SMOOTH",
"1019 607 OFFCURVE",
"834 374 OFFCURVE",
"763 275 CURVE",
"792 335 OFFCURVE",
"838 443 OFFCURVE",
"838 509 CURVE SMOOTH",
"838 550 OFFCURVE",
"822 577 OFFCURVE",
"780 577 CURVE SMOOTH",
"700 577 OFFCURVE",
"592 459 OFFCURVE",
"503 348 CURVE",
"589 479 OFFCURVE",
"653 633 OFFCURVE",
"491 633 CURVE SMOOTH",
"347 633 OFFCURVE",
"158 542 OFFCURVE",
"72 427 CURVE SMOOTH",
"48 394 OFFCURVE",
"19 342 OFFCURVE",
"19 300 CURVE SMOOTH",
"19 255 OFFCURVE",
"59 239 OFFCURVE",
"99 239 CURVE SMOOTH",
"120 239 OFFCURVE",
"139 244 OFFCURVE",
"157 254 CURVE SMOOTH",
"197 274 OFFCURVE",
"150 266 OFFCURVE",
"134 266 CURVE SMOOTH",
"99 266 OFFCURVE",
"70 284 OFFCURVE",
"70 322 CURVE SMOOTH",
"70 411 OFFCURVE",
"198 505 OFFCURVE",
"272 548 CURVE SMOOTH",
"344 590 OFFCURVE",
"414 612 OFFCURVE",
"475 612 CURVE SMOOTH",
"654 612 OFFCURVE",
"387 257 OFFCURVE",
"353 206 CURVE SMOOTH",
"328 169 OFFCURVE",
"211 17 OFFCURVE",
"211 -18 CURVE SMOOTH",
"211 -37 OFFCURVE",
"217 -47 OFFCURVE",
"231 -46 CURVE SMOOTH",
"249 -45 OFFCURVE",
"277 -48 OFFCURVE",
"277 -18 CURVE",
"300 36 OFFCURVE",
"375 166 OFFCURVE",
"512 327 CURVE SMOOTH",
"600 430 OFFCURVE",
"705 511 OFFCURVE",
"758 538 CURVE SMOOTH",
"782 550 OFFCURVE",
"795 540 OFFCURVE",
"795 515 CURVE SMOOTH",
"795 482 OFFCURVE",
"773 423 OFFCURVE",
"760 392 CURVE SMOOTH",
"726 309 OFFCURVE",
"678 222 OFFCURVE",
"637 149 CURVE SMOOTH",
"614 111 LINE",
"612 109 OFFCURVE",
"611 105 OFFCURVE",
"611 102 CURVE SMOOTH",
"611 86 OFFCURVE",
"625 80 OFFCURVE",
"637 80 CURVE SMOOTH",
"651 80 OFFCURVE",
"666 84 OFFCURVE",
"675 96 CURVE SMOOTH",
"696 122 OFFCURVE",
"714 152 OFFCURVE",
"734 179 CURVE SMOOTH",
"802 275 OFFCURVE",
"980 523 OFFCURVE",
"1088 561 CURVE SMOOTH",
"1098 565 OFFCURVE",
"1111 568 OFFCURVE",
"1122 568 CURVE SMOOTH",
"1141 568 OFFCURVE",
"1149 558 OFFCURVE",
"1149 539 CURVE SMOOTH",
"1149 509 OFFCURVE",
"1129 463 OFFCURVE",
"1103 417 CURVE SMOOTH",
"1034 293 OFFCURVE",
"941 196 OFFCURVE",
"876 80 CURVE SMOOTH"
);
}
);
width = 990;
}
);
note = M.1;
unicode = 004D;
},
{
color = 11;
glyphname = N;
lastChange = "2021-06-09 19:50:26 +0000";
layers = (
{
anchors = (
{
name = bottom;
position = "{410, -68}";
},
{
name = top;
position = "{983, 647}";
}
);
hints = (
{
horizontal = 1;
place = "{-110, 25}";
type = Stem;
},
{
horizontal = 1;
place = "{321, 27}";
type = Stem;
},
{
horizontal = 1;
place = "{560, 40}";
type = Stem;
},
{
horizontal = 1;
place = "{687, 26}";
type = Stem;
},
{
place = "{9, 46}";
type = Stem;
},
{
place = "{244, 73}";
type = Stem;
},
{
place = "{519, 52}";
type = Stem;
},
{
place = "{633, 41}";
type = Stem;
},
{
place = "{950, 55}";
type = Stem;
}
);
layerId = "40AAE8A1-2E59-408F-988A-610CC450AA88";
paths = (
{
closed = 1;
nodes = (
"834 293 OFFCURVE",
"741 196 OFFCURVE",
"676 80 CURVE SMOOTH",
"604 -49 OFFCURVE",
"631 -110 OFFCURVE",
"692 -110 CURVE SMOOTH",
"731 -110 OFFCURVE",
"749 -68 OFFCURVE",
"733 -76 CURVE SMOOTH",
"710 -88 OFFCURVE",
"692 -86 OFFCURVE",
"682 -81 CURVE",
"635 -32 OFFCURVE",
"818 213 OFFCURVE",
"871 284 CURVE SMOOTH",
"937 372 OFFCURVE",
"1005 471 OFFCURVE",
"1005 543 CURVE SMOOTH",
"1005 581 OFFCURVE",
"983 600 OFFCURVE",
"946 600 CURVE SMOOTH",
"805 600 OFFCURVE",
"551 332 OFFCURVE",
"462 225 CURVE SMOOTH",
"433 190 OFFCURVE",
"400 159 OFFCURVE",
"369 127 CURVE",
"452 258 OFFCURVE",
"571 493 OFFCURVE",
"571 615 CURVE SMOOTH",
"571 685 OFFCURVE",
"525 713 OFFCURVE",
"460 713 CURVE SMOOTH",
"323 713 OFFCURVE",
"142 616 OFFCURVE",
"61 507 CURVE SMOOTH",
"37 475 OFFCURVE",
"9 425 OFFCURVE",
"9 383 CURVE SMOOTH",
"9 338 OFFCURVE",
"48 321 OFFCURVE",
"88 321 CURVE SMOOTH",
"103 321 OFFCURVE",
"143 327 OFFCURVE",
"151 340 CURVE",
"152 349 OFFCURVE",
"125 348 OFFCURVE",
"120 348 CURVE SMOOTH",
"86 350 OFFCURVE",
"55 352 OFFCURVE",
"55 395 CURVE SMOOTH",
"55 480 OFFCURVE",
"210 597 OFFCURVE",
"278 635 CURVE SMOOTH",
"324 661 OFFCURVE",
"383 687 OFFCURVE",
"437 687 CURVE SMOOTH",
"487 687 OFFCURVE",
"519 665 OFFCURVE",
"519 617 CURVE SMOOTH",
"519 574 OFFCURVE",
"516 524 OFFCURVE",
"488 456 CURVE SMOOTH",
"435 329 OFFCURVE",
"371 210 OFFCURVE",
"298 90 CURVE SMOOTH",
"269 42 OFFCURVE",
"244 -4 OFFCURVE",
"244 -20 CURVE SMOOTH",
"244 -36 OFFCURVE",
"273 -40 OFFCURVE",
"285 -40 CURVE SMOOTH",
"302 -40 OFFCURVE",
"317 -36 OFFCURVE",
"317 -17 CURVE SMOOTH",
"317 -12 OFFCURVE",
"315 -8 OFFCURVE",
"315 -4 CURVE SMOOTH",
"315 -3 OFFCURVE",
"315 -1 OFFCURVE",
"316 0 CURVE SMOOTH",
"403 131 OFFCURVE",
"747 502 OFFCURVE",
"888 553 CURVE SMOOTH",
"899 557 OFFCURVE",
"911 560 OFFCURVE",
"923 560 CURVE SMOOTH",
"941 560 OFFCURVE",
"950 550 OFFCURVE",
"950 532 CURVE SMOOTH",
"950 502 OFFCURVE",
"930 459 OFFCURVE",
"905 416 CURVE SMOOTH"
);
}
);
width = 819;
}
);
note = N.1;
unicode = 004E;
},
{
color = 11;
glyphname = O;
lastChange = "2021-06-09 19:50:26 +0000";
layers = (
{
anchors = (
{
name = bottom;
position = "{283, -139}";
},
{
name = center;
position = "{380, 350}";
},
{
name = ogonek;
position = "{313, -66}";
},
{
name = top;
position = "{766, 692}";
},
{
name = topleft;
position = "{20, 700}";
},
{
name = topright;
position = "{828, 566}";
}
);
hints = (
{
horizontal = 1;
place = "{603, -20}";
target = down;
type = TopGhost;
}
);
layerId = "40AAE8A1-2E59-408F-988A-610CC450AA88";
paths = (
{
closed = 1;
nodes = (
"392 524 OFFCURVE",
"353 490 OFFCURVE",
"322 458 CURVE SMOOTH",
"281 416 OFFCURVE",
"245 370 OFFCURVE",
"213 321 CURVE SMOOTH",
"196 296 OFFCURVE",
"181 269 OFFCURVE",
"169 241 CURVE",
"129 257 OFFCURVE",
"100 284 OFFCURVE",
"100 329 CURVE SMOOTH",
"100 483 OFFCURVE",
"266 558 OFFCURVE",
"400 558 CURVE SMOOTH",
"412 558 OFFCURVE",
"424 557 OFFCURVE",
"436 555 CURVE"
);
},
{
closed = 1;
nodes = (
"525 575 OFFCURVE",
"548 587 OFFCURVE",
"572 598 CURVE SMOOTH",
"611 616 OFFCURVE",
"660 631 OFFCURVE",
"704 631 CURVE SMOOTH",
"742 631 OFFCURVE",
"773 622 OFFCURVE",
"773 579 CURVE SMOOTH",
"773 573 OFFCURVE",
"772 568 OFFCURVE",
"772 563 CURVE",
"761 566 OFFCURVE",
"750 568 OFFCURVE",
"739 568 CURVE SMOOTH",
"732 568 OFFCURVE",
"716 567 OFFCURVE",
"716 556 CURVE SMOOTH",
"716 541 OFFCURVE",
"754 531 OFFCURVE",
"765 529 CURVE",
"722 406 OFFCURVE",
"542 303 OFFCURVE",
"425 262 CURVE SMOOTH",
"362 240 OFFCURVE",
"282 219 OFFCURVE",
"215 231 CURVE",
"265 352 OFFCURVE",
"366 469 OFFCURVE",
"480 546 CURVE",
"507 539 OFFCURVE",
"532 529 OFFCURVE",
"551 518 CURVE SMOOTH",
"563 512 OFFCURVE",
"572 529 OFFCURVE",
"561 536 CURVE SMOOTH",
"544 545 OFFCURVE",
"524 553 OFFCURVE",
"502 560 CURVE"
);
},
{
closed = 1;
nodes = (
"245 578 OFFCURVE",
"67 507 OFFCURVE",
"67 327 CURVE SMOOTH",
"67 268 OFFCURVE",
"102 229 OFFCURVE",
"157 211 CURVE",
"146 178 OFFCURVE",
"139 143 OFFCURVE",
"139 107 CURVE SMOOTH",
"139 -1 OFFCURVE",
"204 -70 OFFCURVE",
"313 -70 CURVE SMOOTH",
"474 -70 OFFCURVE",
"665 44 OFFCURVE",
"771 159 CURVE SMOOTH",
"831 224 OFFCURVE",
"895 320 OFFCURVE",
"895 412 CURVE SMOOTH",
"895 467 OFFCURVE",
"871 513 OFFCURVE",
"824 541 CURVE",
"827 553 OFFCURVE",
"828 566 OFFCURVE",
"828 578 CURVE SMOOTH",
"828 644 OFFCURVE",
"774 666 OFFCURVE",
"717 666 CURVE SMOOTH",
"632 666 OFFCURVE",
"540 625 OFFCURVE",
"459 572 CURVE",
"439 576 OFFCURVE",
"419 578 OFFCURVE",
"400 578 CURVE SMOOTH"
);
},
{
closed = 1;
nodes = (
"843 494 OFFCURVE",
"858 463 OFFCURVE",
"858 428 CURVE SMOOTH",
"858 341 OFFCURVE",
"772 234 OFFCURVE",
"718 172 CURVE SMOOTH",
"631 74 OFFCURVE",
"450 -38 OFFCURVE",
"317 -38 CURVE SMOOTH",
"231 -38 OFFCURVE",
"179 10 OFFCURVE",
"179 96 CURVE SMOOTH",
"179 131 OFFCURVE",
"187 165 OFFCURVE",
"199 198 CURVE",
"283 189 OFFCURVE",
"382 206 OFFCURVE",
"462 231 CURVE SMOOTH",
"597 274 OFFCURVE",
"758 375 OFFCURVE",
"813 512 CURVE"
);
}
);
width = 759;
}
);
note = O.1;
unicode = 004F;
},
{
color = 11;
glyphname = P;
lastChange = "2021-06-09 19:50:26 +0000";
layers = (
{
hints = (
{
horizontal = 1;
place = "{626, -20}";
target = down;
type = TopGhost;
}
);
layerId = "40AAE8A1-2E59-408F-988A-610CC450AA88";
paths = (
{
closed = 1;
nodes = (
"567 189 OFFCURVE",
"740 249 OFFCURVE",
"818 371 CURVE SMOOTH",
"831 392 OFFCURVE",
"840 416 OFFCURVE",
"840 441 CURVE SMOOTH",
"840 540 OFFCURVE",
"719 594 OFFCURVE",
"638 612 CURVE SMOOTH",
"589 624 OFFCURVE",
"539 629 OFFCURVE",
"488 629 CURVE SMOOTH",
"322 629 OFFCURVE",
"77 586 OFFCURVE",
"-43 459 CURVE SMOOTH",
"-72 428 OFFCURVE",
"-98 386 OFFCURVE",
"-98 342 CURVE SMOOTH",
"-98 311 OFFCURVE",
"-84 284 OFFCURVE",
"-55 270 CURVE SMOOTH",
"-47 266 OFFCURVE",
"-32 259 OFFCURVE",
"-22 259 CURVE SMOOTH",
"-18 259 OFFCURVE",
"-13 261 OFFCURVE",
"-9 262 CURVE SMOOTH",
"0 264 OFFCURVE",
"28 266 OFFCURVE",
"28 279 CURVE SMOOTH",
"28 282 OFFCURVE",
"24 283 OFFCURVE",
"22 283 CURVE SMOOTH",
"14 283 OFFCURVE",
"8 277 OFFCURVE",
"0 277 CURVE SMOOTH",
"-9 277 OFFCURVE",
"-18 285 OFFCURVE",
"-25 290 CURVE SMOOTH",
"-43 303 OFFCURVE",
"-52 317 OFFCURVE",
"-52 340 CURVE SMOOTH",
"-52 383 OFFCURVE",
"-18 426 OFFCURVE",
"12 453 CURVE SMOOTH",
"125 558 OFFCURVE",
"320 605 OFFCURVE",
"470 605 CURVE SMOOTH",
"573 605 OFFCURVE",
"779 571 OFFCURVE",
"779 433 CURVE SMOOTH",
"779 273 OFFCURVE",
"548 214 OFFCURVE",
"422 214 CURVE SMOOTH",
"389 214 OFFCURVE",
"357 218 OFFCURVE",
"325 228 CURVE",
"401 329 OFFCURVE",
"491 453 OFFCURVE",
"594 527 CURVE SMOOTH",
"603 533 OFFCURVE",
"621 544 OFFCURVE",
"621 556 CURVE SMOOTH",
"621 565 OFFCURVE",
"611 568 OFFCURVE",
"604 568 CURVE SMOOTH",
"575 568 OFFCURVE",
"531 549 OFFCURVE",
"509 531 CURVE SMOOTH",
"477 505 OFFCURVE",
"443 480 OFFCURVE",
"414 451 CURVE",
"416 446 OFFCURVE",
"421 445 OFFCURVE",
"426 445 CURVE SMOOTH",
"435 445 OFFCURVE",
"446 450 OFFCURVE",
"454 455 CURVE",
"384 379 OFFCURVE",
"131 86 OFFCURVE",
"131 -18 CURVE SMOOTH",
"131 -36 OFFCURVE",
"136 -45 OFFCURVE",
"150 -55 CURVE SMOOTH",
"161 -63 OFFCURVE",
"172 -83 OFFCURVE",
"186 -83 CURVE SMOOTH",
"199 -83 OFFCURVE",
"244 -51 OFFCURVE",
"244 -37 CURVE SMOOTH",
"244 -34 OFFCURVE",
"242 -33 OFFCURVE",
"239 -33 CURVE SMOOTH",
"221 -33 OFFCURVE",
"209 -52 OFFCURVE",
"189 -52 CURVE SMOOTH",
"176 -52 OFFCURVE",
"173 -40 OFFCURVE",
"173 -30 CURVE SMOOTH",
"173 -8 OFFCURVE",
"184 17 OFFCURVE",
"195 35 CURVE SMOOTH",
"229 93 OFFCURVE",
"268 150 OFFCURVE",
"308 205 CURVE",
"320 192 OFFCURVE",
"408 189 OFFCURVE",
"429 189 CURVE SMOOTH"
);
}
);
width = 652;
}
);
note = P.1;
unicode = 0050;
},
{
color = 11;
glyphname = Q;
lastChange = "2021-06-09 19:50:26 +0000";
layers = (
{
hints = (
{
horizontal = 1;
place = "{662, -20}";
target = down;
type = TopGhost;
}
);
layerId = "40AAE8A1-2E59-408F-988A-610CC450AA88";
paths = (
{
closed = 1;
nodes = (
"827 553 OFFCURVE",
"828 566 OFFCURVE",
"828 578 CURVE SMOOTH",
"828 644 OFFCURVE",
"774 666 OFFCURVE",
"717 666 CURVE SMOOTH",
"577 666 OFFCURVE",
"415 554 OFFCURVE",
"322 458 CURVE SMOOTH",
"281 416 OFFCURVE",
"245 370 OFFCURVE",
"213 321 CURVE SMOOTH",
"196 296 OFFCURVE",
"181 269 OFFCURVE",
"169 241 CURVE",
"129 257 OFFCURVE",
"100 284 OFFCURVE",
"100 329 CURVE SMOOTH",
"100 370 OFFCURVE",
"126 405 OFFCURVE",
"126 446 CURVE SMOOTH",
"126 448 OFFCURVE",
"125 462 OFFCURVE",
"120 462 CURVE SMOOTH",
"102 462 OFFCURVE",
"83 406 OFFCURVE",
"79 393 CURVE SMOOTH",
"72 372 OFFCURVE",
"67 350 OFFCURVE",
"67 327 CURVE SMOOTH",
"67 268 OFFCURVE",
"102 229 OFFCURVE",
"157 211 CURVE",
"146 178 OFFCURVE",
"139 143 OFFCURVE",
"139 107 CURVE SMOOTH",
"139 -1 OFFCURVE",
"204 -70 OFFCURVE",
"313 -70 CURVE SMOOTH",
"474 -70 OFFCURVE",
"665 44 OFFCURVE",
"771 159 CURVE SMOOTH",
"831 224 OFFCURVE",
"895 320 OFFCURVE",
"895 412 CURVE SMOOTH",
"895 467 OFFCURVE",
"871 513 OFFCURVE",
"824 541 CURVE"
);
},
{
closed = 1;
nodes = (
"843 494 OFFCURVE",
"858 463 OFFCURVE",
"858 428 CURVE SMOOTH",
"858 341 OFFCURVE",
"772 234 OFFCURVE",
"718 172 CURVE SMOOTH",
"631 74 OFFCURVE",
"450 -38 OFFCURVE",
"317 -38 CURVE SMOOTH",
"231 -38 OFFCURVE",
"179 10 OFFCURVE",
"179 96 CURVE SMOOTH",
"179 131 OFFCURVE",
"187 165 OFFCURVE",
"199 198 CURVE",
"214 196 OFFCURVE",
"229 196 OFFCURVE",
"244 196 CURVE SMOOTH",
"256 196 OFFCURVE",
"269 196 OFFCURVE",
"281 197 CURVE SMOOTH",
"343 202 OFFCURVE",
"403 213 OFFCURVE",
"462 231 CURVE SMOOTH",
"597 274 OFFCURVE",
"758 375 OFFCURVE",
"813 512 CURVE"
);
},
{
closed = 1;
nodes = (
"761 566 OFFCURVE",
"750 568 OFFCURVE",
"739 568 CURVE SMOOTH",
"732 568 OFFCURVE",
"716 567 OFFCURVE",
"716 556 CURVE SMOOTH",
"716 541 OFFCURVE",
"754 531 OFFCURVE",
"765 529 CURVE",
"722 406 OFFCURVE",
"542 303 OFFCURVE",
"425 262 CURVE SMOOTH",
"378 246 OFFCURVE",
"329 234 OFFCURVE",
"279 228 CURVE SMOOTH",
"272 227 OFFCURVE",
"265 227 OFFCURVE",
"258 227 CURVE SMOOTH",
"244 227 OFFCURVE",
"229 228 OFFCURVE",
"215 231 CURVE",
"279 384 OFFCURVE",
"422 530 OFFCURVE",
"572 598 CURVE SMOOTH",
"611 616 OFFCURVE",
"660 631 OFFCURVE",
"704 631 CURVE SMOOTH",
"742 631 OFFCURVE",
"773 622 OFFCURVE",
"773 579 CURVE SMOOTH",
"773 573 OFFCURVE",
"772 568 OFFCURVE",
"772 563 CURVE"
);
},
{
closed = 1;
nodes = (
"716 -257 OFFCURVE",
"712 -255 OFFCURVE",
"709 -255 CURVE SMOOTH",
"702 -255 OFFCURVE",
"694 -262 OFFCURVE",
"689 -267 CURVE",
"671 -281 OFFCURVE",
"651 -290 OFFCURVE",
"629 -290 CURVE SMOOTH",
"445 -290 OFFCURVE",
"335 -117 OFFCURVE",
"164 -73 CURVE SMOOTH",
"147 -69 OFFCURVE",
"130 -66 OFFCURVE",
"113 -66 CURVE SMOOTH",
"47 -66 OFFCURVE",
"-26 -111 OFFCURVE",
"-26 -184 CURVE SMOOTH",
"-26 -224 OFFCURVE",
"-1 -248 OFFCURVE",
"35 -260 CURVE SMOOTH",
"38 -261 OFFCURVE",
"40 -262 OFFCURVE",
"43 -262 CURVE SMOOTH",
"53 -262 OFFCURVE",
"67 -254 OFFCURVE",
"67 -243 CURVE SMOOTH",
"67 -226 OFFCURVE",
"7 -217 OFFCURVE",
"7 -177 CURVE SMOOTH",
"7 -135 OFFCURVE",
"73 -123 OFFCURVE",
"105 -123 CURVE SMOOTH",
"266 -123 OFFCURVE",
"416 -318 OFFCURVE",
"605 -318 CURVE SMOOTH",
"636 -318 OFFCURVE",
"674 -310 OFFCURVE",
"698 -289 CURVE SMOOTH",
"705 -283 OFFCURVE",
"716 -271 OFFCURVE",
"716 -261 CURVE SMOOTH"
);
}
);
width = 759;
}
);
note = Q.1;
unicode = 0051;
},
{
color = 11;
glyphname = R;
lastChange = "2021-06-09 19:50:26 +0000";
layers = (
{
anchors = (
{
name = bottom;
position = "{300, -83}";
},
{
name = top;
position = "{748, 642}";
}
);
hints = (
{
horizontal = 1;
place = "{626, -20}";
target = down;
type = TopGhost;
}
);
layerId = "40AAE8A1-2E59-408F-988A-610CC450AA88";
paths = (
{
closed = 1;
nodes = (
"817 369 LINE",
"831 390 OFFCURVE",
"839 415 OFFCURVE",
"839 440 CURVE SMOOTH",
"839 540 OFFCURVE",
"719 593 OFFCURVE",
"637 612 CURVE SMOOTH",
"588 624 OFFCURVE",
"538 629 OFFCURVE",
"487 629 CURVE SMOOTH",
"321 629 OFFCURVE",
"76 586 OFFCURVE",
"-44 459 CURVE SMOOTH",
"-73 428 OFFCURVE",
"-98 386 OFFCURVE",
"-98 343 CURVE SMOOTH",
"-98 311 OFFCURVE",
"-84 284 OFFCURVE",
"-55 270 CURVE SMOOTH",
"-47 266 OFFCURVE",
"-32 259 OFFCURVE",
"-22 259 CURVE SMOOTH",
"-18 259 OFFCURVE",
"-13 261 OFFCURVE",
"-9 262 CURVE SMOOTH",
"-1 264 OFFCURVE",
"28 266 OFFCURVE",
"28 279 CURVE SMOOTH",
"28 282 OFFCURVE",
"24 283 OFFCURVE",
"22 283 CURVE SMOOTH",
"14 283 OFFCURVE",
"8 277 OFFCURVE",
"0 277 CURVE SMOOTH",
"-9 277 OFFCURVE",
"-18 285 OFFCURVE",
"-25 290 CURVE SMOOTH",
"-43 303 OFFCURVE",
"-52 318 OFFCURVE",
"-52 340 CURVE SMOOTH",
"-52 382 OFFCURVE",
"-18 426 OFFCURVE",
"12 453 CURVE SMOOTH",
"125 558 OFFCURVE",
"320 605 OFFCURVE",
"470 605 CURVE SMOOTH",
"573 605 OFFCURVE",
"779 571 OFFCURVE",
"779 433 CURVE SMOOTH",
"779 414 OFFCURVE",
"775 395 OFFCURVE",
"768 378 CURVE SMOOTH",
"759 354 OFFCURVE",
"741 333 OFFCURVE",
"722 316 CURVE SMOOTH",
"647 246 OFFCURVE",
"538 214 OFFCURVE",
"437 214 CURVE SMOOTH",
"410 214 OFFCURVE",
"384 216 OFFCURVE",
"358 220 CURVE",
"345 253 LINE",
"417 347 OFFCURVE",
"497 458 OFFCURVE",
"594 527 CURVE SMOOTH",
"602 533 OFFCURVE",
"621 544 OFFCURVE",
"621 556 CURVE SMOOTH",
"621 564 OFFCURVE",
"611 565 OFFCURVE",
"605 565 CURVE SMOOTH",
"582 565 OFFCURVE",
"533 545 OFFCURVE",
"514 531 CURVE",
"510 531 LINE",
"479 509 OFFCURVE",
"440 481 OFFCURVE",
"418 450 CURVE",
"418 451 OFFCURVE",
"416 452 OFFCURVE",
"415 452 CURVE",
"410 447 OFFCURVE",
"406 443 OFFCURVE",
"403 437 CURVE",
"403 435 OFFCURVE",
"405 434 OFFCURVE",
"407 434 CURVE SMOOTH",
"416 434 OFFCURVE",
"455 460 OFFCURVE",
"463 465 CURVE",
"417 414 OFFCURVE",
"371 362 OFFCURVE",
"329 308 CURVE",
"326 308 LINE",
"321 314 OFFCURVE",
"313 319 OFFCURVE",
"305 319 CURVE SMOOTH",
"279 319 OFFCURVE",
"261 283 OFFCURVE",
"261 260 CURVE SMOOTH",
"261 256 OFFCURVE",
"268 240 OFFCURVE",
"271 236 CURVE",
"232 182 OFFCURVE",
"131 42 OFFCURVE",
"131 -20 CURVE SMOOTH",
"131 -36 OFFCURVE",
"136 -46 OFFCURVE",
"149 -55 CURVE SMOOTH",
"160 -63 OFFCURVE",
"172 -83 OFFCURVE",
"186 -83 CURVE SMOOTH",
"199 -83 OFFCURVE",
"244 -51 OFFCURVE",
"244 -37 CURVE SMOOTH",
"244 -34 OFFCURVE",
"242 -33 OFFCURVE",
"239 -33 CURVE SMOOTH",
"220 -33 OFFCURVE",
"214 -52 OFFCURVE",
"197 -52 CURVE SMOOTH",
"182 -52 OFFCURVE",
"171 -41 OFFCURVE",
"171 -27 CURVE SMOOTH",
"171 17 OFFCURVE",
"276 158 OFFCURVE",
"304 197 CURVE",
"305 196 LINE",
"321 167 OFFCURVE",
"337 138 OFFCURVE",
"355 110 CURVE SMOOTH",
"383 69 OFFCURVE",
"486 -70 OFFCURVE",
"530 -90 CURVE SMOOTH",
"542 -95 OFFCURVE",
"554 -98 OFFCURVE",
"567 -98 CURVE SMOOTH",
"594 -98 OFFCURVE",
"664 -75 OFFCURVE",
"668 -43 CURVE",
"669 -42 OFFCURVE",
"669 -38 OFFCURVE",
"669 -37 CURVE SMOOTH",
"669 -36 OFFCURVE",
"669 -32 OFFCURVE",
"667 -32 CURVE SMOOTH",
"654 -32 OFFCURVE",
"635 -62 OFFCURVE",
"603 -62 CURVE SMOOTH",
"540 -62 OFFCURVE",
"462 38 OFFCURVE",
"432 85 CURVE SMOOTH",
"409 119 OFFCURVE",
"390 155 OFFCURVE",
"373 192 CURVE",
"392 190 OFFCURVE",
"410 189 OFFCURVE",
"429 189 CURVE SMOOTH",
"565 189 OFFCURVE",
"737 249 OFFCURVE",
"815 369 CURVE"
);
}
);
width = 688;
}
);
note = R.1;
unicode = 0052;
},
{
color = 11;
glyphname = S;
lastChange = "2021-06-09 19:50:26 +0000";
layers = (
{
anchors = (
{
name = bottom;
position = "{217, -115}";
},
{
name = top;
position = "{695, 632}";
}
);
hints = (
{
horizontal = 1;
place = "{-124, 27}";
type = Stem;
},
{
horizontal = 1;
place = "{192, 17}";
type = Stem;
},
{
horizontal = 1;
place = "{567, 31}";
type = Stem;
},
{
place = "{-1, 51}";
type = Stem;
},
{
place = "{332, 59}";
type = Stem;
},
{
place = "{745, 44}";
type = Stem;
}
);
layerId = "40AAE8A1-2E59-408F-988A-610CC450AA88";
paths = (
{
closed = 1;
nodes = (
"569 598 OFFCURVE",
"332 542 OFFCURVE",
"332 413 CURVE SMOOTH",
"332 337 OFFCURVE",
"445 321 OFFCURVE",
"543 289 CURVE SMOOTH",
"625 262 OFFCURVE",
"702 220 OFFCURVE",
"691 144 CURVE SMOOTH",
"664 -47 OFFCURVE",
"199 -177 OFFCURVE",
"72 -42 CURVE SMOOTH",
"35 -2 OFFCURVE",
"40 53 OFFCURVE",
"116 103 CURVE SMOOTH",
"217 169 OFFCURVE",
"335 192 OFFCURVE",
"400 192 CURVE SMOOTH",
"457 192 OFFCURVE",
"423 209 OFFCURVE",
"388 209 CURVE SMOOTH",
"321 208 OFFCURVE",
"208 191 OFFCURVE",
"100 127 CURVE SMOOTH",
"-17 58 OFFCURVE",
"-24 -22 OFFCURVE",
"36 -73 CURVE SMOOTH",
"185 -199 OFFCURVE",
"725 -82 OFFCURVE",
"748 155 CURVE SMOOTH",
"758 262 OFFCURVE",
"654 299 OFFCURVE",
"551 327 CURVE SMOOTH",
"475 348 OFFCURVE",
"389 370 OFFCURVE",
"391 429 CURVE SMOOTH",
"395 526 OFFCURVE",
"577 567 OFFCURVE",
"653 567 CURVE SMOOTH",
"672 567 OFFCURVE",
"748 565 OFFCURVE",
"745 542 CURVE",
"742 487 OFFCURVE",
"658 416 OFFCURVE",
"647 394 CURVE",
"645 387 OFFCURVE",
"653 389 OFFCURVE",
"658 392 CURVE SMOOTH",
"695 416 OFFCURVE",
"785 477 OFFCURVE",
"789 532 CURVE",
"785 593 OFFCURVE",
"710 598 OFFCURVE",
"665 598 CURVE SMOOTH"
);
}
);
width = 744;
}
);
note = S.1;
unicode = 0053;
},
{
color = 11;
glyphname = T;
lastChange = "2021-06-09 19:50:26 +0000";
layers = (
{
anchors = (
{
name = bottom;
position = "{299, -75}";
},
{
name = center;
position = "{268, 350}";
},
{
name = top;
position = "{838, 700}";
}
);
hints = (
{
horizontal = 1;
place = "{-95, 30}";
type = Stem;
},
{
horizontal = 1;
place = "{375, 41}";
type = Stem;
},
{
horizontal = 1;
place = "{643, 32}";
type = Stem;
},
{
place = "{98, 46}";
type = Stem;
},
{
place = "{269, 41}";
type = Stem;
},
{
place = "{1154, 40}";
type = Stem;
}
);
layerId = "40AAE8A1-2E59-408F-988A-610CC450AA88";
paths = (
{
closed = 1;
nodes = (
"625 675 OFFCURVE",
"360 658 OFFCURVE",
"210 597 CURVE SMOOTH",
"165 579 OFFCURVE",
"98 527 OFFCURVE",
"98 473 CURVE SMOOTH",
"98 380 OFFCURVE",
"182 375 OFFCURVE",
"231 375 CURVE SMOOTH",
"292 375 OFFCURVE",
"365 403 OFFCURVE",
"419 431 CURVE SMOOTH",
"427 435 OFFCURVE",
"534 501 OFFCURVE",
"579 542 CURVE SMOOTH",
"594 556 OFFCURVE",
"604 579 OFFCURVE",
"597 579 CURVE SMOOTH",
"588 579 OFFCURVE",
"581 572 OFFCURVE",
"574 566 CURVE SMOOTH",
"499 502 OFFCURVE",
"402 451 OFFCURVE",
"307 425 CURVE SMOOTH",
"287 419 OFFCURVE",
"266 416 OFFCURVE",
"245 416 CURVE SMOOTH",
"189 416 OFFCURVE",
"114 434 OFFCURVE",
"157 498 CURVE SMOOTH",
"214 578 OFFCURVE",
"395 609 OFFCURVE",
"488 620 CURVE SMOOTH",
"616 635 OFFCURVE",
"746 643 OFFCURVE",
"875 643 CURVE SMOOTH",
"882 643 OFFCURVE",
"1220 634 OFFCURVE",
"1142 564 CURVE SMOOTH",
"1120 543 OFFCURVE",
"1104 537 OFFCURVE",
"1091 527 CURVE SMOOTH",
"1075 514 OFFCURVE",
"1062 493 OFFCURVE",
"1094 506 CURVE SMOOTH",
"1108 513 OFFCURVE",
"1116 512 OFFCURVE",
"1140 527 CURVE SMOOTH",
"1167 543 OFFCURVE",
"1194 565 OFFCURVE",
"1194 592 CURVE SMOOTH",
"1194 680 OFFCURVE",
"803 675 OFFCURVE",
"788 675 CURVE SMOOTH"
);
},
{
closed = 1;
nodes = (
"758 536 LINE",
"759 538 OFFCURVE",
"759 540 OFFCURVE",
"759 542 CURVE SMOOTH",
"759 550 OFFCURVE",
"751 552 OFFCURVE",
"745 552 CURVE SMOOTH",
"722 552 OFFCURVE",
"671 531 OFFCURVE",
"653 516 CURVE",
"649 516 LINE",
"633 504 OFFCURVE",
"543 439 OFFCURVE",
"543 424 CURVE SMOOTH",
"543 423 OFFCURVE",
"545 422 OFFCURVE",
"546 422 CURVE SMOOTH",
"555 422 OFFCURVE",
"593 446 OFFCURVE",
"603 452 CURVE",
"496 336 OFFCURVE",
"397 214 OFFCURVE",
"314 79 CURVE SMOOTH",
"296 50 OFFCURVE",
"269 1 OFFCURVE",
"269 -34 CURVE SMOOTH",
"269 -50 OFFCURVE",
"274 -60 OFFCURVE",
"287 -68 CURVE SMOOTH",
"299 -75 OFFCURVE",
"312 -95 OFFCURVE",
"326 -95 CURVE SMOOTH",
"338 -95 OFFCURVE",
"382 -64 OFFCURVE",
"382 -51 CURVE SMOOTH",
"382 -47 OFFCURVE",
"377 -46 OFFCURVE",
"374 -46 CURVE SMOOTH",
"371 -46 OFFCURVE",
"368 -47 OFFCURVE",
"365 -48 CURVE",
"357 -56 OFFCURVE",
"347 -65 OFFCURVE",
"335 -65 CURVE SMOOTH",
"319 -65 OFFCURVE",
"310 -54 OFFCURVE",
"310 -39 CURVE SMOOTH",
"310 -18 OFFCURVE",
"323 6 OFFCURVE",
"333 23 CURVE SMOOTH",
"370 85 OFFCURVE",
"412 145 OFFCURVE",
"454 203 CURVE SMOOTH",
"511 281 OFFCURVE",
"594 392 OFFCURVE",
"665 457 CURVE SMOOTH",
"694 484 OFFCURVE",
"720 502 OFFCURVE",
"750 525 CURVE SMOOTH",
"754 528 OFFCURVE",
"757 531 OFFCURVE",
"759 536 CURVE"
);
}
);
width = 535;
}
);
note = T.1;
unicode = 0054;
},
{
color = 11;
glyphname = U;
lastChange = "2021-06-09 19:50:26 +0000";
layers = (
{
anchors = (
{
name = bottom;
position = "{358, 0}";
},
{
name = ogonek;
position = "{644, 10}";
},
{
name = top;
position = "{734, 563}";
},
{
name = topright;
position = "{856, 492}";
}
);
hints = (
{
horizontal = 1;
place = "{-20, 32}";
type = Stem;
},
{
horizontal = 1;
place = "{236, 31}";
type = Stem;
},
{
horizontal = 1;
place = "{590, 32}";
type = Stem;
},
{
place = "{14, 50}";
type = Stem;
},
{
place = "{245, 45}";
type = Stem;
},
{
place = "{530, 44}";
type = Stem;
},
{
place = "{545, 52}";
type = Stem;
}
);
layerId = "40AAE8A1-2E59-408F-988A-610CC450AA88";
paths = (
{
closed = 1;
nodes = (
"581 67 OFFCURVE",
"567 41 OFFCURVE",
"560 21 CURVE SMOOTH",
"501 -127 OFFCURVE",
"537 -170 OFFCURVE",
"598 -162 CURVE SMOOTH",
"637 -157 OFFCURVE",
"650 -113 OFFCURVE",
"636 -123 CURVE SMOOTH",
"614 -138 OFFCURVE",
"595 -139 OFFCURVE",
"585 -135 CURVE",
"557 -116 OFFCURVE",
"583 -25 OFFCURVE",
"637 90 CURVE SMOOTH",
"681 181 OFFCURVE",
"751 298 OFFCURVE",
"778 337 CURVE SMOOTH",
"808 382 OFFCURVE",
"837 432 OFFCURVE",
"876 471 CURVE SMOOTH",
"877 472 LINE SMOOTH",
"881 476 OFFCURVE",
"881 481 OFFCURVE",
"881 486 CURVE SMOOTH",
"881 504 OFFCURVE",
"856 511 OFFCURVE",
"841 511 CURVE SMOOTH",
"827 511 OFFCURVE",
"817 508 OFFCURVE",
"810 495 CURVE SMOOTH",
"803 482 OFFCURVE",
"797 469 OFFCURVE",
"789 455 CURVE SMOOTH",
"715 334 OFFCURVE",
"497 54 OFFCURVE",
"360 17 CURVE SMOOTH",
"350 14 OFFCURVE",
"339 12 OFFCURVE",
"328 12 CURVE SMOOTH",
"303 12 OFFCURVE",
"290 24 OFFCURVE",
"290 49 CURVE SMOOTH",
"290 91 OFFCURVE",
"378 222 OFFCURVE",
"397 250 CURVE SMOOTH",
"451 332 OFFCURVE",
"597 514 OFFCURVE",
"597 563 CURVE SMOOTH",
"597 613 OFFCURVE",
"539 622 OFFCURVE",
"500 622 CURVE SMOOTH",
"431 622 OFFCURVE",
"341 597 OFFCURVE",
"280 566 CURVE SMOOTH",
"190 521 OFFCURVE",
"14 410 OFFCURVE",
"14 294 CURVE SMOOTH",
"14 243 OFFCURVE",
"64 236 OFFCURVE",
"105 236 CURVE SMOOTH",
"137 236 OFFCURVE",
"170 241 OFFCURVE",
"199 254 CURVE SMOOTH",
"203 256 OFFCURVE",
"224 264 OFFCURVE",
"224 269 CURVE SMOOTH",
"224 275 OFFCURVE",
"222 275 OFFCURVE",
"216 275 CURVE SMOOTH",
"212 275 OFFCURVE",
"209 274 OFFCURVE",
"205 274 CURVE SMOOTH",
"181 271 OFFCURVE",
"158 267 OFFCURVE",
"133 267 CURVE SMOOTH",
"101 267 OFFCURVE",
"64 274 OFFCURVE",
"64 315 CURVE SMOOTH",
"64 400 OFFCURVE",
"225 511 OFFCURVE",
"295 542 CURVE SMOOTH",
"347 565 OFFCURVE",
"416 590 OFFCURVE",
"473 590 CURVE SMOOTH",
"596 590 OFFCURVE",
"534 511 OFFCURVE",
"491 450 CURVE SMOOTH",
"441 379 OFFCURVE",
"403 329 OFFCURVE",
"351 259 CURVE SMOOTH",
"314 209 OFFCURVE",
"245 97 OFFCURVE",
"245 35 CURVE SMOOTH",
"245 -8 OFFCURVE",
"268 -20 OFFCURVE",
"308 -20 CURVE SMOOTH",
"443 -20 OFFCURVE",
"613 174 OFFCURVE",
"692 273 CURVE",
"671 238 OFFCURVE",
"622 159 OFFCURVE",
"591 91 CURVE SMOOTH"
);
}
);
width = 715;
}
);
note = U.1;
unicode = 0055;
},
{
color = 11;
glyphname = V;
lastChange = "2021-06-09 19:50:26 +0000";
layers = (
{
hints = (
{
horizontal = 1;
place = "{631, -20}";
target = down;
type = TopGhost;
}
);
layerId = "40AAE8A1-2E59-408F-988A-610CC450AA88";
paths = (
{
closed = 1;
nodes = (
"1099 510 OFFCURVE",
"1123 582 OFFCURVE",
"1123 601 CURVE SMOOTH",
"1123 622 OFFCURVE",
"1111 634 OFFCURVE",
"1090 634 CURVE SMOOTH",
"938 634 OFFCURVE",
"497 121 OFFCURVE",
"342 -15 CURVE",
"382 111 OFFCURVE",
"448 229 OFFCURVE",
"515 342 CURVE SMOOTH",
"535 376 OFFCURVE",
"635 533 OFFCURVE",
"638 559 CURVE SMOOTH",
"638 563 LINE SMOOTH",
"638 613 OFFCURVE",
"580 622 OFFCURVE",
"542 622 CURVE SMOOTH",
"474 622 OFFCURVE",
"384 597 OFFCURVE",
"323 566 CURVE SMOOTH",
"254 531 OFFCURVE",
"157 468 OFFCURVE",
"107 408 CURVE SMOOTH",
"83 379 OFFCURVE",
"57 333 OFFCURVE",
"57 294 CURVE SMOOTH",
"57 242 OFFCURVE",
"111 235 OFFCURVE",
"152 235 CURVE SMOOTH",
"181 235 OFFCURVE",
"216 240 OFFCURVE",
"242 252 CURVE SMOOTH",
"246 254 OFFCURVE",
"266 264 OFFCURVE",
"266 268 CURVE SMOOTH",
"266 274 OFFCURVE",
"262 274 OFFCURVE",
"258 274 CURVE SMOOTH",
"232 274 OFFCURVE",
"204 267 OFFCURVE",
"176 267 CURVE SMOOTH",
"144 267 OFFCURVE",
"106 273 OFFCURVE",
"106 314 CURVE SMOOTH",
"106 400 OFFCURVE",
"266 511 OFFCURVE",
"336 542 CURVE SMOOTH",
"383 563 OFFCURVE",
"464 595 OFFCURVE",
"516 595 CURVE SMOOTH",
"537 595 OFFCURVE",
"572 586 OFFCURVE",
"572 560 CURVE SMOOTH",
"572 510 OFFCURVE",
"443 304 OFFCURVE",
"411 246 CURVE SMOOTH",
"378 185 OFFCURVE",
"292 22 OFFCURVE",
"286 -46 CURVE SMOOTH",
"286 -49 LINE SMOOTH",
"286 -66 OFFCURVE",
"314 -75 OFFCURVE",
"328 -75 CURVE SMOOTH",
"335 -75 OFFCURVE",
"342 -73 OFFCURVE",
"347 -68 CURVE SMOOTH",
"359 -56 OFFCURVE",
"371 -42 OFFCURVE",
"382 -29 CURVE SMOOTH",
"462 59 LINE SMOOTH",
"534 138 OFFCURVE",
"608 215 OFFCURVE",
"684 291 CURVE SMOOTH",
"770 376 OFFCURVE",
"928 529 OFFCURVE",
"1036 579 CURVE SMOOTH",
"1043 582 OFFCURVE",
"1050 584 OFFCURVE",
"1058 584 CURVE SMOOTH",
"1074 584 OFFCURVE",
"1082 574 OFFCURVE",
"1082 558 CURVE SMOOTH",
"1082 541 OFFCURVE",
"1072 524 OFFCURVE",
"1072 515 CURVE SMOOTH",
"1072 511 OFFCURVE",
"1075 510 OFFCURVE",
"1078 510 CURVE SMOOTH"
);
}
);
width = 644;
}
);
note = V.1;
unicode = 0056;
},
{
color = 11;
glyphname = W;
lastChange = "2021-06-09 19:50:26 +0000";
layers = (
{
anchors = (
{
name = bottom;
position = "{454, -81}";
},
{
name = top;
position = "{858, 563}";
}
);
hints = (
{
horizontal = 1;
place = "{499, 22}";
type = Stem;
},
{
horizontal = 1;
place = "{630, -20}";
target = down;
type = TopGhost;
}
);
layerId = "40AAE8A1-2E59-408F-988A-610CC450AA88";
paths = (
{
closed = 1;
nodes = (
"1296 661 OFFCURVE",
"1348 745 OFFCURVE",
"1414 744 CURVE SMOOTH",
"1454 744 OFFCURVE",
"1448 706 OFFCURVE",
"1441 691 CURVE SMOOTH",
"1434 675 OFFCURVE",
"1430 627 OFFCURVE",
"1464 690 CURVE SMOOTH",
"1494 747 OFFCURVE",
"1450 776 OFFCURVE",
"1414 776 CURVE SMOOTH",
"1288 778 OFFCURVE",
"1169 571 OFFCURVE",
"1041 370 CURVE",
"948 206 OFFCURVE",
"790 -4 OFFCURVE",
"704 -4 CURVE SMOOTH",
"658 -4 OFFCURVE",
"668 60 OFFCURVE",
"679 105 CURVE SMOOTH",
"706 215 OFFCURVE",
"763 326 OFFCURVE",
"810 421 CURVE SMOOTH",
"818 438 OFFCURVE",
"839 472 OFFCURVE",
"833 488 CURVE SMOOTH",
"829 500 OFFCURVE",
"814 504 OFFCURVE",
"804 504 CURVE SMOOTH",
"782 504 OFFCURVE",
"756 447 OFFCURVE",
"740 425 CURVE SMOOTH",
"686 349 OFFCURVE",
"603 243 OFFCURVE",
"533 171 CURVE SMOOTH",
"483 122 OFFCURVE",
"377 1 OFFCURVE",
"319 1 CURVE SMOOTH",
"289 1 OFFCURVE",
"294 36 OFFCURVE",
"300 58 CURVE SMOOTH",
"321 140 OFFCURVE",
"406 270 OFFCURVE",
"465 354 CURVE",
"502 420 OFFCURVE",
"621 585 OFFCURVE",
"645 654 CURVE",
"658 714 OFFCURVE",
"580 722 OFFCURVE",
"538 722 CURVE SMOOTH",
"463 722 OFFCURVE",
"363 695 OFFCURVE",
"295 662 CURVE SMOOTH",
"219 624 OFFCURVE",
"112 557 OFFCURVE",
"56 493 CURVE SMOOTH",
"30 462 OFFCURVE",
"1 413 OFFCURVE",
"1 371 CURVE SMOOTH",
"1 316 OFFCURVE",
"61 308 OFFCURVE",
"106 308 CURVE SMOOTH",
"138 308 OFFCURVE",
"177 314 OFFCURVE",
"206 326 CURVE",
"210 329 OFFCURVE",
"232 339 OFFCURVE",
"232 344 CURVE SMOOTH",
"232 350 OFFCURVE",
"228 350 OFFCURVE",
"223 350 CURVE SMOOTH",
"195 350 OFFCURVE",
"164 342 OFFCURVE",
"133 342 CURVE SMOOTH",
"97 342 OFFCURVE",
"55 349 OFFCURVE",
"55 393 CURVE SMOOTH",
"55 484 OFFCURVE",
"232 603 OFFCURVE",
"310 636 CURVE SMOOTH",
"362 659 OFFCURVE",
"452 693 OFFCURVE",
"509 693 CURVE SMOOTH",
"533 693 OFFCURVE",
"571 683 OFFCURVE",
"571 655 CURVE SMOOTH",
"571 620 OFFCURVE",
"512 518 OFFCURVE",
"460 431 CURVE",
"370 300 OFFCURVE",
"280 148 OFFCURVE",
"259 66 CURVE SMOOTH",
"248 21 OFFCURVE",
"251 -28 OFFCURVE",
"294 -40 CURVE SMOOTH",
"362 -59 OFFCURVE",
"452 49 OFFCURVE",
"546 146 CURVE SMOOTH",
"606 206 OFFCURVE",
"673 293 OFFCURVE",
"707 325 CURVE",
"693 275 OFFCURVE",
"658 208 OFFCURVE",
"645 156 CURVE SMOOTH",
"624 71 OFFCURVE",
"618 -34 OFFCURVE",
"701 -34 CURVE SMOOTH",
"858 -34 OFFCURVE",
"1105 398 OFFCURVE",
"1217 553 CURVE SMOOTH"
);
}
);
width = 990;
}
);
note = W.1;
unicode = 0057;
},
{
color = 11;
glyphname = X;
lastChange = "2021-06-09 19:50:26 +0000";
layers = (
{
hints = (
{
horizontal = 1;
place = "{623, -20}";
target = down;
type = TopGhost;
},
{
place = "{357, 54}";
type = Stem;
}
);
layerId = "40AAE8A1-2E59-408F-988A-610CC450AA88";
paths = (
{
closed = 1;
nodes = (
"538 354 OFFCURVE",
"623 407 OFFCURVE",
"709 460 CURVE SMOOTH",
"740 479 OFFCURVE",
"913 582 OFFCURVE",
"913 620 CURVE SMOOTH",
"913 625 OFFCURVE",
"909 627 OFFCURVE",
"905 627 CURVE SMOOTH",
"882 627 OFFCURVE",
"846 598 OFFCURVE",
"829 584 CURVE SMOOTH",
"780 542 OFFCURVE",
"726 506 OFFCURVE",
"672 471 CURVE SMOOTH",
"603 426 OFFCURVE",
"532 383 OFFCURVE",
"463 338 CURVE",
"471 390 OFFCURVE",
"481 444 OFFCURVE",
"481 496 CURVE SMOOTH",
"481 510 OFFCURVE",
"480 534 OFFCURVE",
"471 545 CURVE SMOOTH",
"454 566 OFFCURVE",
"427 574 OFFCURVE",
"401 574 CURVE SMOOTH",
"333 574 OFFCURVE",
"246 525 OFFCURVE",
"191 487 CURVE SMOOTH",
"179 479 OFFCURVE",
"161 468 OFFCURVE",
"152 457 CURVE SMOOTH",
"149 453 OFFCURVE",
"145 448 OFFCURVE",
"145 443 CURVE SMOOTH",
"145 437 OFFCURVE",
"150 436 OFFCURVE",
"155 436 CURVE SMOOTH",
"158 436 OFFCURVE",
"173 440 OFFCURVE",
"176 442 CURVE SMOOTH",
"190 451 OFFCURVE",
"202 464 OFFCURVE",
"216 474 CURVE SMOOTH",
"260 506 OFFCURVE",
"322 539 OFFCURVE",
"377 539 CURVE SMOOTH",
"385 539 OFFCURVE",
"394 538 OFFCURVE",
"402 536 CURVE SMOOTH",
"427 530 OFFCURVE",
"428 482 OFFCURVE",
"428 462 CURVE SMOOTH",
"428 408 OFFCURVE",
"419 352 OFFCURVE",
"409 299 CURVE",
"226 178 OFFCURVE",
"45 42 OFFCURVE",
"-100 -124 CURVE SMOOTH",
"-108 -133 OFFCURVE",
"-121 -150 OFFCURVE",
"-121 -163 CURVE SMOOTH",
"-121 -170 OFFCURVE",
"-117 -174 OFFCURVE",
"-110 -174 CURVE SMOOTH",
"-89 -174 OFFCURVE",
"-62 -143 OFFCURVE",
"-51 -129 CURVE SMOOTH",
"74 27 OFFCURVE",
"235 148 OFFCURVE",
"399 260 CURVE",
"368 113 LINE SMOOTH",
"362 81 OFFCURVE",
"354 47 OFFCURVE",
"354 15 CURVE SMOOTH",
"354 -24 OFFCURVE",
"371 -52 OFFCURVE",
"412 -52 CURVE SMOOTH",
"488 -52 OFFCURVE",
"590 32 OFFCURVE",
"628 94 CURVE SMOOTH",
"635 105 OFFCURVE",
"660 147 OFFCURVE",
"660 157 CURVE SMOOTH",
"660 160 OFFCURVE",
"659 163 OFFCURVE",
"656 163 CURVE SMOOTH",
"636 163 OFFCURVE",
"532 -14 OFFCURVE",
"453 -14 CURVE SMOOTH",
"420 -14 OFFCURVE",
"414 29 OFFCURVE",
"414 54 CURVE SMOOTH",
"414 122 OFFCURVE",
"440 228 OFFCURVE",
"454 298 CURVE"
);
}
);
width = 625;
}
);
note = X.1;
unicode = 0058;
},
{
color = 11;
glyphname = Y;
lastChange = "2021-06-09 19:50:26 +0000";
layers = (
{
anchors = (
{
name = bottom;
position = "{329, -46}";
},
{
name = top;
position = "{836, 586}";
},
{
name = topleft;
position = "{20, 700}";
}
);
hints = (
{
horizontal = 1;
place = "{-125, 24}";
type = Stem;
}
);
layerId = "40AAE8A1-2E59-408F-988A-610CC450AA88";
paths = (
{
closed = 1;
nodes = (
"987 505 OFFCURVE",
"985 525 OFFCURVE",
"969 525 CURVE SMOOTH",
"947 525 OFFCURVE",
"922 492 OFFCURVE",
"911 476 CURVE SMOOTH",
"835 362 OFFCURVE",
"559 22 OFFCURVE",
"423 22 CURVE SMOOTH",
"404 22 OFFCURVE",
"394 31 OFFCURVE",
"394 50 CURVE SMOOTH",
"394 131 OFFCURVE",
"568 366 OFFCURVE",
"618 445 CURVE SMOOTH",
"636 474 OFFCURVE",
"664 519 OFFCURVE",
"664 554 CURVE SMOOTH",
"664 598 OFFCURVE",
"628 611 OFFCURVE",
"590 611 CURVE SMOOTH",
"511 611 OFFCURVE",
"388 559 OFFCURVE",
"322 515 CURVE SMOOTH",
"229 453 OFFCURVE",
"87 348 OFFCURVE",
"87 223 CURVE SMOOTH",
"87 184 OFFCURVE",
"103 169 OFFCURVE",
"141 169 CURVE SMOOTH",
"182 169 OFFCURVE",
"254 189 OFFCURVE",
"282 222 CURVE",
"283 224 OFFCURVE",
"291 233 OFFCURVE",
"291 236 CURVE SMOOTH",
"291 240 OFFCURVE",
"290 242 OFFCURVE",
"285 242 CURVE SMOOTH",
"265 242 OFFCURVE",
"209 207 OFFCURVE",
"168 207 CURVE SMOOTH",
"146 207 OFFCURVE",
"131 221 OFFCURVE",
"131 244 CURVE SMOOTH",
"131 318 OFFCURVE",
"276 450 OFFCURVE",
"334 493 CURVE SMOOTH",
"393 538 OFFCURVE",
"486 580 OFFCURVE",
"561 580 CURVE SMOOTH",
"575 580 OFFCURVE",
"610 578 OFFCURVE",
"610 557 CURVE SMOOTH",
"610 468 OFFCURVE",
"348 183 OFFCURVE",
"348 50 CURVE SMOOTH",
"348 8 OFFCURVE",
"381 -13 OFFCURVE",
"420 -13 CURVE SMOOTH",
"570 -13 OFFCURVE",
"812 300 OFFCURVE",
"913 406 CURVE",
"914 406 LINE",
"865 206 OFFCURVE",
"825 103 OFFCURVE",
"742 -25 CURVE",
"608 -46 OFFCURVE",
"488 -100 OFFCURVE",
"376 -169 CURVE SMOOTH",
"280 -228 OFFCURVE",
"196 -305 OFFCURVE",
"196 -384 CURVE SMOOTH",
"196 -421 OFFCURVE",
"238 -431 OFFCURVE",
"267 -431 CURVE SMOOTH",
"335 -431 OFFCURVE",
"407 -391 OFFCURVE",
"460 -351 CURVE SMOOTH",
"578 -260 OFFCURVE",
"689 -164 OFFCURVE",
"779 -44 CURVE",
"843 -37 OFFCURVE",
"863 -46 OFFCURVE",
"863 -64 CURVE SMOOTH",
"863 -106 OFFCURVE",
"775 -155 OFFCURVE",
"775 -171 CURVE SMOOTH",
"775 -176 OFFCURVE",
"783 -180 OFFCURVE",
"789 -177 CURVE SMOOTH",
"831 -158 OFFCURVE",
"908 -101 OFFCURVE",
"908 -50 CURVE SMOOTH",
"908 2 OFFCURVE",
"829 -18 OFFCURVE",
"800 -21 CURVE",
"864 61 OFFCURVE",
"932 214 OFFCURVE",
"970 384 CURVE SMOOTH",
"978 419 OFFCURVE",
"987 457 OFFCURVE",
"987 493 CURVE SMOOTH"
);
},
{
closed = 1;
nodes = (
"648 -158 OFFCURVE",
"548 -250 OFFCURVE",
"445 -329 CURVE SMOOTH",
"401 -363 OFFCURVE",
"331 -399 OFFCURVE",
"273 -399 CURVE SMOOTH",
"259 -399 OFFCURVE",
"241 -397 OFFCURVE",
"241 -379 CURVE SMOOTH",
"241 -319 OFFCURVE",
"309 -255 OFFCURVE",
"386 -202 CURVE SMOOTH",
"500 -124 OFFCURVE",
"610 -77 OFFCURVE",
"726 -54 CURVE"
);
}
);
width = 912;
}
);
note = Y.1;
unicode = 0059;
},
{
color = 11;
glyphname = Z;
lastChange = "2021-06-09 19:50:26 +0000";
layers = (
{
anchors = (
{
name = bottom;
position = "{223, -92}";
},
{
name = center;
position = "{511, 270}";
},
{
name = top;
position = "{858, 601}";
}
);
hints = (
{
horizontal = 1;
place = "{-158, 46}";
type = Stem;
},
{
horizontal = 1;
place = "{-38, 27}";
type = Stem;
},
{
horizontal = 1;
place = "{77, 30}";
type = Stem;
},
{
horizontal = 1;
place = "{475, 24}";
type = Stem;
},
{
horizontal = 1;
place = "{547, 25}";
type = Stem;
},
{
place = "{-15, 50}";
type = Stem;
},
{
place = "{351, 33}";
type = Stem;
},
{
place = "{1021, 29}";
type = Stem;
},
{
horizontal = 1;
place = "{539, 39}";
type = Stem;
}
);
layerId = "40AAE8A1-2E59-408F-988A-610CC450AA88";
paths = (
{
closed = 1;
nodes = (
"1052 564 OFFCURVE",
"1028 572 OFFCURVE",
"1010 572 CURVE SMOOTH",
"972 572 OFFCURVE",
"905 535 OFFCURVE",
"870 517 CURVE",
"784 544 OFFCURVE",
"701 578 OFFCURVE",
"610 578 CURVE SMOOTH",
"572 578 OFFCURVE",
"534 572 OFFCURVE",
"498 559 CURVE SMOOTH",
"443 539 OFFCURVE",
"351 480 OFFCURVE",
"351 414 CURVE SMOOTH",
"351 380 OFFCURVE",
"373 369 OFFCURVE",
"404 369 CURVE SMOOTH",
"408 369 OFFCURVE",
"418 369 OFFCURVE",
"418 374 CURVE SMOOTH",
"418 385 OFFCURVE",
"384 398 OFFCURVE",
"384 422 CURVE SMOOTH",
"384 427 OFFCURVE",
"385 432 OFFCURVE",
"388 436 CURVE",
"432 513 OFFCURVE",
"555 539 OFFCURVE",
"636 539 CURVE SMOOTH",
"706 539 OFFCURVE",
"771 516 OFFCURVE",
"837 498 CURVE",
"759 452 OFFCURVE",
"684 402 OFFCURVE",
"612 347 CURVE SMOOTH",
"483 249 OFFCURVE",
"351 153 OFFCURVE",
"223 53 CURVE",
"190 76 OFFCURVE",
"144 107 OFFCURVE",
"103 107 CURVE SMOOTH",
"92 107 OFFCURVE",
"81 105 OFFCURVE",
"70 103 CURVE SMOOTH",
"32 95 OFFCURVE",
"-15 43 OFFCURVE",
"-15 4 CURVE SMOOTH",
"-15 -29 OFFCURVE",
"17 -38 OFFCURVE",
"44 -38 CURVE SMOOTH",
"96 -38 OFFCURVE",
"163 -7 OFFCURVE",
"208 17 CURVE",
"368 -92 OFFCURVE",
"568 -232 OFFCURVE",
"771 -112 CURVE SMOOTH",
"827 -78 OFFCURVE",
"858 -4 OFFCURVE",
"816 -43 CURVE SMOOTH",
"742 -110 OFFCURVE",
"633 -120 OFFCURVE",
"540 -108 CURVE SMOOTH",
"432 -94 OFFCURVE",
"332 -17 OFFCURVE",
"245 32 CURVE",
"374 113 OFFCURVE",
"499 204 OFFCURVE",
"619 297 CURVE SMOOTH",
"704 363 OFFCURVE",
"789 429 OFFCURVE",
"880 486 CURVE",
"906 480 OFFCURVE",
"933 475 OFFCURVE",
"959 475 CURVE SMOOTH",
"1005 475 OFFCURVE",
"1046 497 OFFCURVE",
"1050 540 CURVE SMOOTH"
);
},
{
closed = 1;
nodes = (
"165 7 OFFCURVE",
"118 -11 OFFCURVE",
"78 -11 CURVE SMOOTH",
"59 -11 OFFCURVE",
"35 -9 OFFCURVE",
"35 17 CURVE SMOOTH",
"35 49 OFFCURVE",
"67 77 OFFCURVE",
"99 77 CURVE SMOOTH",
"136 77 OFFCURVE",
"171 48 OFFCURVE",
"199 28 CURVE"
);
},
{
closed = 1;
nodes = (
"1015 505 OFFCURVE",
"987 499 OFFCURVE",
"963 499 CURVE SMOOTH",
"946 499 OFFCURVE",
"929 502 OFFCURVE",
"913 506 CURVE",
"937 521 OFFCURVE",
"983 547 OFFCURVE",
"1012 547 CURVE SMOOTH",
"1021 547 OFFCURVE",
"1023 540 OFFCURVE",
"1021 531 CURVE SMOOTH"
);
}
);
width = 652;
}
);
note = Z.1;
unicode = 005A;
},
{
color = 9;
glyphname = bracketleft;
lastChange = "2021-06-09 05:02:54 +0000";
layers = (
{
hints = (
{
horizontal = 1;
place = "{-17, 22}";
type = Stem;
},
{
horizontal = 1;
place = "{687, 31}";
type = Stem;
},
{
place = "{48, 39}";
type = Stem;
}
);
layerId = "40AAE8A1-2E59-408F-988A-610CC450AA88";
paths = (
{
closed = 1;
nodes = (
"180 -85 LINE SMOOTH",
"221 -85 OFFCURVE",
"274 -76 OFFCURVE",
"274 -60 CURVE SMOOTH",
"274 -49 OFFCURVE",
"229 -48 OFFCURVE",
"212 -48 CURVE SMOOTH",
"63 -48 LINE",
"434 639 LINE",
"518 639 LINE SMOOTH",
"550 639 OFFCURVE",
"593 648 OFFCURVE",
"593 664 CURVE SMOOTH",
"593 675 OFFCURVE",
"557 676 OFFCURVE",
"543 676 CURVE SMOOTH",
"429 676 LINE SMOOTH",
"391 676 OFFCURVE",
"383 662 OFFCURVE",
"375 645 CURVE SMOOTH",
"256 407 OFFCURVE",
"93 111 OFFCURVE",
"16 -40 CURVE SMOOTH",
"8 -55 OFFCURVE",
"16 -85 OFFCURVE",
"36 -85 CURVE SMOOTH"
);
}
);
width = 585;
}
);
note = bracketleft;
unicode = 005B;
},
{
color = 9;
glyphname = backslash;
lastChange = "2021-06-09 05:02:54 +0000";
layers = (
{
hints = (
{
place = "{497, 26}";
type = Stem;
}
);
layerId = "40AAE8A1-2E59-408F-988A-610CC450AA88";
paths = (
{
closed = 1;
nodes = (
"449 98 OFFCURVE",
"269 444 OFFCURVE",
"149 638 CURVE SMOOTH",
"133 664 OFFCURVE",
"63 667 OFFCURVE",
"87 628 CURVE SMOOTH",
"530 -101 LINE",
"542 -114 OFFCURVE",
"589 -122 OFFCURVE",
"574 -99 CURVE SMOOTH"
);
}
);
width = 603;
}
);
note = backslash;
unicode = 005C;
},
{
color = 9;
glyphname = bracketright;
lastChange = "2021-06-09 05:02:54 +0000";
layers = (
{
hints = (
{
horizontal = 1;
place = "{-17, 25}";
type = Stem;
},
{
horizontal = 1;
place = "{688, 28}";
type = Stem;
},
{
place = "{498, 39}";
type = Stem;
}
);
layerId = "40AAE8A1-2E59-408F-988A-610CC450AA88";
paths = (
{
closed = 1;
nodes = (
"421 676 LINE SMOOTH",
"380 676 OFFCURVE",
"327 667 OFFCURVE",
"327 651 CURVE SMOOTH",
"327 640 OFFCURVE",
"372 639 OFFCURVE",
"389 639 CURVE SMOOTH",
"538 639 LINE",
"167 -48 LINE",
"83 -48 LINE SMOOTH",
"51 -48 OFFCURVE",
"8 -57 OFFCURVE",
"8 -73 CURVE SMOOTH",
"8 -84 OFFCURVE",
"44 -85 OFFCURVE",
"58 -85 CURVE SMOOTH",
"172 -85 LINE SMOOTH",
"210 -85 OFFCURVE",
"218 -71 OFFCURVE",
"226 -54 CURVE SMOOTH",
"345 184 OFFCURVE",
"508 480 OFFCURVE",
"585 631 CURVE SMOOTH",
"593 646 OFFCURVE",
"585 676 OFFCURVE",
"565 676 CURVE SMOOTH"
);
}
);
width = 556;
}
);
note = bracketright;
unicode = 005D;
},
{
color = 9;
glyphname = asciicircum;
lastChange = "2021-06-09 05:02:54 +0000";
layers = (
{
hints = (
{
horizontal = 1;
place = "{324, 127}";
type = Stem;
},
{
place = "{64, 272}";
type = Stem;
}
);
layerId = "40AAE8A1-2E59-408F-988A-610CC450AA88";
paths = (
{
closed = 1;
nodes = (
"336 331 LINE",
"331 341 LINE",
"287 374 OFFCURVE",
"243 408 OFFCURVE",
"206 449 CURVE",
"200 451 LINE",
"181 447 OFFCURVE",
"64 352 OFFCURVE",
"64 338 CURVE SMOOTH",
"64 334 OFFCURVE",
"68 328 OFFCURVE",
"72 328 CURVE SMOOTH",
"82 328 OFFCURVE",
"172 400 OFFCURVE",
"186 412 CURVE",
"208 389 OFFCURVE",
"301 326 OFFCURVE",
"332 324 CURVE"
);
}
);
width = 370;
}
);
note = asciicircum;
unicode = 005E;
},
{
color = 9;
glyphname = underscore;
lastChange = "2021-06-09 05:02:54 +0000";
layers = (
{
hints = (
{
horizontal = 1;
place = "{-60, 35}";
type = Stem;
}
);
layerId = "40AAE8A1-2E59-408F-988A-610CC450AA88";
paths = (
{
closed = 1;
nodes = (
"793 -53 LINE",
"791 -39 OFFCURVE",
"780 -25 OFFCURVE",
"765 -25 CURVE SMOOTH",
"25 -25 LINE SMOOTH",
"14 -25 OFFCURVE",
"8 -34 OFFCURVE",
"8 -44 CURVE SMOOTH",
"8 -53 OFFCURVE",
"13 -73 OFFCURVE",
"25 -73 CURVE SMOOTH",
"90 -73 OFFCURVE",
"154 -68 OFFCURVE",
"219 -67 CURVE SMOOTH",
"408 -62 OFFCURVE",
"597 -60 OFFCURVE",
"786 -60 CURVE"
);
}
);
width = 806;
}
);
note = underscore;
unicode = 005F;
},
{
color = 9;
glyphname = grave;
lastChange = "2021-06-09 05:02:54 +0000";
layers = (
{
hints = (
{
horizontal = 1;
place = "{327, 90}";
type = Stem;
},
{
place = "{34, 150}";
type = Stem;
}
);
layerId = "40AAE8A1-2E59-408F-988A-610CC450AA88";
paths = (
{
closed = 1;
nodes = (
"183 335 OFFCURVE",
"181 337 OFFCURVE",
"179 339 CURVE SMOOTH",
"150 363 OFFCURVE",
"100 389 OFFCURVE",
"67 411 CURVE",
"61 413 OFFCURVE",
"55 418 OFFCURVE",
"49 417 CURVE SMOOTH",
"42 416 OFFCURVE",
"34 401 OFFCURVE",
"34 395 CURVE SMOOTH",
"35 388 OFFCURVE",
"39 381 OFFCURVE",
"45 378 CURVE",
"59 368 OFFCURVE",
"170 326 OFFCURVE",
"177 327 CURVE SMOOTH",
"181 327 OFFCURVE",
"184 329 OFFCURVE",
"184 332 CURVE"
);
}
);
width = 221;
}
);
note = grave;
unicode = 0060;
},
{
color = 11;
glyphname = a;
lastChange = "2021-06-09 19:50:26 +0000";
layers = (
{
anchors = (
{
name = bottom;
position = "{46, -30}";
},
{
name = ogonek;
position = "{71, -8}";
},
{
name = top;
position = "{298, 331}";
}
);
hints = (
{
horizontal = 1;
place = "{-11, 29}";
type = Stem;
},
{
horizontal = 1;
place = "{252, 40}";
type = Stem;
},
{
place = "{25, 33}";
type = Stem;
},
{
place = "{153, 28}";
type = Stem;
}
);
layerId = "40AAE8A1-2E59-408F-988A-610CC450AA88";
paths = (
{
closed = 1;
nodes = (
"201 -133 OFFCURVE",
"211 -123 OFFCURVE",
"196 -122 CURVE SMOOTH",
"163 -119 OFFCURVE",
"190 -37 OFFCURVE",
"214 18 CURVE SMOOTH",
"237 70 OFFCURVE",
"279 149 OFFCURVE",
"301 171 CURVE",
"302 173 OFFCURVE",
"302 175 OFFCURVE",
"302 177 CURVE SMOOTH",
"302 191 OFFCURVE",
"285 218 OFFCURVE",
"270 218 CURVE SMOOTH",
"265 218 OFFCURVE",
"263 215 OFFCURVE",
"260 211 CURVE SMOOTH",
"250 197 OFFCURVE",
"242 182 OFFCURVE",
"231 168 CURVE SMOOTH",
"189 111 OFFCURVE",
"131 54 OFFCURVE",
"69 20 CURVE SMOOTH",
"67 19 OFFCURVE",
"64 18 OFFCURVE",
"62 18 CURVE SMOOTH",
"58 18 OFFCURVE",
"58 24 OFFCURVE",
"58 27 CURVE SMOOTH",
"58 38 OFFCURVE",
"62 49 OFFCURVE",
"66 58 CURVE SMOOTH",
"94 123 OFFCURVE",
"189 252 OFFCURVE",
"264 252 CURVE SMOOTH",
"298 252 OFFCURVE",
"312 216 OFFCURVE",
"319 216 CURVE SMOOTH",
"327 216 OFFCURVE",
"328 236 OFFCURVE",
"328 242 CURVE SMOOTH",
"328 275 OFFCURVE",
"303 292 OFFCURVE",
"267 292 CURVE SMOOTH",
"184 292 OFFCURVE",
"25 143 OFFCURVE",
"25 42 CURVE SMOOTH",
"25 13 OFFCURVE",
"44 -11 OFFCURVE",
"74 -11 CURVE SMOOTH",
"116 -11 OFFCURVE",
"204 124 OFFCURVE",
"241 155 CURVE",
"234 145 OFFCURVE",
"218 116 OFFCURVE",
"191 59 CURVE SMOOTH",
"179 34 OFFCURVE",
"112 -122 OFFCURVE",
"190 -132 CURVE SMOOTH"
);
}
);
width = 314;
}
);
note = a.1;
unicode = 0061;
},
{
color = 11;
glyphname = b;
lastChange = "2021-06-09 19:50:26 +0000";
layers = (
{
hints = (
{
horizontal = 1;
place = "{-34, 30}";
type = Stem;
},
{
horizontal = 1;
place = "{245, 54}";
type = Stem;
},
{
horizontal = 1;
place = "{726, 29}";
type = Stem;
},
{
place = "{32, 46}";
type = Stem;
},
{
place = "{329, 57}";
type = Stem;
}
);
layerId = "40AAE8A1-2E59-408F-988A-610CC450AA88";
paths = (
{
closed = 1;
nodes = (
"32 -29 OFFCURVE",
"74 -34 OFFCURVE",
"92 -34 CURVE SMOOTH",
"166 -34 OFFCURVE",
"257 26 OFFCURVE",
"303 82 CURVE SMOOTH",
"347 134 OFFCURVE",
"386 197 OFFCURVE",
"386 241 CURVE SMOOTH",
"386 253 OFFCURVE",
"385 264 OFFCURVE",
"378 275 CURVE SMOOTH",
"368 291 OFFCURVE",
"353 299 OFFCURVE",
"344 299 CURVE SMOOTH",
"320 299 OFFCURVE",
"191 178 OFFCURVE",
"105 109 CURVE",
"146 196 OFFCURVE",
"215 306 OFFCURVE",
"244 353 CURVE",
"530 419 OFFCURVE",
"840 641 OFFCURVE",
"795 708 CURVE",
"772 738 OFFCURVE",
"739 754 OFFCURVE",
"697 755 CURVE SMOOTH",
"674 756 OFFCURVE",
"648 752 OFFCURVE",
"620 743 CURVE SMOOTH",
"416 676 OFFCURVE",
"309 519 OFFCURVE",
"208 371 CURVE",
"184 364 OFFCURVE",
"113 330 OFFCURVE",
"192 344 CURVE",
"100 192 OFFCURVE",
"62 101 OFFCURVE",
"47 45 CURVE",
"39 29 OFFCURVE",
"32 11 OFFCURVE",
"32 -5 CURVE SMOOTH"
);
},
{
closed = 1;
nodes = (
"304 450 OFFCURVE",
"362 526 OFFCURVE",
"467 614 CURVE SMOOTH",
"507 648 OFFCURVE",
"583 694 OFFCURVE",
"642 713 CURVE SMOOTH",
"704 731 OFFCURVE",
"748 732 OFFCURVE",
"757 709 CURVE",
"787 614 OFFCURVE",
"421 418 OFFCURVE",
"260 377 CURVE"
);
},
{
closed = 1;
nodes = (
"246 74 OFFCURVE",
"181 -4 OFFCURVE",
"119 -4 CURVE SMOOTH",
"105 -4 OFFCURVE",
"78 0 OFFCURVE",
"78 18 CURVE SMOOTH",
"78 30 OFFCURVE",
"100 60 OFFCURVE",
"144 103 CURVE SMOOTH",
"171 130 OFFCURVE",
"280 245 OFFCURVE",
"319 245 CURVE SMOOTH",
"347 245 OFFCURVE",
"310 163 OFFCURVE",
"279 120 CURVE SMOOTH"
);
}
);
width = 331;
}
);
note = b.1;
unicode = 0062;
},
{
color = 11;
glyphname = c;
lastChange = "2021-06-09 19:50:26 +0000";
layers = (
{
anchors = (
{
name = bottom;
position = "{90, -35}";
},
{
name = top;
position = "{284, 338}";
}
);
hints = (
{
horizontal = 1;
place = "{-40, 24}";
type = Stem;
},
{
horizontal = 1;
place = "{280, 23}";
type = Stem;
},
{
place = "{25, 45}";
type = Stem;
},
{
place = "{283, 29}";
type = Stem;
}
);
layerId = "40AAE8A1-2E59-408F-988A-610CC450AA88";
paths = (
{
closed = 1;
nodes = (
"254 13 OFFCURVE",
"296 59 OFFCURVE",
"352 117 CURVE SMOOTH",
"376 141 OFFCURVE",
"396 163 OFFCURVE",
"397 168 CURVE SMOOTH",
"398 173 OFFCURVE",
"392 176 OFFCURVE",
"388 176 CURVE SMOOTH",
"385 176 OFFCURVE",
"383 175 OFFCURVE",
"381 173 CURVE SMOOTH",
"312 94 OFFCURVE",
"240 23 OFFCURVE",
"147 -9 CURVE SMOOTH",
"50 -42 OFFCURVE",
"61 43 OFFCURVE",
"93 98 CURVE SMOOTH",
"135 174 OFFCURVE",
"227 280 OFFCURVE",
"271 280 CURVE SMOOTH",
"311 280 OFFCURVE",
"240 169 OFFCURVE",
"202 127 CURVE SMOOTH",
"197 121 OFFCURVE",
"208 118 OFFCURVE",
"214 122 CURVE SMOOTH",
"289 167 OFFCURVE",
"357 303 OFFCURVE",
"275 303 CURVE SMOOTH",
"194 303 OFFCURVE",
"132 234 OFFCURVE",
"89 180 CURVE SMOOTH",
"42 121 OFFCURVE",
"12 41 OFFCURVE",
"30 -4 CURVE SMOOTH",
"44 -40 OFFCURVE",
"91 -55 OFFCURVE",
"170 -22 CURVE SMOOTH"
);
}
);
width = 296;
}
);
note = c.1;
unicode = 0063;
},
{
color = 11;
glyphname = d;
lastChange = "2021-06-09 19:50:26 +0000";
layers = (
{
anchors = (
{
name = bottom;
position = "{70, -124}";
},
{
name = center;
position = "{506, 572}";
},
{
name = top;
position = "{456, 772}";
},
{
name = topright;
position = "{895, 766}";
}
);
hints = (
{
horizontal = 1;
place = "{-110, 37}";
type = Stem;
},
{
horizontal = 1;
place = "{-8, 21}";
target = up;
type = BottomGhost;
},
{
horizontal = 1;
place = "{256, 50}";
type = Stem;
},
{
horizontal = 1;
place = "{746, 26}";
type = Stem;
},
{
place = "{28, 41}";
type = Stem;
},
{
place = "{145, 43}";
type = Stem;
},
{
horizontal = 1;
place = "{-9, 35}";
type = Stem;
}
);
layerId = "40AAE8A1-2E59-408F-988A-610CC450AA88";
paths = (
{
closed = 1;
nodes = (
"895 766 OFFCURVE",
"860 772 OFFCURVE",
"818 772 CURVE SMOOTH",
"634 772 OFFCURVE",
"427 476 OFFCURVE",
"297 260 CURVE",
"293 275 OFFCURVE",
"272 306 OFFCURVE",
"242 306 CURVE SMOOTH",
"164 306 OFFCURVE",
"28 123 OFFCURVE",
"28 46 CURVE SMOOTH",
"28 21 OFFCURVE",
"40 1 OFFCURVE",
"64 -8 CURVE",
"65 -8 OFFCURVE",
"67 -9 OFFCURVE",
"68 -9 CURVE SMOOTH",
"90 -9 OFFCURVE",
"157 54 OFFCURVE",
"212 110 CURVE",
"179 52 OFFCURVE",
"150 -9 OFFCURVE",
"145 -52 CURVE SMOOTH",
"142 -80 OFFCURVE",
"144 -110 OFFCURVE",
"176 -110 CURVE SMOOTH",
"184 -110 OFFCURVE",
"192 -108 OFFCURVE",
"199 -105 CURVE SMOOTH",
"246 -82 OFFCURVE",
"325 -11 OFFCURVE",
"380 51 CURVE SMOOTH",
"420 97 OFFCURVE",
"456 140 OFFCURVE",
"479 165 CURVE SMOOTH",
"482 168 OFFCURVE",
"484 171 OFFCURVE",
"484 176 CURVE SMOOTH",
"484 179 OFFCURVE",
"482 183 OFFCURVE",
"478 183 CURVE SMOOTH",
"474 183 OFFCURVE",
"471 179 OFFCURVE",
"469 177 CURVE SMOOTH",
"433 139 OFFCURVE",
"346 40 OFFCURVE",
"313 11 CURVE SMOOTH",
"263 -34 OFFCURVE",
"221 -71 OFFCURVE",
"203 -73 CURVE SMOOTH",
"147 -77 OFFCURVE",
"268 124 OFFCURVE",
"310 199 CURVE",
"476 317 OFFCURVE",
"651 429 OFFCURVE",
"793 562 CURVE SMOOTH",
"882 644 OFFCURVE",
"939 716 OFFCURVE",
"918 740 CURVE SMOOTH"
);
},
{
closed = 1;
nodes = (
"404 384 OFFCURVE",
"593 602 OFFCURVE",
"663 658 CURVE SMOOTH",
"804 771 OFFCURVE",
"863 751 OFFCURVE",
"872 729 CURVE SMOOTH",
"883 701 OFFCURVE",
"853 659 OFFCURVE",
"794 602 CURVE SMOOTH",
"672 484 OFFCURVE",
"421 297 OFFCURVE",
"321 232 CURVE"
);
},
{
closed = 1;
nodes = (
"224 151 OFFCURVE",
"155 90 OFFCURVE",
"87 31 CURVE SMOOTH",
"85 29 OFFCURVE",
"81 26 OFFCURVE",
"78 26 CURVE SMOOTH",
"70 26 OFFCURVE",
"69 40 OFFCURVE",
"69 45 CURVE SMOOTH",
"69 83 OFFCURVE",
"96 136 OFFCURVE",
"120 165 CURVE SMOOTH",
"143 193 OFFCURVE",
"198 256 OFFCURVE",
"239 256 CURVE SMOOTH",
"254 256 OFFCURVE",
"273 246 OFFCURVE",
"279 223 CURVE"
);
}
);
width = 380;
}
);
note = d.1;
unicode = 0064;
},
{
color = 11;
glyphname = e;
lastChange = "2021-06-09 19:50:26 +0000";
layers = (
{
anchors = (
{
name = bottom;
position = "{106, -58}";
},
{
name = ogonek;
position = "{102, -74}";
},
{
name = top;
position = "{283, 346}";
}
);
hints = (
{
horizontal = 1;
place = "{-80, 29}";
type = Stem;
},
{
horizontal = 1;
place = "{136, 19}";
type = Stem;
},
{
horizontal = 1;
place = "{258, 45}";
type = Stem;
},
{
place = "{16, 44}";
type = Stem;
},
{
place = "{209, 11}";
type = Stem;
},
{
place = "{268, 32}";
type = Stem;
}
);
layerId = "40AAE8A1-2E59-408F-988A-610CC450AA88";
paths = (
{
closed = 1;
nodes = (
"103 127 OFFCURVE",
"106 130 OFFCURVE",
"108 134 CURVE",
"220 135 LINE",
"212 122 LINE SMOOTH",
"208 116 OFFCURVE",
"206 108 OFFCURVE",
"212 108 CURVE SMOOTH",
"220 108 OFFCURVE",
"232 119 OFFCURVE",
"245 135 CURVE",
"322 136 LINE SMOOTH",
"346 136 OFFCURVE",
"376 142 OFFCURVE",
"372 152 CURVE",
"370 154 OFFCURVE",
"362 155 OFFCURVE",
"323 155 CURVE SMOOTH",
"260 155 LINE",
"281 186 OFFCURVE",
"300 224 OFFCURVE",
"300 237 CURVE SMOOTH",
"300 247 OFFCURVE",
"296 268 OFFCURVE",
"287 273 CURVE SMOOTH",
"274 280 OFFCURVE",
"281 303 OFFCURVE",
"255 303 CURVE SMOOTH",
"247 303 OFFCURVE",
"239 301 OFFCURVE",
"231 298 CURVE SMOOTH",
"176 279 OFFCURVE",
"94 205 OFFCURVE",
"53 133 CURVE SMOOTH",
"9 63 OFFCURVE",
"-18 -80 OFFCURVE",
"102 -80 CURVE SMOOTH",
"215 -80 OFFCURVE",
"313 -4 OFFCURVE",
"374 55 CURVE SMOOTH",
"397 77 OFFCURVE",
"414 98 OFFCURVE",
"430 117 CURVE SMOOTH",
"452 143 OFFCURVE",
"474 163 OFFCURVE",
"475 168 CURVE SMOOTH",
"476 173 OFFCURVE",
"470 176 OFFCURVE",
"466 176 CURVE SMOOTH",
"463 176 OFFCURVE",
"461 175 OFFCURVE",
"459 173 CURVE SMOOTH",
"432 142 OFFCURVE",
"404 110 OFFCURVE",
"373 80 CURVE SMOOTH",
"324 32 OFFCURVE",
"267 -11 OFFCURVE",
"193 -36 CURVE SMOOTH",
"128 -58 OFFCURVE",
"77 -59 OFFCURVE",
"64 -24 CURVE SMOOTH",
"49 14 OFFCURVE",
"77 91 OFFCURVE",
"101 124 CURVE SMOOTH"
);
},
{
closed = 1;
nodes = (
"264 258 OFFCURVE",
"268 255 OFFCURVE",
"268 249 CURVE SMOOTH",
"268 236 OFFCURVE",
"248 190 OFFCURVE",
"230 155 CURVE",
"125 155 LINE",
"171 208 OFFCURVE",
"228 258 OFFCURVE",
"259 258 CURVE SMOOTH"
);
}
);
width = 374;
}
);
note = e.1;
unicode = 0065;
},
{
color = 11;
glyphname = f;
lastChange = "2021-06-09 19:50:26 +0000";
layers = (
{
hints = (
{
horizontal = 1;
place = "{-489, 25}";
type = Stem;
},
{
horizontal = 1;
place = "{100, 24}";
type = Stem;
},
{
horizontal = 1;
place = "{584, 46}";
type = Stem;
},
{
place = "{-128, 42}";
type = Stem;
},
{
place = "{255, 44}";
type = Stem;
},
{
place = "{661, 25}";
type = Stem;
}
);
layerId = "40AAE8A1-2E59-408F-988A-610CC450AA88";
paths = (
{
closed = 1;
nodes = (
"35 4 OFFCURVE",
"-76 -168 OFFCURVE",
"-110 -281 CURVE SMOOTH",
"-152 -422 OFFCURVE",
"-120 -489 OFFCURVE",
"-53 -489 CURVE SMOOTH",
"55 -489 OFFCURVE",
"238 -299 OFFCURVE",
"284 -127 CURVE SMOOTH",
"321 12 OFFCURVE",
"291 128 OFFCURVE",
"155 124 CURVE",
"160 134 OFFCURVE",
"167 144 OFFCURVE",
"174 155 CURVE",
"199 162 OFFCURVE",
"233 170 OFFCURVE",
"245 173 CURVE SMOOTH",
"272 178 OFFCURVE",
"298 184 OFFCURVE",
"325 188 CURVE",
"328 189 OFFCURVE",
"347 190 OFFCURVE",
"347 196 CURVE SMOOTH",
"347 201 OFFCURVE",
"334 202 OFFCURVE",
"330 202 CURVE SMOOTH",
"299 202 OFFCURVE",
"238 194 OFFCURVE",
"201 192 CURVE",
"251 257 OFFCURVE",
"382 395 OFFCURVE",
"431 443 CURVE SMOOTH",
"471 483 OFFCURVE",
"580 584 OFFCURVE",
"639 584 CURVE SMOOTH",
"677 584 OFFCURVE",
"657 556 OFFCURVE",
"644 543 CURVE SMOOTH",
"574 472 OFFCURVE",
"473 367 OFFCURVE",
"507 314 CURVE SMOOTH",
"514 302 OFFCURVE",
"513 314 OFFCURVE",
"514 320 CURVE SMOOTH",
"534 428 OFFCURVE",
"686 456 OFFCURVE",
"686 559 CURVE SMOOTH",
"686 591 OFFCURVE",
"672 630 OFFCURVE",
"636 630 CURVE SMOOTH",
"483 630 OFFCURVE",
"258 317 OFFCURVE",
"181 209 CURVE SMOOTH",
"166 189 LINE",
"138 186 OFFCURVE",
"102 183 OFFCURVE",
"81 180 CURVE SMOOTH",
"63 178 OFFCURVE",
"55 157 OFFCURVE",
"55 140 CURVE SMOOTH",
"55 133 OFFCURVE",
"56 125 OFFCURVE",
"63 122 CURVE",
"77 122 OFFCURVE",
"110 134 OFFCURVE",
"133 142 CURVE"
);
},
{
closed = 1;
nodes = (
"255 94 OFFCURVE",
"272 -15 OFFCURVE",
"243 -128 CURVE SMOOTH",
"212 -249 OFFCURVE",
"57 -464 OFFCURVE",
"-41 -464 CURVE SMOOTH",
"-170 -464 OFFCURVE",
"5 -88 OFFCURVE",
"149 100 CURVE"
);
}
);
width = 320;
}
);
note = f.1;
unicode = 0066;
},
{
color = 11;
glyphname = g;
lastChange = "2021-06-09 19:50:26 +0000";
layers = (
{
anchors = (
{
name = bottom;
position = "{146, -565}";
},
{
name = top;
position = "{308, 322}";
}
);
hints = (
{
horizontal = 1;
place = "{-343, 40}";
type = Stem;
},
{
horizontal = 1;
place = "{-138, 26}";
type = Stem;
},
{
horizontal = 1;
place = "{-8, 17}";
type = Stem;
},
{
horizontal = 1;
place = "{238, 51}";
type = Stem;
},
{
place = "{26, 35}";
type = Stem;
},
{
place = "{229, 61}";
type = Stem;
}
);
layerId = "40AAE8A1-2E59-408F-988A-610CC450AA88";
paths = (
{
closed = 1;
nodes = (
"263 -181 OFFCURVE",
"293 -182 OFFCURVE",
"245 -160 CURVE SMOOTH",
"226 -151 OFFCURVE",
"198 -143 OFFCURVE",
"166 -136 CURVE",
"198 -90 OFFCURVE",
"223 -42 OFFCURVE",
"243 3 CURVE SMOOTH",
"286 99 OFFCURVE",
"290 160 OFFCURVE",
"290 195 CURVE SMOOTH",
"290 205 OFFCURVE",
"280 209 OFFCURVE",
"272 209 CURVE SMOOTH",
"260 209 OFFCURVE",
"250 202 OFFCURVE",
"246 190 CURVE",
"242 184 LINE SMOOTH",
"207 131 OFFCURVE",
"134 35 OFFCURVE",
"76 11 CURVE SMOOTH",
"73 10 OFFCURVE",
"71 9 OFFCURVE",
"68 9 CURVE SMOOTH",
"62 9 OFFCURVE",
"61 14 OFFCURVE",
"61 19 CURVE SMOOTH",
"61 29 OFFCURVE",
"65 42 OFFCURVE",
"69 52 CURVE SMOOTH",
"82 87 OFFCURVE",
"107 127 OFFCURVE",
"133 154 CURVE SMOOTH",
"162 184 OFFCURVE",
"220 238 OFFCURVE",
"265 238 CURVE SMOOTH",
"295 238 OFFCURVE",
"292 216 OFFCURVE",
"307 216 CURVE SMOOTH",
"318 216 OFFCURVE",
"322 229 OFFCURVE",
"322 238 CURVE SMOOTH",
"322 267 OFFCURVE",
"295 289 OFFCURVE",
"267 289 CURVE SMOOTH",
"178 289 OFFCURVE",
"26 138 OFFCURVE",
"26 45 CURVE SMOOTH",
"26 22 OFFCURVE",
"39 -8 OFFCURVE",
"65 -8 CURVE SMOOTH",
"114 -8 OFFCURVE",
"198 89 OFFCURVE",
"229 125 CURVE",
"223 37 OFFCURVE",
"189 -50 OFFCURVE",
"137 -130 CURVE",
"69 -118 OFFCURVE",
"-16 -111 OFFCURVE",
"-97 -112 CURVE SMOOTH",
"-192 -114 OFFCURVE",
"-293 -129 OFFCURVE",
"-335 -144 CURVE SMOOTH",
"-361 -152 OFFCURVE",
"-396 -199 OFFCURVE",
"-388 -219 CURVE SMOOTH",
"-353 -306 OFFCURVE",
"-245 -347 OFFCURVE",
"-170 -343 CURVE SMOOTH",
"-28 -337 OFFCURVE",
"77 -254 OFFCURVE",
"151 -156 CURVE",
"179 -161 OFFCURVE",
"205 -166 OFFCURVE",
"227 -172 CURVE SMOOTH"
);
},
{
closed = 1;
nodes = (
"-255 -310 OFFCURVE",
"-339 -271 OFFCURVE",
"-353 -233 CURVE SMOOTH",
"-360 -216 OFFCURVE",
"-360 -188 OFFCURVE",
"-337 -179 CURVE",
"-231 -128 OFFCURVE",
"-27 -131 OFFCURVE",
"123 -152 CURVE",
"71 -228 OFFCURVE",
"9 -291 OFFCURVE",
"-161 -303 CURVE SMOOTH"
);
}
);
width = 292;
}
);
note = g.1;
unicode = 0067;
},
{
color = 11;
glyphname = h;
lastChange = "2021-06-09 19:50:26 +0000";
layers = (
{
anchors = (
{
name = bottom;
position = "{53, -80}";
},
{
name = center;
position = "{365, 614}";
},
{
name = top;
position = "{739, 834}";
}
);
hints = (
{
horizontal = 1;
place = "{-110, 37}";
type = Stem;
},
{
horizontal = 1;
place = "{-3, 21}";
target = up;
type = BottomGhost;
},
{
horizontal = 1;
place = "{343, 27}";
type = Stem;
},
{
horizontal = 1;
place = "{781, 29}";
type = Stem;
},
{
place = "{27, 42}";
type = Stem;
},
{
place = "{112, 48}";
type = Stem;
}
);
layerId = "40AAE8A1-2E59-408F-988A-610CC450AA88";
paths = (
{
closed = 1;
nodes = (
"225 185 OFFCURVE",
"121 16 OFFCURVE",
"112 -52 CURVE SMOOTH",
"109 -80 OFFCURVE",
"111 -110 OFFCURVE",
"143 -110 CURVE SMOOTH",
"151 -110 OFFCURVE",
"159 -108 OFFCURVE",
"166 -105 CURVE SMOOTH",
"213 -82 OFFCURVE",
"292 -11 OFFCURVE",
"347 51 CURVE SMOOTH",
"387 97 OFFCURVE",
"423 140 OFFCURVE",
"446 165 CURVE SMOOTH",
"449 168 OFFCURVE",
"451 171 OFFCURVE",
"451 176 CURVE SMOOTH",
"451 179 OFFCURVE",
"449 183 OFFCURVE",
"445 183 CURVE SMOOTH",
"441 183 OFFCURVE",
"438 179 OFFCURVE",
"436 177 CURVE SMOOTH",
"400 139 OFFCURVE",
"313 40 OFFCURVE",
"280 11 CURVE SMOOTH",
"230 -34 OFFCURVE",
"188 -71 OFFCURVE",
"170 -73 CURVE SMOOTH",
"147 -75 OFFCURVE",
"161 -20 OFFCURVE",
"231 88 CURVE",
"265 147 OFFCURVE",
"302 205 OFFCURVE",
"331 250 CURVE",
"365 280 OFFCURVE",
"328 302 OFFCURVE",
"303 299 CURVE SMOOTH",
"296 298 OFFCURVE",
"285 296 OFFCURVE",
"279 290 CURVE SMOOTH",
"237 247 OFFCURVE",
"150 178 OFFCURVE",
"95 127 CURVE",
"120 176 OFFCURVE",
"178 276 OFFCURVE",
"237 352 CURVE",
"524 415 OFFCURVE",
"865 696 OFFCURVE",
"820 763 CURVE",
"785 809 OFFCURVE",
"725 823 OFFCURVE",
"645 798 CURVE SMOOTH",
"441 731 OFFCURVE",
"299 540 OFFCURVE",
"201 370 CURVE",
"172 363 OFFCURVE",
"141 357 OFFCURVE",
"106 361 CURVE SMOOTH",
"71 364 OFFCURVE",
"64 382 OFFCURVE",
"69 399 CURVE SMOOTH",
"75 418 OFFCURVE",
"103 445 OFFCURVE",
"133 457 CURVE SMOOTH",
"148 464 OFFCURVE",
"143 465 OFFCURVE",
"130 464 CURVE SMOOTH",
"107 460 OFFCURVE",
"50 436 OFFCURVE",
"30 392 CURVE SMOOTH",
"19 368 OFFCURVE",
"32 346 OFFCURVE",
"110 340 CURVE SMOOTH",
"133 338 OFFCURVE",
"157 340 OFFCURVE",
"182 343 CURVE",
"132 269 OFFCURVE",
"97 200 OFFCURVE",
"84 175 CURVE SMOOTH",
"26 67 OFFCURVE",
"5 43 OFFCURVE",
"-7 13 CURVE",
"-10 0 OFFCURVE",
"12 -3 OFFCURVE",
"20 -3 CURVE SMOOTH",
"23 -3 OFFCURVE",
"29 -3 OFFCURVE",
"31 -1 CURVE",
"74 66 OFFCURVE",
"119 122 OFFCURVE",
"194 187 CURVE SMOOTH",
"206 198 OFFCURVE",
"255 230 OFFCURVE",
"278 247 CURVE"
);
},
{
closed = 1;
nodes = (
"296 466 OFFCURVE",
"387 581 OFFCURVE",
"492 669 CURVE SMOOTH",
"532 703 OFFCURVE",
"608 749 OFFCURVE",
"667 768 CURVE SMOOTH",
"729 786 OFFCURVE",
"773 787 OFFCURVE",
"782 764 CURVE",
"812 669 OFFCURVE",
"414 417 OFFCURVE",
"253 376 CURVE"
);
}
);
width = 347;
}
);
note = h.1;
unicode = 0068;
},
{
color = 11;
glyphname = i;
lastChange = "2021-06-09 19:50:26 +0000";
layers = (
{
hints = (
{
horizontal = 1;
place = "{-31, 34}";
type = Stem;
},
{
horizontal = 1;
place = "{510, 63}";
type = Stem;
},
{
place = "{64, 36}";
type = Stem;
}
);
layerId = "40AAE8A1-2E59-408F-988A-610CC450AA88";
paths = (
{
closed = 1;
nodes = (
"301 168 OFFCURVE",
"300 171 OFFCURVE",
"296 171 CURVE SMOOTH",
"291 171 OFFCURVE",
"286 164 OFFCURVE",
"283 161 CURVE SMOOTH",
"250 122 OFFCURVE",
"212 87 OFFCURVE",
"173 54 CURVE SMOOTH",
"163 46 OFFCURVE",
"115 3 OFFCURVE",
"104 3 CURVE SMOOTH",
"101 3 OFFCURVE",
"100 6 OFFCURVE",
"100 9 CURVE SMOOTH",
"100 52 OFFCURVE",
"254 265 OFFCURVE",
"254 274 CURVE SMOOTH",
"254 284 OFFCURVE",
"229 295 OFFCURVE",
"220 295 CURVE SMOOTH",
"201 295 OFFCURVE",
"184 281 OFFCURVE",
"173 266 CURVE SMOOTH",
"140 223 OFFCURVE",
"100 187 OFFCURVE",
"64 147 CURVE SMOOTH",
"62 145 OFFCURVE",
"61 142 OFFCURVE",
"61 139 CURVE SMOOTH",
"61 135 OFFCURVE",
"65 135 OFFCURVE",
"68 135 CURVE SMOOTH",
"72 135 OFFCURVE",
"77 140 OFFCURVE",
"79 142 CURVE SMOOTH",
"104 166 OFFCURVE",
"128 190 OFFCURVE",
"154 213 CURVE",
"126 169 OFFCURVE",
"73 60 OFFCURVE",
"64 10 CURVE",
"68 -10 OFFCURVE",
"89 -31 OFFCURVE",
"110 -31 CURVE SMOOTH",
"121 -31 OFFCURVE",
"130 -26 OFFCURVE",
"137 -18 CURVE SMOOTH",
"169 18 OFFCURVE",
"202 54 OFFCURVE",
"237 89 CURVE SMOOTH",
"256 109 OFFCURVE",
"279 129 OFFCURVE",
"296 151 CURVE SMOOTH",
"299 155 OFFCURVE",
"301 160 OFFCURVE",
"301 165 CURVE SMOOTH"
);
},
{
closed = 1;
nodes = (
"408 577 OFFCURVE",
"397 578 OFFCURVE",
"377 573 CURVE SMOOTH",
"324 560 OFFCURVE",
"309 510 OFFCURVE",
"349 510 CURVE SMOOTH",
"356 510 OFFCURVE",
"364 511 OFFCURVE",
"371 513 CURVE SMOOTH",
"398 520 OFFCURVE",
"414 555 OFFCURVE",
"420 581 CURVE"
);
}
);
width = 209;
}
);
note = i.1;
unicode = 0069;
},
{
color = 11;
glyphname = j;
lastChange = "2021-06-09 19:50:26 +0000";
layers = (
{
hints = (
{
horizontal = 1;
place = "{-343, 40}";
type = Stem;
},
{
horizontal = 1;
place = "{-138, 26}";
type = Stem;
},
{
place = "{150, 57}";
type = Stem;
},
{
horizontal = 1;
place = "{-157, 21}";
type = Stem;
},
{
horizontal = 1;
place = "{367, 63}";
type = Stem;
}
);
layerId = "40AAE8A1-2E59-408F-988A-610CC450AA88";
paths = (
{
closed = 1;
nodes = (
"-19 -118 OFFCURVE",
"-104 -111 OFFCURVE",
"-185 -112 CURVE SMOOTH",
"-280 -114 OFFCURVE",
"-381 -129 OFFCURVE",
"-423 -144 CURVE SMOOTH",
"-449 -152 OFFCURVE",
"-484 -199 OFFCURVE",
"-476 -219 CURVE SMOOTH",
"-441 -306 OFFCURVE",
"-333 -347 OFFCURVE",
"-258 -343 CURVE SMOOTH",
"-116 -337 OFFCURVE",
"-10 -255 OFFCURVE",
"63 -157 CURVE",
"91 -161 OFFCURVE",
"117 -166 OFFCURVE",
"139 -172 CURVE SMOOTH",
"175 -181 OFFCURVE",
"205 -182 OFFCURVE",
"157 -160 CURVE SMOOTH",
"138 -151 OFFCURVE",
"111 -143 OFFCURVE",
"78 -136 CURVE",
"156 -21 OFFCURVE",
"207 110 OFFCURVE",
"207 239 CURVE SMOOTH",
"207 260 OFFCURVE",
"203 263 OFFCURVE",
"184 267 CURVE",
"181 267 OFFCURVE",
"179 268 OFFCURVE",
"176 268 CURVE SMOOTH",
"151 268 OFFCURVE",
"136 225 OFFCURVE",
"136 205 CURVE SMOOTH",
"136 194 OFFCURVE",
"144 183 OFFCURVE",
"150 174 CURVE",
"142 63 OFFCURVE",
"104 -43 OFFCURVE",
"49 -130 CURVE"
);
},
{
closed = 1;
nodes = (
"-343 -310 OFFCURVE",
"-427 -271 OFFCURVE",
"-441 -233 CURVE SMOOTH",
"-448 -216 OFFCURVE",
"-448 -188 OFFCURVE",
"-425 -179 CURVE",
"-319 -128 OFFCURVE",
"-115 -131 OFFCURVE",
"35 -152 CURVE",
"-16 -228 OFFCURVE",
"-78 -291 OFFCURVE",
"-249 -303 CURVE SMOOTH"
);
},
{
closed = 1;
nodes = (
"264 434 OFFCURVE",
"253 435 OFFCURVE",
"233 430 CURVE SMOOTH",
"180 417 OFFCURVE",
"165 367 OFFCURVE",
"205 367 CURVE SMOOTH",
"212 367 OFFCURVE",
"220 368 OFFCURVE",
"227 370 CURVE SMOOTH",
"254 377 OFFCURVE",
"270 412 OFFCURVE",
"276 438 CURVE"
);
}
);
width = 219;
}
);
note = j.1;
unicode = 006A;
},
{
color = 11;
glyphname = k;
lastChange = "2021-06-09 19:50:26 +0000";
layers = (
{
hints = (
{
horizontal = 1;
place = "{-101, 32}";
type = Stem;
},
{
horizontal = 1;
place = "{-12, 21}";
target = up;
type = BottomGhost;
},
{
horizontal = 1;
place = "{165, 33}";
type = Stem;
},
{
horizontal = 1;
place = "{334, 23}";
type = Stem;
},
{
horizontal = 1;
place = "{776, 33}";
type = Stem;
},
{
place = "{164, 40}";
type = Stem;
},
{
place = "{785, 45}";
type = Stem;
},
{
horizontal = 1;
place = "{302, 42}";
type = Stem;
},
{
place = "{395, 56}";
type = Stem;
},
{
place = "{108, 31}";
type = Stem;
}
);
layerId = "40AAE8A1-2E59-408F-988A-610CC450AA88";
paths = (
{
closed = 1;
nodes = (
"105 211 OFFCURVE",
"79 183 OFFCURVE",
"112 165 CURVE",
"94 133 OFFCURVE",
"70 81 OFFCURVE",
"52 49 CURVE",
"29 28 OFFCURVE",
"17 -12 OFFCURVE",
"51 -12 CURVE SMOOTH",
"57 -12 OFFCURVE",
"65 -12 OFFCURVE",
"69 -6 CURVE SMOOTH",
"90 28 OFFCURVE",
"119 97 OFFCURVE",
"142 143 CURVE",
"147 149 OFFCURVE",
"180 168 OFFCURVE",
"201 180 CURVE",
"167 84 OFFCURVE",
"121 -101 OFFCURVE",
"245 -101 CURVE SMOOTH",
"252 -101 OFFCURVE",
"259 -99 OFFCURVE",
"265 -96 CURVE SMOOTH",
"305 -75 OFFCURVE",
"366 -11 OFFCURVE",
"421 51 CURVE SMOOTH",
"461 97 OFFCURVE",
"497 140 OFFCURVE",
"520 165 CURVE SMOOTH",
"523 168 OFFCURVE",
"525 171 OFFCURVE",
"525 176 CURVE SMOOTH",
"525 179 OFFCURVE",
"523 183 OFFCURVE",
"519 183 CURVE SMOOTH",
"515 183 OFFCURVE",
"512 179 OFFCURVE",
"510 177 CURVE SMOOTH",
"474 139 OFFCURVE",
"387 45 OFFCURVE",
"354 16 CURVE SMOOTH",
"333 -3 OFFCURVE",
"268 -69 OFFCURVE",
"238 -69 CURVE SMOOTH",
"172 -69 OFFCURVE",
"218 121 OFFCURVE",
"248 194 CURVE",
"304 204 OFFCURVE",
"366 225 OFFCURVE",
"410 254 CURVE SMOOTH",
"425 264 OFFCURVE",
"451 284 OFFCURVE",
"451 304 CURVE SMOOTH",
"451 320 OFFCURVE",
"435 329 OFFCURVE",
"422 333 CURVE",
"416 341 OFFCURVE",
"405 344 OFFCURVE",
"395 344 CURVE SMOOTH",
"378 344 OFFCURVE",
"362 335 OFFCURVE",
"348 326 CURVE SMOOTH",
"297 291 OFFCURVE",
"240 247 OFFCURVE",
"193 207 CURVE SMOOTH",
"180 196 OFFCURVE",
"174 192 OFFCURVE",
"170 196 CURVE",
"197 242 OFFCURVE",
"232 296 OFFCURVE",
"267 343 CURVE",
"490 403 OFFCURVE",
"717 570 OFFCURVE",
"797 678 CURVE SMOOTH",
"876 785 OFFCURVE",
"801 832 OFFCURVE",
"696 798 CURVE SMOOTH",
"487 730 OFFCURVE",
"336 533 OFFCURVE",
"229 361 CURVE",
"203 356 OFFCURVE",
"139 347 OFFCURVE",
"139 390 CURVE SMOOTH",
"139 408 OFFCURVE",
"157 439 OFFCURVE",
"179 456 CURVE SMOOTH",
"190 464 OFFCURVE",
"185 464 OFFCURVE",
"175 461 CURVE SMOOTH",
"156 454 OFFCURVE",
"114 421 OFFCURVE",
"108 376 CURVE SMOOTH",
"100 330 OFFCURVE",
"174 329 OFFCURVE",
"213 334 CURVE",
"185 292 OFFCURVE",
"142 220 OFFCURVE",
"126 191 CURVE"
);
},
{
closed = 1;
nodes = (
"330 459 OFFCURVE",
"426 576 OFFCURVE",
"536 666 CURVE SMOOTH",
"577 701 OFFCURVE",
"656 749 OFFCURVE",
"716 769 CURVE SMOOTH",
"786 793 OFFCURVE",
"799 751 OFFCURVE",
"772 706 CURVE SMOOTH",
"705 591 OFFCURVE",
"419 406 OFFCURVE",
"282 368 CURVE"
);
},
{
closed = 1;
nodes = (
"388 261 OFFCURVE",
"279 224 OFFCURVE",
"249 219 CURVE",
"270 236 OFFCURVE",
"364 302 OFFCURVE",
"384 302 CURVE SMOOTH",
"388 302 OFFCURVE",
"393 300 OFFCURVE",
"395 295 CURVE"
);
}
);
width = 421;
}
);
note = k.1;
unicode = 006B;
},
{
color = 11;
glyphname = l;
lastChange = "2021-06-09 19:50:26 +0000";
layers = (
{
anchors = (
{
name = bottom;
position = "{49, -65}";
},
{
name = center;
position = "{100, 425}";
},
{
name = top;
position = "{100, 850}";
},
{
name = topright;
position = "{753, 811}";
}
);
hints = (
{
horizontal = 1;
place = "{-12, 37}";
type = Stem;
},
{
horizontal = 1;
place = "{334, 24}";
type = Stem;
},
{
horizontal = 1;
place = "{776, 33}";
type = Stem;
},
{
place = "{49, 50}";
type = Stem;
},
{
place = "{732, 45}";
type = Stem;
},
{
place = "{55, 31}";
type = Stem;
}
);
layerId = "40AAE8A1-2E59-408F-988A-610CC450AA88";
paths = (
{
closed = 1;
nodes = (
"434 730 OFFCURVE",
"283 533 OFFCURVE",
"176 361 CURVE",
"150 358 OFFCURVE",
"86 347 OFFCURVE",
"86 390 CURVE SMOOTH",
"86 408 OFFCURVE",
"104 439 OFFCURVE",
"126 456 CURVE SMOOTH",
"137 464 OFFCURVE",
"132 464 OFFCURVE",
"122 461 CURVE SMOOTH",
"103 454 OFFCURVE",
"61 421 OFFCURVE",
"55 376 CURVE SMOOTH",
"47 327 OFFCURVE",
"132 330 OFFCURVE",
"159 334 CURVE",
"79 218 OFFCURVE",
"49 79 OFFCURVE",
"49 45 CURVE SMOOTH",
"49 36 OFFCURVE",
"50 29 OFFCURVE",
"55 21 CURVE SMOOTH",
"67 1 OFFCURVE",
"85 -12 OFFCURVE",
"108 -12 CURVE SMOOTH",
"115 -12 OFFCURVE",
"122 -10 OFFCURVE",
"128 -7 CURVE SMOOTH",
"162 11 OFFCURVE",
"181 28 OFFCURVE",
"210 56 CURVE SMOOTH",
"241 86 OFFCURVE",
"269 120 OFFCURVE",
"296 150 CURVE SMOOTH",
"299 153 OFFCURVE",
"301 156 OFFCURVE",
"301 161 CURVE SMOOTH",
"301 164 OFFCURVE",
"299 168 OFFCURVE",
"295 168 CURVE SMOOTH",
"291 168 OFFCURVE",
"288 165 OFFCURVE",
"286 163 CURVE SMOOTH",
"250 125 OFFCURVE",
"227 98 OFFCURVE",
"193 70 CURVE SMOOTH",
"171 52 OFFCURVE",
"99 -17 OFFCURVE",
"99 63 CURVE SMOOTH",
"99 122 OFFCURVE",
"137 233 OFFCURVE",
"212 343 CURVE",
"429 397 OFFCURVE",
"662 568 OFFCURVE",
"744 678 CURVE SMOOTH",
"823 785 OFFCURVE",
"748 832 OFFCURVE",
"643 798 CURVE SMOOTH"
);
},
{
closed = 1;
nodes = (
"277 459 OFFCURVE",
"373 576 OFFCURVE",
"483 666 CURVE SMOOTH",
"524 701 OFFCURVE",
"603 749 OFFCURVE",
"663 769 CURVE SMOOTH",
"733 793 OFFCURVE",
"746 751 OFFCURVE",
"719 706 CURVE SMOOTH",
"652 591 OFFCURVE",
"366 406 OFFCURVE",
"229 368 CURVE"
);
}
);
width = 200;
}
);
note = l.1;
unicode = 006C;
},
{
color = 11;
glyphname = m;
lastChange = "2021-06-09 19:50:26 +0000";
layers = (
{
hints = (
{
horizontal = 1;
place = "{-110, 37}";
type = Stem;
},
{
horizontal = 1;
place = "{-2, 21}";
target = up;
type = BottomGhost;
},
{
horizontal = 1;
place = "{258, 37}";
type = Stem;
},
{
place = "{347, 48}";
type = Stem;
},
{
place = "{339, 59}";
type = Stem;
},
{
horizontal = 1;
place = "{-6, 21}";
target = up;
type = BottomGhost;
}
);
layerId = "40AAE8A1-2E59-408F-988A-610CC450AA88";
paths = (
{
closed = 1;
nodes = (
"526 247 LINE SMOOTH",
"473 185 OFFCURVE",
"356 16 OFFCURVE",
"347 -52 CURVE SMOOTH",
"344 -80 OFFCURVE",
"346 -110 OFFCURVE",
"378 -110 CURVE SMOOTH",
"386 -110 OFFCURVE",
"394 -108 OFFCURVE",
"401 -105 CURVE SMOOTH",
"448 -82 OFFCURVE",
"527 -11 OFFCURVE",
"582 51 CURVE SMOOTH",
"622 97 OFFCURVE",
"658 140 OFFCURVE",
"681 165 CURVE SMOOTH",
"684 168 OFFCURVE",
"686 171 OFFCURVE",
"686 176 CURVE SMOOTH",
"686 179 OFFCURVE",
"684 183 OFFCURVE",
"680 183 CURVE SMOOTH",
"676 183 OFFCURVE",
"673 179 OFFCURVE",
"671 177 CURVE SMOOTH",
"635 139 OFFCURVE",
"548 40 OFFCURVE",
"515 11 CURVE SMOOTH",
"465 -34 OFFCURVE",
"423 -71 OFFCURVE",
"405 -73 CURVE SMOOTH",
"382 -75 OFFCURVE",
"396 -20 OFFCURVE",
"466 88 CURVE SMOOTH",
"503 145 OFFCURVE",
"550 204 OFFCURVE",
"582 245 CURVE",
"588 250 OFFCURVE",
"595 258 OFFCURVE",
"595 266 CURVE SMOOTH",
"595 287 OFFCURVE",
"551 295 OFFCURVE",
"534 295 CURVE SMOOTH",
"525 295 OFFCURVE",
"517 293 OFFCURVE",
"510 288 CURVE SMOOTH",
"453 250 OFFCURVE",
"398 196 OFFCURVE",
"337 142 CURVE",
"344 157 OFFCURVE",
"361 183 OFFCURVE",
"375 207 CURVE SMOOTH",
"384 222 OFFCURVE",
"398 239 OFFCURVE",
"398 257 CURVE SMOOTH",
"398 273 OFFCURVE",
"387 284 OFFCURVE",
"371 284 CURVE SMOOTH",
"356 284 OFFCURVE",
"343 276 OFFCURVE",
"332 267 CURVE SMOOTH",
"258 205 OFFCURVE",
"177 125 OFFCURVE",
"107 58 CURVE",
"104 56 OFFCURVE",
"140 116 OFFCURVE",
"142 120 CURVE SMOOTH",
"183 182 OFFCURVE",
"228 249 OFFCURVE",
"288 299 CURVE",
"290 300 OFFCURVE",
"290 302 OFFCURVE",
"290 304 CURVE SMOOTH",
"290 319 OFFCURVE",
"269 331 OFFCURVE",
"257 331 CURVE SMOOTH",
"235 331 OFFCURVE",
"213 310 OFFCURVE",
"184 280 CURVE SMOOTH",
"173 267 OFFCURVE",
"53 146 OFFCURVE",
"49 130 CURVE SMOOTH",
"48 127 OFFCURVE",
"52 122 OFFCURVE",
"55 122 CURVE SMOOTH",
"63 123 OFFCURVE",
"72 134 OFFCURVE",
"75 137 CURVE SMOOTH",
"116 188 OFFCURVE",
"145 211 OFFCURVE",
"186 247 CURVE",
"161 209 OFFCURVE",
"56 55 OFFCURVE",
"56 16 CURVE SMOOTH",
"56 3 OFFCURVE",
"75 -2 OFFCURVE",
"83 -2 CURVE SMOOTH",
"91 -2 OFFCURVE",
"102 1 OFFCURVE",
"107 7 CURVE SMOOTH",
"118 19 OFFCURVE",
"128 32 OFFCURVE",
"138 44 CURVE SMOOTH",
"187 102 OFFCURVE",
"248 175 OFFCURVE",
"313 219 CURVE SMOOTH",
"314 220 OFFCURVE",
"339 233 OFFCURVE",
"339 230 CURVE SMOOTH",
"339 215 OFFCURVE",
"298 159 OFFCURVE",
"272 116 CURVE SMOOTH",
"245 71 OFFCURVE",
"215 30 OFFCURVE",
"215 11 CURVE SMOOTH",
"215 1 OFFCURVE",
"224 -6 OFFCURVE",
"233 -6 CURVE SMOOTH",
"250 -6 OFFCURVE",
"264 12 OFFCURVE",
"274 26 CURVE SMOOTH",
"290 50 OFFCURVE",
"306 73 OFFCURVE",
"325 95 CURVE SMOOTH",
"364 142 OFFCURVE",
"483 238 OFFCURVE",
"498 246 CURVE SMOOTH",
"513 254 OFFCURVE",
"525 257 OFFCURVE",
"536 258 CURVE"
);
}
);
width = 582;
}
);
note = m.1;
unicode = 006D;
},
{
color = 11;
glyphname = n;
lastChange = "2021-06-09 19:50:26 +0000";
layers = (
{
anchors = (
{
name = bottom;
position = "{48, -71}";
},
{
name = top;
position = "{371, 348}";
}
);
hints = (
{
horizontal = 1;
place = "{-110, 37}";
type = Stem;
},
{
horizontal = 1;
place = "{-17, 21}";
target = up;
type = BottomGhost;
},
{
place = "{166, 48}";
type = Stem;
}
);
layerId = "40AAE8A1-2E59-408F-988A-610CC450AA88";
paths = (
{
closed = 1;
nodes = (
"173 164 OFFCURVE",
"230 248 OFFCURVE",
"290 298 CURVE",
"292 299 OFFCURVE",
"292 301 OFFCURVE",
"292 303 CURVE SMOOTH",
"292 318 OFFCURVE",
"269 331 OFFCURVE",
"257 331 CURVE SMOOTH",
"235 331 OFFCURVE",
"221 319 OFFCURVE",
"208 302 CURVE SMOOTH",
"189 277 OFFCURVE",
"53 148 OFFCURVE",
"53 132 CURVE SMOOTH",
"53 129 OFFCURVE",
"55 127 OFFCURVE",
"58 127 CURVE SMOOTH",
"63 127 OFFCURVE",
"72 134 OFFCURVE",
"75 137 CURVE SMOOTH",
"99 162 OFFCURVE",
"122 188 OFFCURVE",
"148 212 CURVE SMOOTH",
"155 218 OFFCURVE",
"184 242 OFFCURVE",
"189 248 CURVE",
"164 210 OFFCURVE",
"43 36 OFFCURVE",
"43 -3 CURVE SMOOTH",
"43 -29 OFFCURVE",
"79 -13 OFFCURVE",
"87 -2 CURVE SMOOTH",
"99 14 OFFCURVE",
"110 32 OFFCURVE",
"121 48 CURVE SMOOTH",
"163 106 OFFCURVE",
"202 149 OFFCURVE",
"259 192 CURVE SMOOTH",
"280 208 OFFCURVE",
"319 231 OFFCURVE",
"336 237 CURVE",
"280 168 OFFCURVE",
"174 12 OFFCURVE",
"166 -52 CURVE SMOOTH",
"163 -80 OFFCURVE",
"165 -110 OFFCURVE",
"197 -110 CURVE SMOOTH",
"205 -110 OFFCURVE",
"213 -108 OFFCURVE",
"220 -105 CURVE SMOOTH",
"267 -82 OFFCURVE",
"346 -11 OFFCURVE",
"401 51 CURVE SMOOTH",
"441 97 OFFCURVE",
"477 140 OFFCURVE",
"500 165 CURVE SMOOTH",
"503 168 OFFCURVE",
"505 171 OFFCURVE",
"505 176 CURVE SMOOTH",
"505 179 OFFCURVE",
"503 183 OFFCURVE",
"499 183 CURVE SMOOTH",
"495 183 OFFCURVE",
"492 179 OFFCURVE",
"490 177 CURVE SMOOTH",
"454 139 OFFCURVE",
"367 40 OFFCURVE",
"334 11 CURVE SMOOTH",
"284 -34 OFFCURVE",
"242 -71 OFFCURVE",
"224 -73 CURVE SMOOTH",
"201 -75 OFFCURVE",
"215 -20 OFFCURVE",
"285 88 CURVE SMOOTH",
"318 139 OFFCURVE",
"345 175 OFFCURVE",
"380 216 CURVE SMOOTH",
"404 244 OFFCURVE",
"436 292 OFFCURVE",
"381 292 CURVE SMOOTH",
"368 292 OFFCURVE",
"354 295 OFFCURVE",
"344 288 CURVE SMOOTH",
"334 281 OFFCURVE",
"324 271 OFFCURVE",
"315 263 CURVE SMOOTH",
"207 174 OFFCURVE",
"164 138 OFFCURVE",
"132 102 CURVE"
);
}
);
width = 401;
}
);
note = n.1;
unicode = 006E;
},
{
color = 11;
glyphname = o;
lastChange = "2021-06-09 19:50:26 +0000";
layers = (
{
anchors = (
{
name = bottom;
position = "{56, -64}";
},
{
name = center;
position = "{147, 150}";
},
{
name = ogonek;
position = "{82, -10}";
},
{
name = top;
position = "{282, 327}";
},
{
name = topright;
position = "{287, 266}";
}
);
hints = (
{
horizontal = 1;
place = "{-21, 17}";
type = Stem;
},
{
horizontal = 1;
place = "{273, 24}";
type = Stem;
},
{
place = "{38, 36}";
type = Stem;
},
{
place = "{287, 36}";
type = Stem;
},
{
horizontal = 1;
place = "{236, 29}";
type = Stem;
}
);
layerId = "40AAE8A1-2E59-408F-988A-610CC450AA88";
paths = (
{
closed = 1;
nodes = (
"390 168 OFFCURVE",
"389 172 OFFCURVE",
"385 172 CURVE SMOOTH",
"377 172 OFFCURVE",
"373 168 OFFCURVE",
"368 163 CURVE SMOOTH",
"325 123 OFFCURVE",
"284 81 OFFCURVE",
"226 65 CURVE",
"236 75 OFFCURVE",
"245 86 OFFCURVE",
"254 98 CURVE SMOOTH",
"288 144 OFFCURVE",
"323 192 OFFCURVE",
"323 251 CURVE SMOOTH",
"323 280 OFFCURVE",
"307 297 OFFCURVE",
"278 297 CURVE SMOOTH",
"243 297 OFFCURVE",
"204 278 OFFCURVE",
"176 258 CURVE",
"167 265 OFFCURVE",
"154 270 OFFCURVE",
"145 259 CURVE SMOOTH",
"104 213 OFFCURVE",
"38 119 OFFCURVE",
"38 51 CURVE SMOOTH",
"38 17 OFFCURVE",
"56 -21 OFFCURVE",
"95 -21 CURVE SMOOTH",
"132 -21 OFFCURVE",
"175 12 OFFCURVE",
"200 37 CURVE",
"270 48 OFFCURVE",
"339 100 OFFCURVE",
"383 154 CURVE",
"384 156 OFFCURVE",
"390 163 OFFCURVE",
"390 165 CURVE SMOOTH"
);
},
{
closed = 1;
nodes = (
"287 191 OFFCURVE",
"232 106 OFFCURVE",
"192 59 CURVE",
"142 50 OFFCURVE",
"110 86 OFFCURVE",
"114 135 CURVE",
"129 160 OFFCURVE",
"188 212 OFFCURVE",
"188 233 CURVE SMOOTH",
"188 236 LINE",
"208 250 OFFCURVE",
"245 273 OFFCURVE",
"269 273 CURVE SMOOTH",
"282 273 OFFCURVE",
"287 266 OFFCURVE",
"287 254 CURVE SMOOTH"
);
},
{
closed = 1;
nodes = (
"152 20 OFFCURVE",
"121 -4 OFFCURVE",
"96 -4 CURVE SMOOTH",
"57 -4 OFFCURVE",
"79 70 OFFCURVE",
"86 85 CURVE",
"107 61 OFFCURVE",
"137 39 OFFCURVE",
"169 36 CURVE"
);
}
);
width = 293;
}
);
note = o.1;
unicode = 006F;
},
{
color = 11;
glyphname = p;
lastChange = "2021-06-09 19:50:26 +0000";
layers = (
{
hints = (
{
horizontal = 1;
place = "{-562, 25}";
type = Stem;
},
{
horizontal = 1;
place = "{-57, 25}";
type = Stem;
},
{
horizontal = 1;
place = "{125, 20}";
type = Stem;
},
{
horizontal = 1;
place = "{293, 15}";
type = Stem;
},
{
place = "{-234, 44}";
type = Stem;
},
{
place = "{265, 46}";
type = Stem;
},
{
place = "{153, 182}";
type = Stem;
}
);
layerId = "40AAE8A1-2E59-408F-988A-610CC450AA88";
paths = (
{
closed = 1;
nodes = (
"366 143 OFFCURVE",
"341 145 OFFCURVE",
"311 145 CURVE",
"310 180 OFFCURVE",
"292 216 OFFCURVE",
"272 235 CURVE SMOOTH",
"262 246 OFFCURVE",
"255 255 OFFCURVE",
"248 261 CURVE",
"290 299 OFFCURVE",
"308 316 OFFCURVE",
"317 326 CURVE",
"354 356 OFFCURVE",
"327 406 OFFCURVE",
"291 372 CURVE",
"277 355 OFFCURVE",
"216 293 OFFCURVE",
"216 293 CURVE",
"216 293 OFFCURVE",
"217 295 OFFCURVE",
"216 296 CURVE",
"209 299 OFFCURVE",
"193 308 OFFCURVE",
"187 308 CURVE SMOOTH",
"159 311 OFFCURVE",
"133 278 OFFCURVE",
"176 253 CURVE",
"96 166 OFFCURVE",
"-150 -189 OFFCURVE",
"-212 -372 CURVE SMOOTH",
"-261 -513 OFFCURVE",
"-221 -562 OFFCURVE",
"-160 -562 CURVE SMOOTH",
"-121 -562 OFFCURVE",
"-111 -520 OFFCURVE",
"-125 -528 CURVE SMOOTH",
"-146 -540 OFFCURVE",
"-165 -538 OFFCURVE",
"-175 -533 CURVE",
"-228 -493 OFFCURVE",
"-129 -275 OFFCURVE",
"13 -30 CURVE",
"21 -70 OFFCURVE",
"103 -60 OFFCURVE",
"154 -35 CURVE SMOOTH",
"218 -4 OFFCURVE",
"278 48 OFFCURVE",
"300 94 CURVE SMOOTH",
"304 103 OFFCURVE",
"308 113 OFFCURVE",
"310 122 CURVE",
"343 128 OFFCURVE",
"366 125 OFFCURVE",
"390 116 CURVE SMOOTH",
"398 114 OFFCURVE",
"398 123 OFFCURVE",
"384 133 CURVE"
);
},
{
closed = 1;
nodes = (
"262 109 OFFCURVE",
"261 105 OFFCURVE",
"261 102 CURVE",
"229 25 OFFCURVE",
"149 -42 OFFCURVE",
"70 -32 CURVE",
"59 -27 OFFCURVE",
"58 -16 OFFCURVE",
"68 0 CURVE SMOOTH",
"78 17 OFFCURVE",
"99 36 OFFCURVE",
"125 52 CURVE SMOOTH",
"176 83 OFFCURVE",
"221 100 OFFCURVE",
"264 114 CURVE"
);
},
{
closed = 1;
nodes = (
"223 130 OFFCURVE",
"172 113 OFFCURVE",
"120 84 CURVE SMOOTH",
"104 75 OFFCURVE",
"79 53 OFFCURVE",
"57 29 CURVE",
"57 30 LINE",
"110 117 OFFCURVE",
"197 214 OFFCURVE",
"211 228 CURVE",
"225 220 OFFCURVE",
"262 182 OFFCURVE",
"265 138 CURVE"
);
}
);
width = 309;
}
);
note = p.1;
unicode = 0070;
},
{
color = 11;
glyphname = q;
lastChange = "2021-06-09 19:50:26 +0000";
layers = (
{
hints = (
{
horizontal = 1;
place = "{-391, 23}";
type = Stem;
},
{
horizontal = 1;
place = "{-8, 39}";
type = Stem;
},
{
horizontal = 1;
place = "{254, 49}";
type = Stem;
},
{
place = "{-28, 34}";
type = Stem;
},
{
place = "{238, 23}";
type = Stem;
},
{
place = "{27, 33}";
type = Stem;
},
{
horizontal = 1;
place = "{44, 12}";
type = Stem;
}
);
layerId = "40AAE8A1-2E59-408F-988A-610CC450AA88";
paths = (
{
closed = 1;
nodes = (
"327 226 OFFCURVE",
"328 240 OFFCURVE",
"328 246 CURVE SMOOTH",
"328 278 OFFCURVE",
"303 303 OFFCURVE",
"271 303 CURVE SMOOTH",
"187 303 OFFCURVE",
"27 132 OFFCURVE",
"27 44 CURVE SMOOTH",
"27 22 OFFCURVE",
"39 -8 OFFCURVE",
"64 -8 CURVE SMOOTH",
"111 -8 OFFCURVE",
"208 115 OFFCURVE",
"239 153 CURVE",
"162 30 OFFCURVE",
"28 -133 OFFCURVE",
"-11 -240 CURVE SMOOTH",
"-46 -341 OFFCURVE",
"-23 -391 OFFCURVE",
"24 -391 CURVE SMOOTH",
"122 -391 OFFCURVE",
"197 -244 OFFCURVE",
"228 -174 CURVE SMOOTH",
"278 -58 OFFCURVE",
"267 59 OFFCURVE",
"221 56 CURVE",
"262 111 OFFCURVE",
"286 136 OFFCURVE",
"317 190 CURVE SMOOTH",
"319 193 OFFCURVE",
"320 196 OFFCURVE",
"320 199 CURVE SMOOTH",
"320 216 OFFCURVE",
"280 219 OFFCURVE",
"267 219 CURVE",
"229 164 OFFCURVE",
"141 64 OFFCURVE",
"85 34 CURVE SMOOTH",
"82 32 OFFCURVE",
"75 31 OFFCURVE",
"72 31 CURVE SMOOTH",
"63 31 OFFCURVE",
"60 37 OFFCURVE",
"60 45 CURVE SMOOTH",
"60 79 OFFCURVE",
"107 139 OFFCURVE",
"128 163 CURVE SMOOTH",
"158 198 OFFCURVE",
"211 254 OFFCURVE",
"262 254 CURVE SMOOTH",
"297 254 OFFCURVE",
"310 226 OFFCURVE",
"318 226 CURVE SMOOTH"
);
},
{
closed = 1;
nodes = (
"250 34 OFFCURVE",
"246 -48 OFFCURVE",
"206 -155 CURVE SMOOTH",
"180 -221 OFFCURVE",
"112 -368 OFFCURVE",
"30 -368 CURVE SMOOTH",
"9 -368 OFFCURVE",
"-2 -348 OFFCURVE",
"14 -300 CURVE SMOOTH",
"42 -212 OFFCURVE",
"134 -54 OFFCURVE",
"210 44 CURVE"
);
}
);
width = 280;
}
);
note = q.1;
unicode = 0071;
},
{
color = 11;
glyphname = r;
lastChange = "2021-06-09 19:50:26 +0000";
layers = (
{
anchors = (
{
name = bottom;
position = "{-7, -12}";
},
{
name = top;
position = "{316, 352}";
}
);
hints = (
{
horizontal = 1;
place = "{-22, 30}";
type = Stem;
},
{
place = "{110, 33}";
type = Stem;
}
);
layerId = "40AAE8A1-2E59-408F-988A-610CC450AA88";
paths = (
{
closed = 1;
nodes = (
"168 -22 OFFCURVE",
"172 -20 OFFCURVE",
"187 -8 CURVE SMOOTH",
"215 15 OFFCURVE",
"347 146 OFFCURVE",
"347 160 CURVE SMOOTH",
"347 172 OFFCURVE",
"335 165 OFFCURVE",
"331 161 CURVE SMOOTH",
"288 123 OFFCURVE",
"203 8 OFFCURVE",
"149 8 CURVE SMOOTH",
"147 8 OFFCURVE",
"146 8 OFFCURVE",
"145 9 CURVE SMOOTH",
"144 11 OFFCURVE",
"143 14 OFFCURVE",
"143 17 CURVE SMOOTH",
"143 60 OFFCURVE",
"234 140 OFFCURVE",
"265 165 CURVE SMOOTH",
"275 173 OFFCURVE",
"288 185 OFFCURVE",
"288 198 CURVE SMOOTH",
"288 214 OFFCURVE",
"271 222 OFFCURVE",
"258 222 CURVE SMOOTH",
"248 222 OFFCURVE",
"239 216 OFFCURVE",
"229 216 CURVE SMOOTH",
"219 216 OFFCURVE",
"189 226 OFFCURVE",
"181 232 CURVE",
"179 244 OFFCURVE",
"250 278 OFFCURVE",
"250 310 CURVE SMOOTH",
"250 324 OFFCURVE",
"240 332 OFFCURVE",
"227 332 CURVE SMOOTH",
"212 332 OFFCURVE",
"197 324 OFFCURVE",
"186 314 CURVE SMOOTH",
"161 293 OFFCURVE",
"153 269 OFFCURVE",
"142 239 CURVE SMOOTH",
"137 225 OFFCURVE",
"93 182 OFFCURVE",
"72 159 CURVE SMOOTH",
"37 120 OFFCURVE",
"-31 51 OFFCURVE",
"-39 43 CURVE SMOOTH",
"-47 35 OFFCURVE",
"-42 21 OFFCURVE",
"-23 35 CURVE SMOOTH",
"-16 40 OFFCURVE",
"25 83 OFFCURVE",
"75 137 CURVE SMOOTH",
"100 163 OFFCURVE",
"144 212 OFFCURVE",
"165 212 CURVE SMOOTH",
"183 212 OFFCURVE",
"192 200 OFFCURVE",
"204 189 CURVE",
"204 187 LINE SMOOTH",
"204 172 OFFCURVE",
"110 81 OFFCURVE",
"110 27 CURVE SMOOTH",
"110 5 OFFCURVE",
"140 -22 OFFCURVE",
"161 -22 CURVE SMOOTH"
);
}
);
width = 256;
}
);
note = r.1;
unicode = 0072;
},
{
color = 11;
glyphname = s;
lastChange = "2021-06-09 19:50:26 +0000";
layers = (
{
anchors = (
{
name = bottom;
position = "{-28, -135}";
},
{
name = top;
position = "{274, 340}";
}
);
hints = (
{
horizontal = 1;
place = "{-139, 21}";
type = Stem;
},
{
horizontal = 1;
place = "{288, 21}";
type = Stem;
},
{
place = "{-86, 32}";
type = Stem;
},
{
place = "{271, 33}";
type = Stem;
}
);
layerId = "40AAE8A1-2E59-408F-988A-610CC450AA88";
paths = (
{
closed = 1;
nodes = (
"169 -42 OFFCURVE",
"38 -118 OFFCURVE",
"-28 -118 CURVE SMOOTH",
"-73 -118 OFFCURVE",
"-51 -65 OFFCURVE",
"-26 -43 CURVE SMOOTH",
"45 22 OFFCURVE",
"109 45 OFFCURVE",
"167 64 CURVE",
"172 69 OFFCURVE",
"173 74 OFFCURVE",
"169 78 CURVE",
"113 61 OFFCURVE",
"-86 -11 OFFCURVE",
"-86 -91 CURVE SMOOTH",
"-86 -135 OFFCURVE",
"-45 -139 OFFCURVE",
"-17 -139 CURVE SMOOTH",
"37 -139 OFFCURVE",
"306 -18 OFFCURVE",
"244 123 CURVE SMOOTH",
"224 166 OFFCURVE",
"162 192 OFFCURVE",
"162 228 CURVE SMOOTH",
"162 256 OFFCURVE",
"208 289 OFFCURVE",
"256 288 CURVE SMOOTH",
"282 287 OFFCURVE",
"274 246 OFFCURVE",
"243 206 CURVE",
"245 203 OFFCURVE",
"250 199 OFFCURVE",
"252 201 CURVE",
"324 249 OFFCURVE",
"320 309 OFFCURVE",
"251 309 CURVE SMOOTH",
"195 309 OFFCURVE",
"107 263 OFFCURVE",
"124 203 CURVE SMOOTH",
"135 166 OFFCURVE",
"213 120 OFFCURVE",
"198 66 CURVE SMOOTH"
);
}
);
width = 244;
}
);
note = s.1;
unicode = 0073;
},
{
color = 11;
glyphname = t;
lastChange = "2021-06-09 19:50:26 +0000";
layers = (
{
anchors = (
{
name = bottom;
position = "{83, -29}";
},
{
name = center;
position = "{194, 346}";
},
{
name = top;
position = "{391, 576}";
},
{
name = topright;
position = "{435, 576}";
}
);
hints = (
{
horizontal = 1;
place = "{407, 17}";
type = Stem;
},
{
place = "{38, 43}";
type = Stem;
},
{
horizontal = 1;
place = "{-36, 43}";
type = Stem;
},
{
horizontal = 1;
place = "{403, 28}";
type = Stem;
}
);
layerId = "40AAE8A1-2E59-408F-988A-610CC450AA88";
paths = (
{
closed = 1;
nodes = (
"524 407 OFFCURVE",
"511 424 OFFCURVE",
"489 424 CURVE SMOOTH",
"306 428 LINE",
"341 469 OFFCURVE",
"377 506 OFFCURVE",
"410 536 CURVE",
"416 539 OFFCURVE",
"419 545 OFFCURVE",
"420 552 CURVE SMOOTH",
"421 568 OFFCURVE",
"404 586 OFFCURVE",
"391 576 CURVE SMOOTH",
"345 542 OFFCURVE",
"296 485 OFFCURVE",
"253 429 CURVE",
"39 434 LINE SMOOTH",
"7 435 OFFCURVE",
"-21 391 OFFCURVE",
"12 393 CURVE SMOOTH",
"73 397 OFFCURVE",
"152 400 OFFCURVE",
"234 403 CURVE",
"219 383 OFFCURVE",
"206 363 OFFCURVE",
"194 346 CURVE SMOOTH",
"115 230 OFFCURVE",
"79 158 OFFCURVE",
"53 101 CURVE SMOOTH",
"44 81 OFFCURVE",
"38 60 OFFCURVE",
"38 39 CURVE SMOOTH",
"38 7 OFFCURVE",
"57 -36 OFFCURVE",
"94 -36 CURVE SMOOTH",
"98 -36 OFFCURVE",
"102 -35 OFFCURVE",
"106 -34 CURVE",
"139 8 OFFCURVE",
"173 48 OFFCURVE",
"208 89 CURVE SMOOTH",
"225 110 OFFCURVE",
"245 130 OFFCURVE",
"261 152 CURVE SMOOTH",
"263 155 OFFCURVE",
"265 158 OFFCURVE",
"265 161 CURVE SMOOTH",
"265 165 OFFCURVE",
"262 169 OFFCURVE",
"258 169 CURVE SMOOTH",
"255 169 OFFCURVE",
"252 166 OFFCURVE",
"250 164 CURVE SMOOTH",
"220 133 OFFCURVE",
"189 103 OFFCURVE",
"160 71 CURVE SMOOTH",
"144 54 OFFCURVE",
"127 33 OFFCURVE",
"109 18 CURVE SMOOTH",
"103 13 OFFCURVE",
"96 7 OFFCURVE",
"88 7 CURVE SMOOTH",
"81 7 OFFCURVE",
"81 11 OFFCURVE",
"81 18 CURVE SMOOTH",
"81 61 OFFCURVE",
"110 138 OFFCURVE",
"147 204 CURVE SMOOTH",
"184 270 OFFCURVE",
"234 340 OFFCURVE",
"287 404 CURVE",
"356 406 OFFCURVE",
"424 407 OFFCURVE",
"484 407 CURVE SMOOTH"
);
}
);
width = 173;
}
);
note = t.1;
unicode = 0074;
},
{
color = 11;
glyphname = u;
lastChange = "2021-06-09 19:50:26 +0000";
layers = (
{
anchors = (
{
name = bottom;
position = "{42, -34}";
},
{
name = ogonek;
position = "{174, -90}";
},
{
name = top;
position = "{315, 334}";
},
{
name = topright;
position = "{379, 274}";
}
);
hints = (
{
horizontal = 1;
place = "{-110, 37}";
type = Stem;
},
{
horizontal = 1;
place = "{-8, 51}";
type = Stem;
},
{
place = "{44, 45}";
type = Stem;
},
{
place = "{147, 48}";
type = Stem;
}
);
layerId = "40AAE8A1-2E59-408F-988A-610CC450AA88";
paths = (
{
closed = 1;
nodes = (
"361 216 LINE",
"368 224 OFFCURVE",
"398 263 OFFCURVE",
"398 274 CURVE SMOOTH",
"398 289 OFFCURVE",
"377 293 OFFCURVE",
"366 293 CURVE SMOOTH",
"347 293 OFFCURVE",
"330 284 OFFCURVE",
"319 268 CURVE SMOOTH",
"295 230 OFFCURVE",
"154 43 OFFCURVE",
"98 43 CURVE SMOOTH",
"92 43 OFFCURVE",
"89 48 OFFCURVE",
"89 53 CURVE SMOOTH",
"89 75 OFFCURVE",
"127 126 OFFCURVE",
"140 144 CURVE SMOOTH",
"165 179 OFFCURVE",
"193 213 OFFCURVE",
"224 244 CURVE SMOOTH",
"231 252 OFFCURVE",
"239 258 OFFCURVE",
"246 265 CURVE SMOOTH",
"248 267 OFFCURVE",
"250 270 OFFCURVE",
"250 273 CURVE SMOOTH",
"250 281 OFFCURVE",
"218 289 OFFCURVE",
"210 289 CURVE SMOOTH",
"188 289 OFFCURVE",
"163 268 OFFCURVE",
"150 251 CURVE",
"151 244 OFFCURVE",
"152 234 OFFCURVE",
"148 227 CURVE SMOOTH",
"143 218 OFFCURVE",
"136 209 OFFCURVE",
"130 201 CURVE SMOOTH",
"113 177 OFFCURVE",
"96 154 OFFCURVE",
"81 129 CURVE SMOOTH",
"67 106 OFFCURVE",
"54 81 OFFCURVE",
"45 56 CURVE SMOOTH",
"44 53 OFFCURVE",
"44 51 OFFCURVE",
"44 48 CURVE SMOOTH",
"44 24 OFFCURVE",
"69 -8 OFFCURVE",
"94 -8 CURVE SMOOTH",
"104 -8 OFFCURVE",
"112 -3 OFFCURVE",
"118 4 CURVE SMOOTH",
"156 47 OFFCURVE",
"227 117 OFFCURVE",
"267 159 CURVE",
"216 91 OFFCURVE",
"152 -12 OFFCURVE",
"147 -52 CURVE SMOOTH",
"144 -80 OFFCURVE",
"146 -110 OFFCURVE",
"178 -110 CURVE SMOOTH",
"186 -110 OFFCURVE",
"194 -108 OFFCURVE",
"201 -105 CURVE SMOOTH",
"248 -82 OFFCURVE",
"327 -11 OFFCURVE",
"382 51 CURVE SMOOTH",
"422 97 OFFCURVE",
"458 140 OFFCURVE",
"481 165 CURVE SMOOTH",
"484 168 OFFCURVE",
"486 171 OFFCURVE",
"486 176 CURVE SMOOTH",
"486 179 OFFCURVE",
"484 183 OFFCURVE",
"480 183 CURVE SMOOTH",
"476 183 OFFCURVE",
"473 179 OFFCURVE",
"471 177 CURVE SMOOTH",
"435 139 OFFCURVE",
"348 40 OFFCURVE",
"315 11 CURVE SMOOTH",
"265 -34 OFFCURVE",
"223 -71 OFFCURVE",
"205 -73 CURVE SMOOTH",
"182 -75 OFFCURVE",
"196 -20 OFFCURVE",
"266 88 CURVE SMOOTH",
"294 131 OFFCURVE",
"328 176 OFFCURVE",
"357 213 CURVE"
);
}
);
width = 432;
}
);
note = u.1;
unicode = 0075;
},
{
color = 11;
glyphname = v;
lastChange = "2021-06-09 19:50:26 +0000";
layers = (
{
hints = (
{
horizontal = 1;
place = "{-6, 21}";
target = up;
type = BottomGhost;
},
{
place = "{27, 59}";
type = Stem;
}
);
layerId = "40AAE8A1-2E59-408F-988A-610CC450AA88";
paths = (
{
closed = 1;
nodes = (
"432 489 OFFCURVE",
"381 498 OFFCURVE",
"369 460 CURVE SMOOTH",
"326 320 OFFCURVE",
"201 136 OFFCURVE",
"86 49 CURVE",
"94 108 OFFCURVE",
"142 227 OFFCURVE",
"183 270 CURVE",
"183 271 OFFCURVE",
"184 272 OFFCURVE",
"184 273 CURVE SMOOTH",
"184 283 OFFCURVE",
"160 304 OFFCURVE",
"150 304 CURVE SMOOTH",
"129 304 OFFCURVE",
"106 270 OFFCURVE",
"97 254 CURVE",
"97 244 OFFCURVE",
"108 247 OFFCURVE",
"108 241 CURVE SMOOTH",
"108 239 OFFCURVE",
"107 237 OFFCURVE",
"106 235 CURVE SMOOTH",
"88 193 OFFCURVE",
"27 64 OFFCURVE",
"27 23 CURVE SMOOTH",
"27 20 OFFCURVE",
"27 16 OFFCURVE",
"29 13 CURVE SMOOTH",
"44 -8 OFFCURVE",
"48 -2 OFFCURVE",
"69 -6 CURVE",
"123 41 OFFCURVE",
"188 101 OFFCURVE",
"248 172 CURVE SMOOTH",
"317 254 OFFCURVE",
"379 347 OFFCURVE",
"407 422 CURVE SMOOTH"
);
}
);
width = 248;
}
);
note = v.1;
unicode = 0076;
},
{
color = 11;
glyphname = w;
lastChange = "2021-06-09 19:50:26 +0000";
layers = (
{
anchors = (
{
name = bottom;
position = "{157, -51}";
},
{
name = top;
position = "{395, 347}";
}
);
hints = (
{
horizontal = 1;
place = "{-4, 49}";
type = Stem;
},
{
place = "{25, 45}";
type = Stem;
},
{
place = "{219, 57}";
type = Stem;
},
{
horizontal = 1;
place = "{-10, 53}";
type = Stem;
}
);
layerId = "40AAE8A1-2E59-408F-988A-610CC450AA88";
paths = (
{
closed = 1;
nodes = (
"342 19 OFFCURVE",
"398 99 OFFCURVE",
"458 170 CURVE SMOOTH",
"527 252 OFFCURVE",
"589 347 OFFCURVE",
"617 422 CURVE SMOOTH",
"642 489 OFFCURVE",
"590 498 OFFCURVE",
"579 460 CURVE SMOOTH",
"535 305 OFFCURVE",
"407 119 OFFCURVE",
"296 49 CURVE SMOOTH",
"272 34 OFFCURVE",
"272 62 OFFCURVE",
"276 78 CURVE SMOOTH",
"287 127 OFFCURVE",
"346 226 OFFCURVE",
"376 262 CURVE",
"383 268 OFFCURVE",
"388 278 OFFCURVE",
"377 288 CURVE SMOOTH",
"369 296 OFFCURVE",
"352 304 OFFCURVE",
"346 304 CURVE SMOOTH",
"333 304 OFFCURVE",
"320 292 OFFCURVE",
"310 279 CURVE SMOOTH",
"288 247 OFFCURVE",
"275 233 OFFCURVE",
"260 212 CURVE SMOOTH",
"236 183 OFFCURVE",
"114 43 OFFCURVE",
"79 43 CURVE SMOOTH",
"73 43 OFFCURVE",
"70 48 OFFCURVE",
"70 53 CURVE SMOOTH",
"70 94 OFFCURVE",
"190 235 OFFCURVE",
"225 262 CURVE",
"225 278 OFFCURVE",
"208 289 OFFCURVE",
"193 289 CURVE SMOOTH",
"174 289 OFFCURVE",
"128 261 OFFCURVE",
"128 241 CURVE SMOOTH",
"128 237 OFFCURVE",
"130 234 OFFCURVE",
"130 230 CURVE SMOOTH",
"130 229 OFFCURVE",
"130 228 OFFCURVE",
"129 227 CURVE SMOOTH",
"92 171 OFFCURVE",
"50 120 OFFCURVE",
"26 56 CURVE SMOOTH",
"25 53 OFFCURVE",
"25 51 OFFCURVE",
"25 48 CURVE SMOOTH",
"25 24 OFFCURVE",
"52 -10 OFFCURVE",
"77 -10 CURVE SMOOTH",
"87 -10 OFFCURVE",
"94 -5 OFFCURVE",
"101 2 CURVE SMOOTH",
"157 65 OFFCURVE",
"215 126 OFFCURVE",
"291 214 CURVE",
"273 177 OFFCURVE",
"196 56 OFFCURVE",
"225 13 CURVE SMOOTH",
"240 -8 OFFCURVE",
"268 -6 OFFCURVE",
"286 0 CURVE SMOOTH"
);
}
);
width = 458;
}
);
note = w.1;
unicode = 0077;
},
{
color = 11;
glyphname = x;
lastChange = "2021-06-09 19:50:26 +0000";
layers = (
{
hints = (
{
horizontal = 1;
place = "{-24, 21}";
target = up;
type = BottomGhost;
},
{
horizontal = 1;
place = "{240, 60}";
type = Stem;
},
{
place = "{140, 49}";
type = Stem;
},
{
place = "{102, 31}";
type = Stem;
},
{
horizontal = 1;
place = "{-24, 48}";
type = Stem;
}
);
layerId = "40AAE8A1-2E59-408F-988A-610CC450AA88";
paths = (
{
closed = 1;
nodes = (
"173 294 OFFCURVE",
"167 300 OFFCURVE",
"157 300 CURVE SMOOTH",
"147 300 OFFCURVE",
"122 280 OFFCURVE",
"115 273 CURVE SMOOTH",
"93 248 OFFCURVE",
"97 230 OFFCURVE",
"133 246 CURVE",
"137 212 OFFCURVE",
"139 185 OFFCURVE",
"139 148 CURVE",
"114 123 OFFCURVE",
"54 75 OFFCURVE",
"-26 -28 CURVE SMOOTH",
"-29 -32 OFFCURVE",
"-32 -37 OFFCURVE",
"-32 -42 CURVE SMOOTH",
"-32 -47 OFFCURVE",
"-23 -49 OFFCURVE",
"-19 -49 CURVE SMOOTH",
"-3 -48 OFFCURVE",
"2 -39 OFFCURVE",
"11 -27 CURVE SMOOTH",
"40 9 OFFCURVE",
"114 97 OFFCURVE",
"140 121 CURVE",
"140 98 OFFCURVE",
"142 16 OFFCURVE",
"153 -2 CURVE SMOOTH",
"159 -12 OFFCURVE",
"180 -24 OFFCURVE",
"192 -24 CURVE SMOOTH",
"221 -24 OFFCURVE",
"253 15 OFFCURVE",
"273 35 CURVE SMOOTH",
"297 58 OFFCURVE",
"318 83 OFFCURVE",
"340 108 CURVE SMOOTH",
"357 128 OFFCURVE",
"377 149 OFFCURVE",
"392 170 CURVE",
"394 174 OFFCURVE",
"397 178 OFFCURVE",
"396 183 CURVE SMOOTH",
"396 187 OFFCURVE",
"393 190 OFFCURVE",
"389 189 CURVE SMOOTH",
"378 188 OFFCURVE",
"257 31 OFFCURVE",
"211 24 CURVE SMOOTH",
"202 23 OFFCURVE",
"200 27 OFFCURVE",
"196 33 CURVE SMOOTH",
"186 49 OFFCURVE",
"189 133 OFFCURVE",
"189 160 CURVE",
"216 183 OFFCURVE",
"243 208 OFFCURVE",
"270 234 CURVE SMOOTH",
"346 309 OFFCURVE",
"416 391 OFFCURVE",
"451 463 CURVE SMOOTH",
"482 527 OFFCURVE",
"431 541 OFFCURVE",
"417 504 CURVE SMOOTH",
"372 391 OFFCURVE",
"283 274 OFFCURVE",
"189 190 CURVE",
"188 230 OFFCURVE",
"184 278 OFFCURVE",
"178 287 CURVE SMOOTH"
);
}
);
width = 288;
}
);
note = x.1;
unicode = 0078;
},
{
color = 11;
glyphname = y;
lastChange = "2021-06-09 19:50:26 +0000";
layers = (
{
anchors = (
{
name = bottom;
position = "{14, -17}";
},
{
name = top;
position = "{313, 303}";
}
);
hints = (
{
horizontal = 1;
place = "{-343, 40}";
type = Stem;
},
{
horizontal = 1;
place = "{-138, 26}";
type = Stem;
},
{
horizontal = 1;
place = "{-11, 27}";
type = Stem;
},
{
place = "{43, 41}";
type = Stem;
},
{
place = "{276, 57}";
type = Stem;
},
{
horizontal = 1;
place = "{-157, 21}";
type = Stem;
}
);
layerId = "40AAE8A1-2E59-408F-988A-610CC450AA88";
paths = (
{
closed = 1;
nodes = (
"111 -118 OFFCURVE",
"26 -111 OFFCURVE",
"-55 -112 CURVE SMOOTH",
"-150 -114 OFFCURVE",
"-251 -129 OFFCURVE",
"-293 -144 CURVE SMOOTH",
"-319 -152 OFFCURVE",
"-354 -199 OFFCURVE",
"-346 -219 CURVE SMOOTH",
"-311 -306 OFFCURVE",
"-203 -347 OFFCURVE",
"-128 -343 CURVE SMOOTH",
"14 -337 OFFCURVE",
"120 -255 OFFCURVE",
"193 -157 CURVE",
"221 -161 OFFCURVE",
"247 -166 OFFCURVE",
"269 -172 CURVE SMOOTH",
"305 -181 OFFCURVE",
"335 -182 OFFCURVE",
"287 -160 CURVE SMOOTH",
"268 -151 OFFCURVE",
"241 -143 OFFCURVE",
"208 -136 CURVE",
"286 -21 OFFCURVE",
"333 85 OFFCURVE",
"333 202 CURVE SMOOTH",
"333 221 OFFCURVE",
"329 223 OFFCURVE",
"310 227 CURVE",
"307 227 OFFCURVE",
"305 228 OFFCURVE",
"302 228 CURVE SMOOTH",
"278 228 OFFCURVE",
"264 190 OFFCURVE",
"264 172 CURVE",
"227 118 OFFCURVE",
"131 14 OFFCURVE",
"89 16 CURVE",
"84 20 OFFCURVE",
"84 25 OFFCURVE",
"84 29 CURVE SMOOTH",
"84 83 OFFCURVE",
"158 189 OFFCURVE",
"182 216 CURVE SMOOTH",
"203 241 OFFCURVE",
"214 250 OFFCURVE",
"224 260 CURVE SMOOTH",
"227 263 OFFCURVE",
"230 267 OFFCURVE",
"230 271 CURVE SMOOTH",
"230 282 OFFCURVE",
"213 290 OFFCURVE",
"204 290 CURVE SMOOTH",
"179 290 OFFCURVE",
"148 270 OFFCURVE",
"129 247 CURVE",
"124 236 OFFCURVE",
"141 244 OFFCURVE",
"141 240 CURVE SMOOTH",
"141 231 OFFCURVE",
"43 115 OFFCURVE",
"43 22 CURVE SMOOTH",
"43 4 OFFCURVE",
"49 -11 OFFCURVE",
"70 -11 CURVE SMOOTH",
"127 -11 OFFCURVE",
"204 71 OFFCURVE",
"276 134 CURVE",
"267 37 OFFCURVE",
"232 -45 OFFCURVE",
"179 -130 CURVE"
);
},
{
closed = 1;
nodes = (
"-213 -310 OFFCURVE",
"-297 -271 OFFCURVE",
"-311 -233 CURVE SMOOTH",
"-318 -216 OFFCURVE",
"-318 -188 OFFCURVE",
"-295 -179 CURVE",
"-189 -128 OFFCURVE",
"15 -131 OFFCURVE",
"165 -152 CURVE",
"114 -228 OFFCURVE",
"52 -291 OFFCURVE",
"-119 -303 CURVE SMOOTH"
);
}
);
width = 353;
}
);
note = y.1;
unicode = 0079;
},
{
color = 11;
glyphname = z;
lastChange = "2021-06-09 19:50:26 +0000";
layers = (
{
anchors = (
{
name = bottom;
position = "{-88, -183}";
},
{
name = center;
position = "{214, 202}";
},
{
name = top;
position = "{294, 355}";
}
);
hints = (
{
horizontal = 1;
place = "{-324, 36}";
type = Stem;
},
{
horizontal = 1;
place = "{-122, 25}";
type = Stem;
},
{
horizontal = 1;
place = "{77, 32}";
type = Stem;
},
{
horizontal = 1;
place = "{269, 25}";
type = Stem;
},
{
place = "{255, 39}";
type = Stem;
},
{
place = "{287, 49}";
type = Stem;
},
{
horizontal = 1;
place = "{-141, 21}";
type = Stem;
}
);
layerId = "40AAE8A1-2E59-408F-988A-610CC450AA88";
paths = (
{
closed = 1;
nodes = (
"151 97 OFFCURVE",
"176 114 OFFCURVE",
"200 131 CURVE SMOOTH",
"236 156 OFFCURVE",
"270 183 OFFCURVE",
"305 211 CURVE SMOOTH",
"320 223 OFFCURVE",
"336 238 OFFCURVE",
"336 259 CURVE SMOOTH",
"336 289 OFFCURVE",
"297 294 OFFCURVE",
"275 294 CURVE SMOOTH",
"244 294 OFFCURVE",
"120 274 OFFCURVE",
"120 235 CURVE SMOOTH",
"120 222 OFFCURVE",
"136 213 OFFCURVE",
"147 213 CURVE SMOOTH",
"154 213 OFFCURVE",
"156 215 OFFCURVE",
"160 220 CURVE SMOOTH",
"178 244 OFFCURVE",
"240 269 OFFCURVE",
"270 269 CURVE SMOOTH",
"277 269 OFFCURVE",
"287 267 OFFCURVE",
"287 257 CURVE SMOOTH",
"287 211 OFFCURVE",
"78 89 OFFCURVE",
"37 46 CURVE SMOOTH",
"32 41 OFFCURVE",
"29 36 OFFCURVE",
"29 28 CURVE SMOOTH",
"29 12 OFFCURVE",
"41 5 OFFCURVE",
"55 5 CURVE SMOOTH",
"66 5 OFFCURVE",
"79 9 OFFCURVE",
"88 14 CURVE SMOOTH",
"96 18 OFFCURVE",
"104 27 OFFCURVE",
"111 32 CURVE SMOOTH",
"127 44 OFFCURVE",
"154 65 OFFCURVE",
"184 74 CURVE SMOOTH",
"239 90 OFFCURVE",
"265 50 OFFCURVE",
"252 0 CURVE SMOOTH",
"242 -39 OFFCURVE",
"221 -85 OFFCURVE",
"202 -114 CURVE",
"134 -102 OFFCURVE",
"23 -96 OFFCURVE",
"-58 -97 CURVE SMOOTH",
"-153 -99 OFFCURVE",
"-254 -114 OFFCURVE",
"-296 -129 CURVE SMOOTH",
"-322 -137 OFFCURVE",
"-355 -183 OFFCURVE",
"-349 -204 CURVE SMOOTH",
"-320 -306 OFFCURVE",
"-199 -328 OFFCURVE",
"-124 -324 CURVE SMOOTH",
"18 -317 OFFCURVE",
"143 -239 OFFCURVE",
"216 -141 CURVE",
"244 -145 OFFCURVE",
"270 -150 OFFCURVE",
"292 -156 CURVE SMOOTH",
"328 -165 OFFCURVE",
"358 -166 OFFCURVE",
"310 -144 CURVE SMOOTH",
"291 -135 OFFCURVE",
"264 -127 OFFCURVE",
"231 -120 CURVE",
"262 -71 OFFCURVE",
"283 -25 OFFCURVE",
"291 14 CURVE SMOOTH",
"309 97 OFFCURVE",
"250 142 OFFCURVE",
"127 79 CURVE"
);
},
{
closed = 1;
nodes = (
"-216 -295 OFFCURVE",
"-300 -256 OFFCURVE",
"-314 -218 CURVE SMOOTH",
"-321 -201 OFFCURVE",
"-321 -173 OFFCURVE",
"-298 -164 CURVE",
"-192 -113 OFFCURVE",
"38 -115 OFFCURVE",
"188 -136 CURVE",
"137 -212 OFFCURVE",
"49 -276 OFFCURVE",
"-122 -288 CURVE SMOOTH"
);
}
);
width = 313;
}
);
note = z.1;
unicode = 007A;
},
{
color = 9;
glyphname = braceleft;
lastChange = "2021-06-09 05:02:54 +0000";
layers = (
{
hints = (
{
place = "{115, 37}";
type = Stem;
}
);
layerId = "40AAE8A1-2E59-408F-988A-610CC450AA88";
paths = (
{
closed = 1;
nodes = (
"181 278 OFFCURVE",
"250 333 OFFCURVE",
"276 389 CURVE SMOOTH",
"289 416 OFFCURVE",
"298 445 OFFCURVE",
"308 472 CURVE SMOOTH",
"338 560 OFFCURVE",
"348 617 OFFCURVE",
"460 617 CURVE SMOOTH",
"498 616 OFFCURVE",
"469 640 OFFCURVE",
"463 640 CURVE SMOOTH",
"332 641 OFFCURVE",
"286 577 OFFCURVE",
"257 503 CURVE SMOOTH",
"243 467 OFFCURVE",
"235 429 OFFCURVE",
"221 393 CURVE SMOOTH",
"187 303 OFFCURVE",
"144 284 OFFCURVE",
"56 275 CURVE",
"40 275 OFFCURVE",
"41 267 OFFCURVE",
"42 259 CURVE",
"107 258 OFFCURVE",
"146 239 OFFCURVE",
"136 179 CURVE SMOOTH",
"123 106 OFFCURVE",
"76 39 OFFCURVE",
"64 -34 CURVE SMOOTH",
"51 -113 OFFCURVE",
"112 -122 OFFCURVE",
"172 -122 CURVE SMOOTH",
"176 -122 OFFCURVE",
"216 -114 OFFCURVE",
"191 -102 CURVE",
"136 -98 OFFCURVE",
"103 -107 OFFCURVE",
"115 -36 CURVE SMOOTH",
"127 36 OFFCURVE",
"185 98 OFFCURVE",
"197 171 CURVE SMOOTH",
"205 216 OFFCURVE",
"157 251 OFFCURVE",
"121 265 CURVE"
);
}
);
width = 323;
}
);
note = braceleft;
unicode = 007B;
},
{
color = 9;
glyphname = bar;
lastChange = "2021-06-09 05:02:54 +0000";
layers = (
{
hints = (
{
horizontal = 1;
place = "{-166, 911}";
type = Stem;
},
{
place = "{147, 202}";
type = Stem;
},
{
place = "{147, 34}";
type = Stem;
}
);
layerId = "40AAE8A1-2E59-408F-988A-610CC450AA88";
paths = (
{
closed = 1;
nodes = (
"142 -171 OFFCURVE",
"177 -171 OFFCURVE",
"181 -154 CURVE SMOOTH",
"348 716 LINE SMOOTH",
"358 760 OFFCURVE",
"312 748 OFFCURVE",
"308 718 CURVE",
"238 411 OFFCURVE",
"199 153 OFFCURVE",
"147 -144 CURVE SMOOTH"
);
}
);
width = 508;
}
);
note = bar;
unicode = 007C;
},
{
color = 9;
glyphname = braceright;
lastChange = "2021-06-09 05:02:54 +0000";
layers = (
{
hints = (
{
place = "{285, 37}";
type = Stem;
},
{
place = "{334, 42}";
type = Stem;
}
);
layerId = "40AAE8A1-2E59-408F-988A-610CC450AA88";
paths = (
{
closed = 1;
nodes = (
"238 241 OFFCURVE",
"169 186 OFFCURVE",
"143 130 CURVE SMOOTH",
"130 103 OFFCURVE",
"121 74 OFFCURVE",
"111 47 CURVE SMOOTH",
"81 -41 OFFCURVE",
"71 -98 OFFCURVE",
"-41 -98 CURVE SMOOTH",
"-79 -97 OFFCURVE",
"-50 -121 OFFCURVE",
"-44 -121 CURVE SMOOTH",
"87 -122 OFFCURVE",
"133 -58 OFFCURVE",
"162 16 CURVE SMOOTH",
"176 52 OFFCURVE",
"184 90 OFFCURVE",
"198 126 CURVE SMOOTH",
"232 216 OFFCURVE",
"275 235 OFFCURVE",
"363 244 CURVE",
"379 244 OFFCURVE",
"378 252 OFFCURVE",
"377 260 CURVE",
"312 261 OFFCURVE",
"273 280 OFFCURVE",
"283 340 CURVE SMOOTH",
"296 413 OFFCURVE",
"343 480 OFFCURVE",
"355 553 CURVE SMOOTH",
"368 632 OFFCURVE",
"307 641 OFFCURVE",
"247 641 CURVE SMOOTH",
"243 641 OFFCURVE",
"203 633 OFFCURVE",
"228 621 CURVE",
"283 617 OFFCURVE",
"316 626 OFFCURVE",
"304 555 CURVE SMOOTH",
"292 483 OFFCURVE",
"234 421 OFFCURVE",
"222 348 CURVE SMOOTH",
"214 303 OFFCURVE",
"262 268 OFFCURVE",
"298 254 CURVE"
);
}
);
width = 384;
}
);
note = braceright;
unicode = 007D;
},
{
color = 9;
glyphname = asciitilde;
lastChange = "2021-06-09 05:02:54 +0000";
layers = (
{
hints = (
{
horizontal = 1;
place = "{59, 15}";
type = Stem;
},
{
horizontal = 1;
place = "{308, 14}";
type = Stem;
},
{
place = "{-639, 18}";
type = Stem;
},
{
place = "{-310, 20}";
type = Stem;
},
{
place = "{-139, 15}";
type = Stem;
},
{
place = "{-44, 23}";
type = Stem;
}
);
layerId = "40AAE8A1-2E59-408F-988A-610CC450AA88";
paths = (
{
closed = 1;
nodes = (
"234 478 OFFCURVE",
"221 470 OFFCURVE",
"203 470 CURVE SMOOTH",
"171 470 OFFCURVE",
"137 500 OFFCURVE",
"104 500 CURVE SMOOTH",
"53 500 OFFCURVE",
"28 455 OFFCURVE",
"24 435 CURVE SMOOTH",
"21 422 OFFCURVE",
"25 408 OFFCURVE",
"38 425 CURVE SMOOTH",
"52 444 OFFCURVE",
"77 458 OFFCURVE",
"98 458 CURVE SMOOTH",
"139 458 OFFCURVE",
"164 427 OFFCURVE",
"199 430 CURVE SMOOTH",
"229 434 OFFCURVE",
"252 463 OFFCURVE",
"261 488 CURVE SMOOTH",
"264 497 OFFCURVE",
"252 500 OFFCURVE",
"245 491 CURVE SMOOTH"
);
}
);
width = 272;
}
);
note = asciitilde;
unicode = 007E;
},
{
color = 9;
glyphname = dagger;
lastChange = "2021-06-09 05:02:54 +0000";
layers = (
{
hints = (
{
horizontal = 1;
place = "{435, 37}";
type = Stem;
},
{
place = "{23, 352}";
type = Stem;
}
);
layerId = "40AAE8A1-2E59-408F-988A-610CC450AA88";
paths = (
{
closed = 1;
nodes = (
"281 435 LINE SMOOTH",
"322 435 OFFCURVE",
"375 444 OFFCURVE",
"375 460 CURVE SMOOTH",
"375 471 OFFCURVE",
"330 472 OFFCURVE",
"313 472 CURVE SMOOTH",
"266 472 LINE",
"341 699 LINE SMOOTH",
"357 743 OFFCURVE",
"307 730 OFFCURVE",
"297 700 CURVE SMOOTH",
"270 621 OFFCURVE",
"244 546 OFFCURVE",
"220 472 CURVE",
"158 472 LINE SMOOTH",
"126 472 OFFCURVE",
"83 435 OFFCURVE",
"116 435 CURVE SMOOTH",
"209 435 LINE",
"145 235 OFFCURVE",
"89 46 OFFCURVE",
"24 -162 CURVE SMOOTH",
"16 -189 OFFCURVE",
"46 -189 OFFCURVE",
"52 -172 CURVE SMOOTH",
"253 435 LINE"
);
}
);
width = 331;
}
);
note = dagger;
unicode = 2020;
},
{
color = 9;
glyphname = degree;
lastChange = "2021-06-09 05:02:54 +0000";
layers = (
{
hints = (
{
horizontal = 1;
place = "{360, 31}";
type = Stem;
},
{
horizontal = 1;
place = "{473, 41}";
type = Stem;
},
{
place = "{150, 166}";
type = Stem;
},
{
place = "{152, 35}";
type = Stem;
}
);
layerId = "40AAE8A1-2E59-408F-988A-610CC450AA88";
paths = (
{
closed = 1;
nodes = (
"249 514 LINE SMOOTH",
"205 508 OFFCURVE",
"160 470 OFFCURVE",
"152 427 CURVE SMOOTH",
"143 385 OFFCURVE",
"172 355 OFFCURVE",
"217 360 CURVE SMOOTH",
"260 364 OFFCURVE",
"306 403 OFFCURVE",
"314 444 CURVE SMOOTH",
"324 487 OFFCURVE",
"293 519 OFFCURVE",
"252 514 CURVE SMOOTH"
);
},
{
closed = 1;
nodes = (
"238 473 LINE SMOOTH",
"261 476 OFFCURVE",
"277 459 OFFCURVE",
"273 437 CURVE SMOOTH",
"267 415 OFFCURVE",
"244 394 OFFCURVE",
"221 391 CURVE SMOOTH",
"198 388 OFFCURVE",
"181 405 OFFCURVE",
"187 427 CURVE SMOOTH",
"191 449 OFFCURVE",
"215 470 OFFCURVE",
"237 473 CURVE SMOOTH"
);
}
);
width = 351;
}
);
note = degree;
unicode = 00B0;
},
{
color = 9;
glyphname = cent;
lastChange = "2021-06-09 05:02:54 +0000";
layers = (
{
hints = (
{
horizontal = 1;
place = "{19, -20}";
target = down;
type = TopGhost;
}
);
layerId = "40AAE8A1-2E59-408F-988A-610CC450AA88";
paths = (
{
closed = 1;
nodes = (
"651 531 OFFCURVE",
"613 552 OFFCURVE",
"555 552 CURVE SMOOTH",
"551 552 OFFCURVE",
"548 551 OFFCURVE",
"545 551 CURVE",
"606 649 LINE SMOOTH",
"630 686 OFFCURVE",
"554 652 OFFCURVE",
"540 626 CURVE",
"489 545 LINE",
"186 486 OFFCURVE",
"-94 49 OFFCURVE",
"155 4 CURVE",
"68 -134 LINE SMOOTH",
"54 -157 OFFCURVE",
"116 -129 OFFCURVE",
"126 -114 CURVE SMOOTH",
"198 1 LINE",
"200 1 LINE SMOOTH",
"344 1 OFFCURVE",
"466 70 OFFCURVE",
"512 128 CURVE SMOOTH",
"549 175 OFFCURVE",
"528 170 OFFCURVE",
"509 154 CURVE SMOOTH",
"435 84 OFFCURVE",
"315 40 OFFCURVE",
"222 39 CURVE",
"524 518 LINE",
"531 519 OFFCURVE",
"538 520 OFFCURVE",
"545 520 CURVE SMOOTH",
"588 520 OFFCURVE",
"599 508 OFFCURVE",
"598 496 CURVE SMOOTH",
"594 430 OFFCURVE",
"494 353 OFFCURVE",
"481 325 CURVE SMOOTH",
"480 322 OFFCURVE",
"482 322 OFFCURVE",
"486 321 CURVE SMOOTH",
"489 321 OFFCURVE",
"492 322 OFFCURVE",
"495 325 CURVE",
"550 353 OFFCURVE",
"646 418 OFFCURVE",
"651 485 CURVE"
);
},
{
closed = 1;
nodes = (
"-1 84 OFFCURVE",
"252 422 OFFCURVE",
"462 502 CURVE",
"369 353 OFFCURVE",
"282 208 OFFCURVE",
"179 43 CURVE"
);
}
);
width = 513;
}
);
note = cent;
unicode = 00A2;
},
{
color = 9;
glyphname = sterling;
lastChange = "2021-06-09 05:02:54 +0000";
layers = (
{
hints = (
{
horizontal = 1;
place = "{-58, 24}";
type = Stem;
},
{
horizontal = 1;
place = "{-27, 18}";
type = Stem;
},
{
horizontal = 1;
place = "{81, 30}";
type = Stem;
},
{
horizontal = 1;
place = "{234, 23}";
type = Stem;
},
{
place = "{34, 32}";
type = Stem;
},
{
place = "{643, 17}";
type = Stem;
}
);
layerId = "40AAE8A1-2E59-408F-988A-610CC450AA88";
paths = (
{
closed = 1;
nodes = (
"669 53 OFFCURVE",
"649 71 OFFCURVE",
"630 84 CURVE",
"628 86 OFFCURVE",
"621 87 OFFCURVE",
"619 87 CURVE SMOOTH",
"617 87 OFFCURVE",
"615 84 OFFCURVE",
"615 82 CURVE SMOOTH",
"615 72 OFFCURVE",
"643 63 OFFCURVE",
"643 35 CURVE SMOOTH",
"643 -24 OFFCURVE",
"548 -34 OFFCURVE",
"505 -34 CURVE SMOOTH",
"446 -34 OFFCURVE",
"343 -10 OFFCURVE",
"293 22 CURVE",
"340 64 OFFCURVE",
"388 130 OFFCURVE",
"399 161 CURVE",
"489 161 LINE SMOOTH",
"500 161 OFFCURVE",
"511 166 OFFCURVE",
"511 179 CURVE SMOOTH",
"511 183 OFFCURVE",
"508 184 OFFCURVE",
"505 184 CURVE SMOOTH",
"408 184 LINE",
"427 239 OFFCURVE",
"524 489 OFFCURVE",
"611 524 CURVE SMOOTH",
"641 536 OFFCURVE",
"651 513 OFFCURVE",
"651 489 CURVE SMOOTH",
"651 445 OFFCURVE",
"609 407 OFFCURVE",
"591 386 CURVE SMOOTH",
"569 360 OFFCURVE",
"584 364 OFFCURVE",
"603 375 CURVE SMOOTH",
"628 389 OFFCURVE",
"674 430 OFFCURVE",
"674 481 CURVE SMOOTH",
"674 521 OFFCURVE",
"648 548 OFFCURVE",
"609 548 CURVE SMOOTH",
"574 548 OFFCURVE",
"532 521 OFFCURVE",
"511 496 CURVE SMOOTH",
"455 430 OFFCURVE",
"385 265 OFFCURVE",
"358 184 CURVE",
"281 184 LINE SMOOTH",
"272 184 OFFCURVE",
"263 176 OFFCURVE",
"263 167 CURVE SMOOTH",
"263 162 OFFCURVE",
"268 161 OFFCURVE",
"272 161 CURVE SMOOTH",
"350 161 LINE",
"339 134 OFFCURVE",
"308 65 OFFCURVE",
"266 31 CURVE",
"214 57 OFFCURVE",
"123 111 OFFCURVE",
"67 111 CURVE SMOOTH",
"48 111 OFFCURVE",
"34 104 OFFCURVE",
"34 83 CURVE SMOOTH",
"34 19 OFFCURVE",
"106 -27 OFFCURVE",
"165 -27 CURVE SMOOTH",
"203 -27 OFFCURVE",
"235 -12 OFFCURVE",
"267 8 CURVE",
"336 -28 OFFCURVE",
"461 -71 OFFCURVE",
"539 -71 CURVE SMOOTH",
"593 -71 OFFCURVE",
"669 -42 OFFCURVE",
"669 29 CURVE SMOOTH"
);
},
{
closed = 1;
nodes = (
"222 6 OFFCURVE",
"180 -5 OFFCURVE",
"156 -5 CURVE SMOOTH",
"112 -5 OFFCURVE",
"88 26 OFFCURVE",
"88 69 CURVE SMOOTH",
"88 74 OFFCURVE",
"95 74 OFFCURVE",
"97 74 CURVE SMOOTH",
"129 74 OFFCURVE",
"212 41 OFFCURVE",
"242 19 CURVE"
);
}
);
width = 673;
}
);
note = sterling;
unicode = 00A3;
},
{
color = 9;
glyphname = section;
lastChange = "2021-06-09 05:02:54 +0000";
layers = (
{
hints = (
{
horizontal = 1;
place = "{-74, 21}";
type = Stem;
},
{
horizontal = 1;
place = "{124, 23}";
type = Stem;
},
{
horizontal = 1;
place = "{586, 35}";
type = Stem;
},
{
place = "{106, 56}";
type = Stem;
},
{
place = "{273, 70}";
type = Stem;
},
{
place = "{418, 70}";
type = Stem;
},
{
place = "{587, 23}";
type = Stem;
},
{
place = "{251, 56}";
type = Stem;
}
);
layerId = "40AAE8A1-2E59-408F-988A-610CC450AA88";
paths = (
{
closed = 1;
nodes = (
"630 593 OFFCURVE",
"581 621 OFFCURVE",
"527 621 CURVE SMOOTH",
"437 621 OFFCURVE",
"262 528 OFFCURVE",
"251 435 CURVE SMOOTH",
"248 417 OFFCURVE",
"253 402 OFFCURVE",
"263 389 CURVE",
"187 354 OFFCURVE",
"113 296 OFFCURVE",
"106 236 CURVE SMOOTH",
"94 147 OFFCURVE",
"273 125 OFFCURVE",
"273 39 CURVE SMOOTH",
"273 -48 OFFCURVE",
"108 -75 OFFCURVE",
"57 -34 CURVE SMOOTH",
"46 -24 OFFCURVE",
"23 -34 OFFCURVE",
"34 -43 CURVE SMOOTH",
"131 -135 OFFCURVE",
"432 -5 OFFCURVE",
"318 85 CURVE SMOOTH",
"265 124 LINE",
"388 118 OFFCURVE",
"552 213 OFFCURVE",
"463 284 CURVE SMOOTH",
"351 372 OFFCURVE",
"204 450 OFFCURVE",
"412 561 CURVE SMOOTH",
"482 598 OFFCURVE",
"652 606 OFFCURVE",
"560 507 CURVE",
"545 493 OFFCURVE",
"560 484 OFFCURVE",
"567 489 CURVE SMOOTH",
"581 500 OFFCURVE",
"596 516 OFFCURVE",
"603 532 CURVE SMOOTH"
);
},
{
closed = 1;
nodes = (
"271 364 OFFCURVE",
"276 367 OFFCURVE",
"282 369 CURVE",
"330 327 OFFCURVE",
"418 298 OFFCURVE",
"418 238 CURVE SMOOTH",
"418 164 OFFCURVE",
"299 134 OFFCURVE",
"232 151 CURVE",
"154 215 OFFCURVE",
"112 279 OFFCURVE",
"267 362 CURVE SMOOTH"
);
}
);
width = 514;
}
);
note = section;
unicode = 00A7;
},
{
color = 9;
glyphname = bullet;
lastChange = "2021-06-09 05:02:54 +0000";
layers = (
{
hints = (
{
horizontal = 1;
place = "{20, 433}";
type = Stem;
},
{
place = "{54, 433}";
type = Stem;
}
);
layerId = "40AAE8A1-2E59-408F-988A-610CC450AA88";
paths = (
{
closed = 1;
nodes = (
"487 356 OFFCURVE",
"390 453 OFFCURVE",
"270 453 CURVE SMOOTH",
"151 453 OFFCURVE",
"54 356 OFFCURVE",
"54 236 CURVE SMOOTH",
"54 117 OFFCURVE",
"151 20 OFFCURVE",
"271 20 CURVE SMOOTH",
"390 20 OFFCURVE",
"487 117 OFFCURVE",
"487 237 CURVE SMOOTH"
);
}
);
width = 537;
}
);
note = bullet;
unicode = 2022;
},
{
color = 9;
glyphname = paragraph;
lastChange = "2021-06-09 05:02:54 +0000";
layers = (
{
hints = (
{
horizontal = 1;
place = "{245, 20}";
type = Stem;
},
{
horizontal = 1;
place = "{543, 25}";
type = Stem;
},
{
place = "{88, 433}";
type = Stem;
}
);
layerId = "40AAE8A1-2E59-408F-988A-610CC450AA88";
paths = (
{
closed = 1;
nodes = (
"262 246 OFFCURVE",
"273 246 OFFCURVE",
"286 248 CURVE SMOOTH",
"313 253 LINE",
"251 132 OFFCURVE",
"199 19 OFFCURVE",
"194 -7 CURVE",
"195 -14 OFFCURVE",
"197 -28 OFFCURVE",
"202 -27 CURVE SMOOTH",
"206 -27 OFFCURVE",
"225 -4 OFFCURVE",
"228 -2 CURVE",
"291 178 OFFCURVE",
"415 385 OFFCURVE",
"519 553 CURVE",
"520 554 OFFCURVE",
"521 555 OFFCURVE",
"521 556 CURVE SMOOTH",
"524 572 OFFCURVE",
"454 573 OFFCURVE",
"407 568 CURVE SMOOTH",
"245 546 OFFCURVE",
"108 456 OFFCURVE",
"90 356 CURVE SMOOTH",
"78 292 OFFCURVE",
"120 244 OFFCURVE",
"222 245 CURVE",
"160 122 OFFCURVE",
"107 8 OFFCURVE",
"102 -19 CURVE",
"103 -26 OFFCURVE",
"107 -30 OFFCURVE",
"113 -29 CURVE SMOOTH",
"116 -29 OFFCURVE",
"119 -26 OFFCURVE",
"122 -24 CURVE",
"152 60 OFFCURVE",
"198 153 OFFCURVE",
"249 245 CURVE"
);
},
{
closed = 1;
nodes = (
"141 262 OFFCURVE",
"133 309 OFFCURVE",
"142 354 CURVE SMOOTH",
"155 427 OFFCURVE",
"248 513 OFFCURVE",
"386 543 CURVE",
"363 510 OFFCURVE",
"296 388 OFFCURVE",
"234 265 CURVE"
);
},
{
closed = 1;
nodes = (
"427 533 OFFCURVE",
"427 534 OFFCURVE",
"427 535 CURVE SMOOTH",
"427 537 OFFCURVE",
"427 540 OFFCURVE",
"426 541 CURVE",
"441 543 OFFCURVE",
"457 543 OFFCURVE",
"473 543 CURVE",
"449 505 OFFCURVE",
"388 400 OFFCURVE",
"329 284 CURVE",
"307 276 OFFCURVE",
"285 272 OFFCURVE",
"263 267 CURVE",
"317 364 OFFCURVE",
"374 450 OFFCURVE",
"425 532 CURVE"
);
}
);
width = 568;
}
);
note = paragraph;
unicode = 00B6;
},
{
color = 9;
glyphname = germandbls;
lastChange = "2021-06-09 05:02:54 +0000";
layers = (
{
hints = (
{
horizontal = 1;
place = "{-241, 31}";
type = Stem;
},
{
horizontal = 1;
place = "{-33, 24}";
type = Stem;
},
{
horizontal = 1;
place = "{541, 29}";
type = Stem;
},
{
place = "{145, 29}";
type = Stem;
},
{
place = "{317, 43}";
type = Stem;
},
{
place = "{402, 64}";
type = Stem;
},
{
place = "{526, 34}";
type = Stem;
}
);
layerId = "40AAE8A1-2E59-408F-988A-610CC450AA88";
paths = (
{
closed = 1;
nodes = (
"174 77 OFFCURVE",
"220 117 OFFCURVE",
"238 138 CURVE SMOOTH",
"260 164 OFFCURVE",
"245 160 OFFCURVE",
"226 149 CURVE SMOOTH",
"201 135 OFFCURVE",
"145 92 OFFCURVE",
"145 41 CURVE SMOOTH",
"145 2 OFFCURVE",
"174 -21 OFFCURVE",
"209 -28 CURVE SMOOTH",
"368 -58 OFFCURVE",
"527 42 OFFCURVE",
"443 138 CURVE SMOOTH",
"390 198 OFFCURVE",
"323 292 OFFCURVE",
"383 339 CURVE SMOOTH",
"412 362 OFFCURVE",
"456 372 OFFCURVE",
"482 378 CURVE SMOOTH",
"495 381 OFFCURVE",
"505 380 OFFCURVE",
"513 390 CURVE",
"537 406 OFFCURVE",
"555 441 OFFCURVE",
"560 471 CURVE SMOOTH",
"567 512 OFFCURVE",
"533 553 OFFCURVE",
"512 562 CURVE SMOOTH",
"500 567 OFFCURVE",
"488 570 OFFCURVE",
"476 570 CURVE SMOOTH",
"340 570 OFFCURVE",
"191 291 OFFCURVE",
"115 154 CURVE SMOOTH",
"58 52 OFFCURVE",
"-80 -210 OFFCURVE",
"-187 -210 CURVE SMOOTH",
"-263 -210 OFFCURVE",
"-247 -171 OFFCURVE",
"-275 -157 CURVE SMOOTH",
"-281 -154 OFFCURVE",
"-292 -170 OFFCURVE",
"-285 -196 CURVE SMOOTH",
"-279 -218 OFFCURVE",
"-247 -241 OFFCURVE",
"-217 -241 CURVE SMOOTH",
"-78 -241 OFFCURVE",
"47 -38 OFFCURVE",
"62 -13 CURVE SMOOTH",
"185 181 OFFCURVE",
"266 347 OFFCURVE",
"387 482 CURVE SMOOTH",
"485 592 OFFCURVE",
"565 533 OFFCURVE",
"505 429 CURVE SMOOTH",
"497 416 OFFCURVE",
"491 405 OFFCURVE",
"488 397 CURVE",
"416 395 OFFCURVE",
"324 342 OFFCURVE",
"317 278 CURVE SMOOTH",
"309 213 OFFCURVE",
"402 171 OFFCURVE",
"402 85 CURVE SMOOTH",
"402 0 OFFCURVE",
"174 -49 OFFCURVE",
"174 33 CURVE SMOOTH"
);
}
);
width = 466;
}
);
note = germandbls;
unicode = 00DF;
},
{
color = 9;
glyphname = registered;
lastChange = "2021-06-09 05:02:54 +0000";
layers = (
{
hints = (
{
horizontal = 1;
place = "{34, 12}";
type = Stem;
},
{
horizontal = 1;
place = "{51, 14}";
type = Stem;
},
{
horizontal = 1;
place = "{360, 14}";
type = Stem;
},
{
place = "{251, 17}";
type = Stem;
},
{
place = "{500, 19}";
type = Stem;
},
{
place = "{532, 20}";
type = Stem;
}
);
layerId = "40AAE8A1-2E59-408F-988A-610CC450AA88";
paths = (
{
closed = 1;
nodes = (
"686 454 OFFCURVE",
"596 504 OFFCURVE",
"504 504 CURVE SMOOTH",
"319 504 OFFCURVE",
"121 326 OFFCURVE",
"121 164 CURVE SMOOTH",
"121 -145 OFFCURVE",
"686 70 OFFCURVE",
"686 344 CURVE SMOOTH"
);
},
{
closed = 1;
nodes = (
"413 407 OFFCURVE",
"520 409 OFFCURVE",
"525 358 CURVE SMOOTH",
"530 289 OFFCURVE",
"414 257 OFFCURVE",
"356 249 CURVE SMOOTH",
"348 248 OFFCURVE",
"341 238 OFFCURVE",
"348 225 CURVE SMOOTH",
"358 205 OFFCURVE",
"395 104 OFFCURVE",
"476 103 CURVE",
"341 11 OFFCURVE",
"171 -10 OFFCURVE",
"171 166 CURVE SMOOTH",
"171 316 OFFCURVE",
"345 484 OFFCURVE",
"494 484 CURVE SMOOTH",
"580 484 OFFCURVE",
"637 422 OFFCURVE",
"637 338 CURVE SMOOTH",
"637 259 OFFCURVE",
"574 175 OFFCURVE",
"494 116 CURVE",
"510 113 OFFCURVE",
"491 103 OFFCURVE",
"477 103 CURVE SMOOTH",
"476 103 LINE",
"482 107 OFFCURVE",
"488 111 OFFCURVE",
"494 116 CURVE",
"491 116 OFFCURVE",
"486 117 OFFCURVE",
"481 117 CURVE SMOOTH",
"454 117 OFFCURVE",
"410 197 OFFCURVE",
"395 236 CURVE",
"463 244 OFFCURVE",
"562 277 OFFCURVE",
"557 350 CURVE SMOOTH",
"552 415 OFFCURVE",
"447 433 OFFCURVE",
"401 433 CURVE SMOOTH",
"373 433 OFFCURVE",
"345 407 OFFCURVE",
"378 407 CURVE SMOOTH"
);
},
{
closed = 1;
nodes = (
"270 141 OFFCURVE",
"311 207 OFFCURVE",
"322 230 CURVE SMOOTH",
"349 283 OFFCURVE",
"381 327 OFFCURVE",
"412 378 CURVE SMOOTH",
"415 382 OFFCURVE",
"418 387 OFFCURVE",
"418 392 CURVE SMOOTH",
"417 400 OFFCURVE",
"409 401 OFFCURVE",
"403 401 CURVE SMOOTH",
"368 401 OFFCURVE",
"361 380 OFFCURVE",
"346 354 CURVE SMOOTH",
"318 305 OFFCURVE",
"251 164 OFFCURVE",
"256 109 CURVE",
"256 96 OFFCURVE",
"262 86 OFFCURVE",
"276 86 CURVE SMOOTH",
"283 86 OFFCURVE",
"283 98 OFFCURVE",
"279 98 CURVE SMOOTH",
"274 98 OFFCURVE",
"273 104 OFFCURVE",
"273 107 CURVE SMOOTH"
);
}
);
width = 753;
}
);
note = registered;
unicode = 00AE;
},
{
color = 9;
glyphname = copyright;
lastChange = "2021-06-09 05:02:54 +0000";
layers = (
{
hints = (
{
horizontal = 1;
place = "{12, 21}";
type = Stem;
},
{
horizontal = 1;
place = "{120, 21}";
type = Stem;
},
{
horizontal = 1;
place = "{380, 18}";
type = Stem;
},
{
horizontal = 1;
place = "{484, 20}";
type = Stem;
},
{
place = "{121, 50}";
type = Stem;
},
{
place = "{242, 50}";
type = Stem;
},
{
place = "{517, 26}";
type = Stem;
},
{
place = "{637, 49}";
type = Stem;
}
);
layerId = "40AAE8A1-2E59-408F-988A-610CC450AA88";
paths = (
{
closed = 1;
nodes = (
"686 454 OFFCURVE",
"596 504 OFFCURVE",
"504 504 CURVE SMOOTH",
"319 504 OFFCURVE",
"121 326 OFFCURVE",
"121 164 CURVE SMOOTH",
"121 -145 OFFCURVE",
"686 70 OFFCURVE",
"686 344 CURVE SMOOTH"
);
},
{
closed = 1;
nodes = (
"637 124 OFFCURVE",
"171 -126 OFFCURVE",
"171 166 CURVE SMOOTH",
"171 316 OFFCURVE",
"345 484 OFFCURVE",
"494 484 CURVE SMOOTH",
"580 484 OFFCURVE",
"637 422 OFFCURVE",
"637 338 CURVE SMOOTH"
);
},
{
closed = 1;
nodes = (
"543 387 OFFCURVE",
"529 398 OFFCURVE",
"500 398 CURVE SMOOTH",
"329 398 OFFCURVE",
"129 120 OFFCURVE",
"319 120 CURVE SMOOTH",
"398 120 OFFCURVE",
"465 158 OFFCURVE",
"490 190 CURVE SMOOTH",
"510 215 OFFCURVE",
"497 218 OFFCURVE",
"487 209 CURVE SMOOTH",
"446 171 OFFCURVE",
"381 141 OFFCURVE",
"330 141 CURVE SMOOTH",
"307 141 OFFCURVE",
"292 156 OFFCURVE",
"292 179 CURVE SMOOTH",
"292 262 OFFCURVE",
"406 380 OFFCURVE",
"492 380 CURVE SMOOTH",
"547 380 OFFCURVE",
"497 331 OFFCURVE",
"491 312 CURVE SMOOTH",
"488 303 OFFCURVE",
"491 293 OFFCURVE",
"506 300 CURVE SMOOTH",
"523 308 OFFCURVE",
"543 338 OFFCURVE",
"543 365 CURVE SMOOTH"
);
}
);
width = 756;
}
);
note = copyright;
unicode = 00A9;
},
{
color = 9;
glyphname = trademark;
lastChange = "2021-06-09 05:02:54 +0000";
layers = (
{
hints = (
{
horizontal = 1;
place = "{387, 21}";
type = Stem;
}
);
layerId = "40AAE8A1-2E59-408F-988A-610CC450AA88";
paths = (
{
closed = 1;
nodes = (
"643 622 OFFCURVE",
"632 624 OFFCURVE",
"622 624 CURVE SMOOTH",
"609 624 OFFCURVE",
"502 408 OFFCURVE",
"451 408 CURVE SMOOTH",
"396 408 OFFCURVE",
"390 571 OFFCURVE",
"379 611 CURVE SMOOTH",
"377 616 OFFCURVE",
"374 633 OFFCURVE",
"366 633 CURVE SMOOTH",
"337 633 OFFCURVE",
"331 586 OFFCURVE",
"336 558 CURVE",
"326 522 OFFCURVE",
"254 350 OFFCURVE",
"254 335 CURVE SMOOTH",
"254 329 OFFCURVE",
"261 328 OFFCURVE",
"265 328 CURVE SMOOTH",
"278 328 OFFCURVE",
"285 334 OFFCURVE",
"292 344 CURVE SMOOTH",
"320 385 OFFCURVE",
"329 472 OFFCURVE",
"352 522 CURVE",
"363 482 OFFCURVE",
"388 387 OFFCURVE",
"441 387 CURVE SMOOTH",
"486 387 OFFCURVE",
"567 487 OFFCURVE",
"594 522 CURVE",
"582 467 OFFCURVE",
"576 411 OFFCURVE",
"562 357 CURVE",
"561 355 OFFCURVE",
"561 352 OFFCURVE",
"561 349 CURVE SMOOTH",
"561 343 OFFCURVE",
"566 340 OFFCURVE",
"572 340 CURVE SMOOTH",
"584 340 OFFCURVE",
"605 345 OFFCURVE",
"607 357 CURVE SMOOTH",
"615 408 OFFCURVE",
"643 593 OFFCURVE",
"643 615 CURVE SMOOTH"
);
},
{
closed = 1;
nodes = (
"337 643 OFFCURVE",
"320 643 OFFCURVE",
"315 643 CURVE SMOOTH",
"277 643 OFFCURVE",
"41 633 OFFCURVE",
"27 613 CURVE",
"31 602 OFFCURVE",
"43 600 OFFCURVE",
"52 600 CURVE SMOOTH",
"76 600 OFFCURVE",
"100 605 OFFCURVE",
"124 605 CURVE SMOOTH",
"129 605 OFFCURVE",
"152 605 OFFCURVE",
"152 596 CURVE SMOOTH",
"152 587 OFFCURVE",
"143 564 OFFCURVE",
"140 554 CURVE SMOOTH",
"125 517 OFFCURVE",
"53 359 OFFCURVE",
"53 335 CURVE SMOOTH",
"53 325 OFFCURVE",
"64 322 OFFCURVE",
"71 322 CURVE SMOOTH",
"81 322 OFFCURVE",
"86 323 OFFCURVE",
"92 331 CURVE SMOOTH",
"100 341 OFFCURVE",
"112 395 OFFCURVE",
"128 440 CURVE SMOOTH",
"136 464 OFFCURVE",
"159 548 OFFCURVE",
"187 594 CURVE SMOOTH",
"203 621 OFFCURVE",
"337 610 OFFCURVE",
"337 635 CURVE SMOOTH"
);
}
);
width = 656;
}
);
note = trademark;
unicode = 2122;
},
{
color = 9;
glyphname = acute;
lastChange = "2021-06-09 05:02:54 +0000";
layers = (
{
hints = (
{
horizontal = 1;
place = "{392, 90}";
type = Stem;
},
{
place = "{52, 150}";
type = Stem;
}
);
layerId = "40AAE8A1-2E59-408F-988A-610CC450AA88";
paths = (
{
closed = 1;
nodes = (
"52 394 OFFCURVE",
"55 392 OFFCURVE",
"59 392 CURVE SMOOTH",
"66 391 OFFCURVE",
"177 433 OFFCURVE",
"191 443 CURVE",
"197 446 OFFCURVE",
"201 453 OFFCURVE",
"202 460 CURVE SMOOTH",
"202 466 OFFCURVE",
"194 481 OFFCURVE",
"187 482 CURVE SMOOTH",
"181 483 OFFCURVE",
"175 478 OFFCURVE",
"169 476 CURVE",
"136 454 OFFCURVE",
"86 428 OFFCURVE",
"57 404 CURVE SMOOTH",
"55 402 OFFCURVE",
"53 400 OFFCURVE",
"52 397 CURVE"
);
}
);
width = 221;
}
);
note = acute;
unicode = 00B4;
},
{
color = 9;
glyphname = dieresis;
lastChange = "2021-06-09 05:02:54 +0000";
layers = (
{
hints = (
{
horizontal = 1;
place = "{-30, 64}";
type = Stem;
},
{
horizontal = 1;
place = "{19, -20}";
target = down;
type = TopGhost;
}
);
layerId = "40AAE8A1-2E59-408F-988A-610CC450AA88";
paths = (
{
closed = 1;
nodes = (
"127 552 OFFCURVE",
"115 563 OFFCURVE",
"104 563 CURVE SMOOTH",
"84 563 OFFCURVE",
"53 527 OFFCURVE",
"53 510 CURVE SMOOTH",
"53 491 OFFCURVE",
"76 488 OFFCURVE",
"88 488 CURVE SMOOTH",
"99 488 OFFCURVE",
"125 529 OFFCURVE",
"126 539 CURVE SMOOTH"
);
},
{
closed = 1;
nodes = (
"247 552 OFFCURVE",
"235 563 OFFCURVE",
"224 563 CURVE SMOOTH",
"204 563 OFFCURVE",
"173 527 OFFCURVE",
"173 510 CURVE SMOOTH",
"173 491 OFFCURVE",
"196 488 OFFCURVE",
"208 488 CURVE SMOOTH",
"219 488 OFFCURVE",
"245 529 OFFCURVE",
"246 539 CURVE SMOOTH"
);
}
);
width = 282;
}
);
note = dieresis;
unicode = 00A8;
},
{
color = 9;
glyphname = notequal;
lastChange = "2021-06-09 05:02:54 +0000";
layers = (
{
hints = (
{
horizontal = 1;
place = "{212, 49}";
type = Stem;
},
{
horizontal = 1;
place = "{332, 49}";
type = Stem;
}
);
layerId = "40AAE8A1-2E59-408F-988A-610CC450AA88";
paths = (
{
closed = 1;
nodes = (
"353 144 LINE SMOOTH",
"394 144 OFFCURVE",
"447 153 OFFCURVE",
"447 169 CURVE SMOOTH",
"447 180 OFFCURVE",
"402 181 OFFCURVE",
"385 181 CURVE SMOOTH",
"297 181 LINE",
"369 259 LINE",
"411 259 LINE SMOOTH",
"452 259 OFFCURVE",
"505 268 OFFCURVE",
"505 284 CURVE SMOOTH",
"505 295 OFFCURVE",
"460 296 OFFCURVE",
"443 296 CURVE SMOOTH",
"404 296 LINE",
"482 380 LINE SMOOTH",
"499 397 OFFCURVE",
"454 398 OFFCURVE",
"443 385 CURVE SMOOTH",
"415 356 OFFCURVE",
"388 326 OFFCURVE",
"362 296 CURVE",
"239 296 LINE SMOOTH",
"207 296 OFFCURVE",
"164 259 OFFCURVE",
"197 259 CURVE SMOOTH",
"330 259 LINE",
"264 181 LINE",
"181 181 LINE SMOOTH",
"149 181 OFFCURVE",
"106 144 OFFCURVE",
"139 144 CURVE SMOOTH",
"233 144 LINE",
"188 91 OFFCURVE",
"140 37 OFFCURVE",
"88 -17 CURVE SMOOTH",
"77 -28 OFFCURVE",
"105 -26 OFFCURVE",
"112 -19 CURVE SMOOTH",
"263 144 LINE"
);
}
);
width = 478;
}
);
note = notequal;
unicode = 2260;
},
{
color = 9;
glyphname = AE;
lastChange = "2021-06-09 05:02:54 +0000";
layers = (
{
hints = (
{
horizontal = 1;
place = "{-26, 50}";
type = Stem;
},
{
horizontal = 1;
place = "{542, 33}";
type = Stem;
},
{
place = "{344, 29}";
type = Stem;
},
{
horizontal = 1;
place = "{549, 35}";
type = Stem;
},
{
horizontal = 1;
place = "{192, 38}";
type = Stem;
},
{
horizontal = 1;
place = "{-110, 33}";
type = Stem;
},
{
horizontal = 1;
place = "{573, 21}";
target = up;
type = BottomGhost;
}
);
layerId = "40AAE8A1-2E59-408F-988A-610CC450AA88";
paths = (
{
closed = 1;
nodes = (
"1287 585 OFFCURVE",
"1131 525 OFFCURVE",
"1070 426 CURVE SMOOTH",
"1059 408 OFFCURVE",
"1052 388 OFFCURVE",
"1052 367 CURVE SMOOTH",
"1052 349 OFFCURVE",
"1058 332 OFFCURVE",
"1069 317 CURVE SMOOTH",
"1070 315 LINE",
"983 296 OFFCURVE",
"915 263 OFFCURVE",
"866 231 CURVE",
"918 325 OFFCURVE",
"985 430 OFFCURVE",
"1052 511 CURVE SMOOTH",
"1069 531 OFFCURVE",
"1087 550 OFFCURVE",
"1105 570 CURVE SMOOTH",
"1112 577 OFFCURVE",
"1121 587 OFFCURVE",
"1121 598 CURVE SMOOTH",
"1121 611 OFFCURVE",
"1108 615 OFFCURVE",
"1098 615 CURVE SMOOTH",
"1089 615 OFFCURVE",
"1080 612 OFFCURVE",
"1072 609 CURVE SMOOTH",
"918 550 OFFCURVE",
"742 339 OFFCURVE",
"612 220 CURVE",
"564 232 OFFCURVE",
"511 246 OFFCURVE",
"458 257 CURVE",
"471 278 LINE SMOOTH",
"517 352 OFFCURVE",
"507 442 OFFCURVE",
"403 442 CURVE SMOOTH",
"275 442 OFFCURVE",
"124 302 OFFCURVE",
"59 201 CURVE SMOOTH",
"28 153 OFFCURVE",
"7 88 OFFCURVE",
"7 31 CURVE SMOOTH",
"7 -57 OFFCURVE",
"56 -111 OFFCURVE",
"145 -111 CURVE SMOOTH",
"290 -111 OFFCURVE",
"487 59 OFFCURVE",
"621 191 CURVE",
"769 149 LINE",
"668 39 OFFCURVE",
"678 -124 OFFCURVE",
"923 -124 CURVE SMOOTH",
"1013 -124 OFFCURVE",
"1170 -97 OFFCURVE",
"1304 -20 CURVE SMOOTH",
"1512 99 OFFCURVE",
"1542 281 OFFCURVE",
"1386 264 CURVE SMOOTH",
"1267 251 OFFCURVE",
"1204 197 OFFCURVE",
"1138 126 CURVE",
"1133 118 OFFCURVE",
"1119 80 OFFCURVE",
"1147 105 CURVE SMOOTH",
"1227 178 OFFCURVE",
"1303 237 OFFCURVE",
"1386 249 CURVE SMOOTH",
"1483 263 OFFCURVE",
"1456 121 OFFCURVE",
"1272 13 CURVE SMOOTH",
"1136 -66 OFFCURVE",
"980 -103 OFFCURVE",
"925 -103 CURVE SMOOTH",
"569 -103 OFFCURVE",
"871 249 OFFCURVE",
"1090 296 CURVE SMOOTH",
"1091 296 LINE",
"1131 273 OFFCURVE",
"1183 266 OFFCURVE",
"1228 266 CURVE SMOOTH",
"1256 266 OFFCURVE",
"1302 269 OFFCURVE",
"1320 294 CURVE SMOOTH",
"1324 299 OFFCURVE",
"1328 306 OFFCURVE",
"1328 313 CURVE SMOOTH",
"1328 338 OFFCURVE",
"1277 340 OFFCURVE",
"1259 340 CURVE SMOOTH",
"1214 340 OFFCURVE",
"1161 336 OFFCURVE",
"1117 329 CURVE",
"1109 339 OFFCURVE",
"1106 352 OFFCURVE",
"1106 365 CURVE SMOOTH",
"1106 391 OFFCURVE",
"1119 417 OFFCURVE",
"1134 438 CURVE SMOOTH",
"1191 518 OFFCURVE",
"1319 564 OFFCURVE",
"1414 564 CURVE SMOOTH",
"1438 564 OFFCURVE",
"1489 562 OFFCURVE",
"1489 528 CURVE SMOOTH",
"1489 505 OFFCURVE",
"1420 449 OFFCURVE",
"1391 438 CURVE SMOOTH",
"1345 420 OFFCURVE",
"1331 397 OFFCURVE",
"1388 414 CURVE SMOOTH",
"1428 426 OFFCURVE",
"1479 455 OFFCURVE",
"1499 471 CURVE SMOOTH",
"1610 564 OFFCURVE",
"1516 603 OFFCURVE",
"1401 594 CURVE SMOOTH"
);
},
{
closed = 1;
nodes = (
"937 452 OFFCURVE",
"844 304 OFFCURVE",
"785 178 CURVE",
"722 191 OFFCURVE",
"664 206 OFFCURVE",
"641 212 CURVE",
"752 330 OFFCURVE",
"861 454 OFFCURVE",
"1012 537 CURVE"
);
},
{
closed = 1;
nodes = (
"486 105 OFFCURVE",
"270 -87 OFFCURVE",
"154 -87 CURVE SMOOTH",
"84 -87 OFFCURVE",
"44 -29 OFFCURVE",
"44 37 CURVE SMOOTH",
"44 84 OFFCURVE",
"62 136 OFFCURVE",
"84 178 CURVE SMOOTH",
"101 211 OFFCURVE",
"121 242 OFFCURVE",
"145 271 CURVE SMOOTH",
"198 336 OFFCURVE",
"295 413 OFFCURVE",
"383 413 CURVE SMOOTH",
"465 413 OFFCURVE",
"458 340 OFFCURVE",
"425 264 CURVE",
"374 274 OFFCURVE",
"323 281 OFFCURVE",
"280 281 CURVE SMOOTH",
"233 281 OFFCURVE",
"165 261 OFFCURVE",
"206 201 CURVE SMOOTH",
"220 183 OFFCURVE",
"234 172 OFFCURVE",
"242 173 CURVE SMOOTH",
"260 176 OFFCURVE",
"222 231 OFFCURVE",
"235 245 CURVE",
"252 268 OFFCURVE",
"331 260 OFFCURVE",
"416 243 CURVE",
"397 204 OFFCURVE",
"373 166 OFFCURVE",
"353 138 CURVE SMOOTH",
"347 129 OFFCURVE",
"357 114 OFFCURVE",
"386 152 CURVE SMOOTH",
"402 173 OFFCURVE",
"426 208 OFFCURVE",
"444 236 CURVE",
"498 224 OFFCURVE",
"549 211 OFFCURVE",
"589 200 CURVE",
"582 193 OFFCURVE",
"575 187 OFFCURVE",
"568 182 CURVE"
);
},
{
closed = 1;
nodes = (
"1255 320 OFFCURVE",
"1280 321 OFFCURVE",
"1280 311 CURVE SMOOTH",
"1280 308 LINE",
"1270 294 OFFCURVE",
"1250 291 OFFCURVE",
"1234 291 CURVE SMOOTH",
"1204 291 OFFCURVE",
"1173 298 OFFCURVE",
"1145 310 CURVE",
"1179 316 OFFCURVE",
"1214 320 OFFCURVE",
"1248 320 CURVE SMOOTH"
);
}
);
width = 1431;
}
);
note = AE;
unicode = 00C6;
},
{
color = 9;
glyphname = Oslash;
lastChange = "2021-06-09 05:02:54 +0000";
layers = (
{
components = (
{
name = slash;
transform = "{0.98481, 0.17365, -0.17365, 0.98481, 201, -26}";
}
);
hints = (
{
horizontal = 1;
place = "{-25, 33}";
type = Stem;
},
{
horizontal = 1;
place = "{560, 31}";
type = Stem;
},
{
place = "{59, 35}";
type = Stem;
},
{
place = "{715, 46}";
type = Stem;
},
{
horizontal = 1;
place = "{603, -20}";
target = down;
type = TopGhost;
}
);
layerId = "40AAE8A1-2E59-408F-988A-610CC450AA88";
paths = (
{
closed = 1;
nodes = (
"516 569 OFFCURVE",
"540 583 OFFCURVE",
"572 598 CURVE SMOOTH",
"611 616 OFFCURVE",
"660 631 OFFCURVE",
"704 631 CURVE SMOOTH",
"742 631 OFFCURVE",
"773 622 OFFCURVE",
"773 579 CURVE SMOOTH",
"773 571 OFFCURVE",
"772 563 OFFCURVE",
"771 555 CURVE",
"756 555 OFFCURVE",
"745 544 OFFCURVE",
"768 536 CURVE",
"722 406 OFFCURVE",
"542 303 OFFCURVE",
"425 262 CURVE SMOOTH",
"362 240 OFFCURVE",
"282 219 OFFCURVE",
"215 231 CURVE",
"265 352 OFFCURVE",
"366 469 OFFCURVE",
"480 546 CURVE SMOOTH"
);
},
{
closed = 1;
nodes = (
"401 530 OFFCURVE",
"359 496 OFFCURVE",
"322 458 CURVE SMOOTH",
"281 416 OFFCURVE",
"245 370 OFFCURVE",
"213 321 CURVE SMOOTH",
"196 296 OFFCURVE",
"181 269 OFFCURVE",
"169 241 CURVE",
"129 257 OFFCURVE",
"100 284 OFFCURVE",
"100 329 CURVE SMOOTH",
"100 465 OFFCURVE",
"227 537 OFFCURVE",
"351 555 CURVE SMOOTH",
"402 563 OFFCURVE",
"391 575 OFFCURVE",
"358 572 CURVE SMOOTH",
"215 559 OFFCURVE",
"67 490 OFFCURVE",
"67 327 CURVE SMOOTH",
"67 268 OFFCURVE",
"102 229 OFFCURVE",
"157 211 CURVE",
"146 178 OFFCURVE",
"139 143 OFFCURVE",
"139 107 CURVE SMOOTH",
"139 -1 OFFCURVE",
"204 -70 OFFCURVE",
"313 -70 CURVE SMOOTH",
"474 -70 OFFCURVE",
"665 44 OFFCURVE",
"771 159 CURVE SMOOTH",
"831 224 OFFCURVE",
"895 320 OFFCURVE",
"895 412 CURVE SMOOTH",
"895 467 OFFCURVE",
"871 513 OFFCURVE",
"824 541 CURVE",
"827 553 OFFCURVE",
"828 566 OFFCURVE",
"828 578 CURVE SMOOTH",
"828 644 OFFCURVE",
"774 666 OFFCURVE",
"717 666 CURVE SMOOTH",
"632 666 OFFCURVE",
"540 625 OFFCURVE",
"459 572 CURVE SMOOTH"
);
},
{
closed = 1;
nodes = (
"843 494 OFFCURVE",
"858 463 OFFCURVE",
"858 428 CURVE SMOOTH",
"858 341 OFFCURVE",
"772 234 OFFCURVE",
"718 172 CURVE SMOOTH",
"631 74 OFFCURVE",
"450 -38 OFFCURVE",
"317 -38 CURVE SMOOTH",
"231 -38 OFFCURVE",
"179 10 OFFCURVE",
"179 96 CURVE SMOOTH",
"179 131 OFFCURVE",
"187 165 OFFCURVE",
"199 198 CURVE",
"283 189 OFFCURVE",
"382 206 OFFCURVE",
"462 231 CURVE SMOOTH",
"597 274 OFFCURVE",
"758 375 OFFCURVE",
"813 512 CURVE"
);
}
);
width = 759;
}
);
note = Oslash;
unicode = 00D8;
},
{
color = 9;
glyphname = infinity;
lastChange = "2021-06-09 05:02:54 +0000";
layers = (
{
hints = (
{
horizontal = 1;
place = "{78, 39}";
type = Stem;
},
{
horizontal = 1;
place = "{264, 33}";
type = Stem;
},
{
place = "{129, 33}";
type = Stem;
},
{
place = "{666, 30}";
type = Stem;
},
{
horizontal = 1;
place = "{81, 32}";
type = Stem;
},
{
horizontal = 1;
place = "{276, 33}";
type = Stem;
}
);
layerId = "40AAE8A1-2E59-408F-988A-610CC450AA88";
paths = (
{
closed = 1;
nodes = (
"263 81 OFFCURVE",
"359 130 OFFCURVE",
"402 157 CURVE",
"437 117 OFFCURVE",
"477 78 OFFCURVE",
"531 78 CURVE SMOOTH",
"619 78 OFFCURVE",
"696 161 OFFCURVE",
"696 233 CURVE SMOOTH",
"696 276 OFFCURVE",
"662 309 OFFCURVE",
"601 309 CURVE SMOOTH",
"558 309 OFFCURVE",
"457 258 OFFCURVE",
"419 232 CURVE",
"382 271 OFFCURVE",
"343 297 OFFCURVE",
"299 297 CURVE SMOOTH",
"201 297 OFFCURVE",
"129 222 OFFCURVE",
"129 161 CURVE SMOOTH",
"129 114 OFFCURVE",
"173 81 OFFCURVE",
"226 81 CURVE SMOOTH"
);
},
{
closed = 1;
nodes = (
"649 276 OFFCURVE",
"669 233 OFFCURVE",
"666 196 CURVE SMOOTH",
"663 158 OFFCURVE",
"621 116 OFFCURVE",
"566 117 CURVE SMOOTH",
"512 118 OFFCURVE",
"479 163 OFFCURVE",
"437 211 CURVE SMOOTH",
"430 219 LINE",
"463 236 OFFCURVE",
"551 276 OFFCURVE",
"590 276 CURVE SMOOTH"
);
},
{
closed = 1;
nodes = (
"188 113 OFFCURVE",
"159 152 OFFCURVE",
"162 190 CURVE SMOOTH",
"165 229 OFFCURVE",
"208 264 OFFCURVE",
"256 264 CURVE SMOOTH",
"309 264 OFFCURVE",
"354 215 OFFCURVE",
"385 178 CURVE SMOOTH",
"391 170 LINE",
"355 150 OFFCURVE",
"283 113 OFFCURVE",
"253 113 CURVE SMOOTH"
);
}
);
width = 833;
}
);
note = infinity;
unicode = 221E;
},
{
color = 9;
glyphname = plusminus;
lastChange = "2021-06-09 05:02:54 +0000";
layers = (
{
hints = (
{
horizontal = 1;
place = "{67, 194}";
type = Stem;
}
);
layerId = "40AAE8A1-2E59-408F-988A-610CC450AA88";
paths = (
{
closed = 1;
nodes = (
"222 377 OFFCURVE",
"202 319 OFFCURVE",
"185 260 CURVE",
"138 260 OFFCURVE",
"91 259 OFFCURVE",
"44 259 CURVE SMOOTH",
"32 259 OFFCURVE",
"19 247 OFFCURVE",
"19 235 CURVE SMOOTH",
"19 214 OFFCURVE",
"151 212 OFFCURVE",
"171 212 CURVE",
"167 197 OFFCURVE",
"139 103 OFFCURVE",
"139 93 CURVE SMOOTH",
"139 83 OFFCURVE",
"146 67 OFFCURVE",
"158 67 CURVE SMOOTH",
"178 67 OFFCURVE",
"217 196 OFFCURVE",
"223 216 CURVE",
"247 220 OFFCURVE",
"397 236 OFFCURVE",
"397 259 CURVE SMOOTH",
"397 260 OFFCURVE",
"396 261 OFFCURVE",
"396 262 CURVE",
"365 259 OFFCURVE",
"333 260 OFFCURVE",
"302 260 CURVE SMOOTH",
"231 260 LINE",
"237 307 OFFCURVE",
"246 355 OFFCURVE",
"246 402 CURVE SMOOTH",
"246 408 OFFCURVE",
"246 439 OFFCURVE",
"234 437 CURVE"
);
},
{
closed = 1;
nodes = (
"187 -16 LINE SMOOTH",
"228 -16 OFFCURVE",
"281 -7 OFFCURVE",
"281 9 CURVE SMOOTH",
"281 20 OFFCURVE",
"236 21 OFFCURVE",
"219 21 CURVE SMOOTH",
"64 21 LINE SMOOTH",
"32 21 OFFCURVE",
"-11 -16 OFFCURVE",
"22 -16 CURVE SMOOTH"
);
}
);
width = 406;
}
);
note = plusminus;
unicode = 00B1;
},
